<svg width="313" height="313" viewBox="0 0 313 313" fill="none" xmlns="http://www.w3.org/2000/svg">
<path d="M28.1074 235.069H290.589C290.589 235.069 284.254 222.405 276.022 218.286C267.79 214.167 263.358 222.405 253.223 216.702C243.088 211 245.311 197.71 233.911 189.784C222.512 181.859 210.48 190.736 200.032 190.104C189.584 189.471 186.417 175.537 174.992 173.953C163.568 172.369 163.906 185.553 153.458 189.471C143.01 193.39 135.804 187.011 128.449 187.255C121.093 187.5 122.433 192 115.466 195.168C108.498 198.336 107.234 196.752 93.9376 198.016C80.6413 199.281 77.4738 212.896 72.7224 216.696C67.9711 220.496 61.6422 214.48 51.8266 216.696C42.0109 218.912 28.1074 235.069 28.1074 235.069Z" fill="#4A9396"/>
<g opacity="0.8">
<path d="M28.1074 235.069H290.589C290.589 235.069 284.254 222.405 276.022 218.286C267.79 214.167 263.358 222.405 253.223 216.702C243.088 211 245.311 197.71 233.911 189.784C222.512 181.859 210.48 190.736 200.032 190.104C189.584 189.471 186.417 175.537 174.992 173.953C163.568 172.369 163.906 185.553 153.458 189.471C143.01 193.39 135.804 187.011 128.449 187.255C121.093 187.5 122.433 192 115.466 195.168C108.498 198.336 107.234 196.752 93.9376 198.016C80.6413 199.281 77.4738 212.896 72.7224 216.696C67.9711 220.496 61.6422 214.48 51.8266 216.696C42.0109 218.912 28.1074 235.069 28.1074 235.069Z" fill="white"/>
</g>
<path d="M248.027 186.905C248.522 189.528 254.462 198.073 256.653 202.88C256.146 202.254 255.558 201.516 254.976 200.833C254.519 200.038 254.112 199.149 253.655 198.467C252.947 197.409 252.202 196.376 251.395 195.393C250.157 193.833 248.741 192.424 247.176 191.193C245.366 189.716 243.164 188.8 240.841 188.558C240.215 188.514 236.64 188.245 237.473 189.684C237.626 189.905 237.83 190.085 238.067 190.21C240.265 191.556 242.694 192.276 245.01 193.34C248.478 194.962 253.06 199.281 254.969 201.159L255.94 202.442C252.528 199.262 246.957 197.434 245.047 198.329C242.687 199.406 247.764 200.508 252.071 201.622C253.998 202.06 255.79 202.961 257.292 204.245C258.118 205.359 259.051 206.611 259.984 207.895C260.096 208.095 260.209 208.283 260.322 208.471C259.66 207.703 258.913 207.014 258.093 206.417C255.89 204.909 249.824 203.995 249.185 206.035C248.547 208.076 252.847 207.143 256.547 207.732C258.549 208.102 260.389 209.079 261.818 210.53L262.062 210.793C262.481 211.419 262.882 211.964 263.258 212.515C264.14 213.804 264.979 215.019 265.762 216.189C264.517 214.558 263.041 213.118 261.38 211.914C258.149 209.698 253.836 209.228 252.265 210.417C250.694 211.607 257.943 212.684 261.505 213.936C263.557 214.717 265.376 216.01 266.788 217.692C267.959 219.35 269.117 220.966 270.363 222.656C268.378 220.898 266.253 219.305 264.009 217.892C260.359 215.501 256.578 215.826 255.57 217.266C254.563 218.706 257.649 218.8 263.389 220.033C266.416 220.675 269.222 222.099 271.527 224.164L273.173 226.355C273.799 227.213 274.582 228.089 275.377 228.953C274.407 228.515 272.973 227.889 271.383 227.207C269.606 226.477 267.887 225.61 266.244 224.615C264.366 223.438 261.812 222.193 259.564 223.194C259.394 223.249 259.237 223.341 259.105 223.462C258.973 223.583 258.868 223.731 258.798 223.896C258.728 224.061 258.694 224.239 258.699 224.418C258.704 224.597 258.747 224.773 258.826 224.934C259.074 225.388 259.463 225.748 259.934 225.961C262.438 227.332 265.524 227.695 268.259 228.302C270.77 228.864 273.315 229.259 275.878 229.485C276.623 230.268 277.399 231.038 278.169 231.764L277.017 231.977C275.659 232.234 269.036 230.399 265.749 229.992C262.463 229.586 259.802 231.745 263.37 232.997C266.939 234.249 275.821 232.459 275.821 232.459L278.388 231.977C281.437 234.85 284.26 237.048 284.26 237.048L285.449 236.246C285.449 236.246 282.989 235.57 278.858 231.664C278.761 230.891 278.748 230.11 278.82 229.335C279.083 224.953 282.695 220.008 279.922 215.77C279.252 214.743 277.806 214.18 277.005 215.307C276.429 216.12 276.46 217.491 276.642 218.437C277.268 221.535 278.238 224.283 278 227.514C278 227.657 278 229.823 278.15 231C277.587 230.443 277.005 229.836 276.391 229.166C275.886 227.949 275.48 226.693 275.177 225.41C274.382 221.998 275.177 218.38 274.607 214.906C274.425 213.842 272.767 211.319 271.953 213.51C271.596 214.48 272.053 216.321 272.116 217.354C272.303 220.277 272.591 223.332 273.743 226.061L273.249 225.435C272.258 222.712 271.487 219.913 270.945 217.066C270.062 212.364 270.213 208.364 268.698 207.112C267.183 205.86 267.264 211.094 268.698 216.596C269.355 219.104 270.423 221.486 271.859 223.645C270.244 221.579 268.635 219.457 267.101 217.385C265.677 215.128 264.789 212.576 264.503 209.923C264.234 205.747 263.984 202.336 262.056 200.264C260.128 198.192 260.04 199.744 261.561 204.458C262.607 207.688 263.859 212.033 265.317 214.956C264.122 213.335 263.001 211.795 261.993 210.399C261.323 208.953 259.696 205.215 259.189 201.985C258.563 197.879 257.761 195.725 256.685 196.814C255.94 197.578 257.311 202.561 259.308 206.618C258.462 205.422 257.83 204.502 257.43 203.957C257.263 203.707 257.075 203.444 256.866 203.168C255.895 199.854 254.714 196.604 253.329 193.44C250.907 187.907 247.495 184.044 248.027 186.905Z" fill="#4A9396"/>
<g opacity="0.6">
<path d="M248.027 186.905C248.522 189.528 254.462 198.073 256.653 202.88C256.146 202.254 255.558 201.516 254.976 200.833C254.519 200.038 254.112 199.149 253.655 198.467C252.947 197.409 252.202 196.376 251.395 195.393C250.157 193.833 248.741 192.424 247.176 191.193C245.366 189.716 243.164 188.8 240.841 188.558C240.215 188.514 236.64 188.245 237.473 189.684C237.626 189.905 237.83 190.085 238.067 190.21C240.265 191.556 242.694 192.276 245.01 193.34C248.478 194.962 253.06 199.281 254.969 201.159L255.94 202.442C252.528 199.262 246.957 197.434 245.047 198.329C242.687 199.406 247.764 200.508 252.071 201.622C253.998 202.06 255.79 202.961 257.292 204.245C258.118 205.359 259.051 206.611 259.984 207.895C260.096 208.095 260.209 208.283 260.322 208.471C259.66 207.703 258.913 207.014 258.093 206.417C255.89 204.909 249.824 203.995 249.185 206.035C248.547 208.076 252.847 207.143 256.547 207.732C258.549 208.102 260.389 209.079 261.818 210.53L262.062 210.793C262.481 211.419 262.882 211.964 263.258 212.515C264.14 213.804 264.979 215.019 265.762 216.189C264.517 214.558 263.041 213.118 261.38 211.914C258.149 209.698 253.836 209.228 252.265 210.417C250.694 211.607 257.943 212.684 261.505 213.936C263.557 214.717 265.376 216.01 266.788 217.692C267.959 219.35 269.117 220.966 270.363 222.656C268.378 220.898 266.253 219.305 264.009 217.892C260.359 215.501 256.578 215.826 255.57 217.266C254.563 218.706 257.649 218.8 263.389 220.033C266.416 220.675 269.222 222.099 271.527 224.164L273.173 226.355C273.799 227.213 274.582 228.089 275.377 228.953C274.407 228.515 272.973 227.889 271.383 227.207C269.606 226.477 267.887 225.61 266.244 224.615C264.366 223.438 261.812 222.193 259.564 223.194C259.394 223.249 259.237 223.341 259.105 223.462C258.973 223.583 258.868 223.731 258.798 223.896C258.728 224.061 258.694 224.239 258.699 224.418C258.704 224.597 258.747 224.773 258.826 224.934C259.074 225.388 259.463 225.748 259.934 225.961C262.438 227.332 265.524 227.695 268.259 228.302C270.77 228.864 273.315 229.259 275.878 229.485C276.623 230.268 277.399 231.038 278.169 231.764L277.017 231.977C275.659 232.234 269.036 230.399 265.749 229.992C262.463 229.586 259.802 231.745 263.37 232.997C266.939 234.249 275.821 232.459 275.821 232.459L278.388 231.977C281.437 234.85 284.26 237.048 284.26 237.048L285.449 236.246C285.449 236.246 282.989 235.57 278.858 231.664C278.761 230.891 278.748 230.11 278.82 229.335C279.083 224.953 282.695 220.008 279.922 215.77C279.252 214.743 277.806 214.18 277.005 215.307C276.429 216.12 276.46 217.491 276.642 218.437C277.268 221.535 278.238 224.283 278 227.514C278 227.657 278 229.823 278.15 231C277.587 230.443 277.005 229.836 276.391 229.166C275.886 227.949 275.48 226.693 275.177 225.41C274.382 221.998 275.177 218.38 274.607 214.906C274.425 213.842 272.767 211.319 271.953 213.51C271.596 214.48 272.053 216.321 272.116 217.354C272.303 220.277 272.591 223.332 273.743 226.061L273.249 225.435C272.258 222.712 271.487 219.913 270.945 217.066C270.062 212.364 270.213 208.364 268.698 207.112C267.183 205.86 267.264 211.094 268.698 216.596C269.355 219.104 270.423 221.486 271.859 223.645C270.244 221.579 268.635 219.457 267.101 217.385C265.677 215.128 264.789 212.576 264.503 209.923C264.234 205.747 263.984 202.336 262.056 200.264C260.128 198.192 260.04 199.744 261.561 204.458C262.607 207.688 263.859 212.033 265.317 214.956C264.122 213.335 263.001 211.795 261.993 210.399C261.323 208.953 259.696 205.215 259.189 201.985C258.563 197.879 257.761 195.725 256.685 196.814C255.94 197.578 257.311 202.561 259.308 206.618C258.462 205.422 257.83 204.502 257.43 203.957C257.263 203.707 257.075 203.444 256.866 203.168C255.895 199.854 254.714 196.604 253.329 193.44C250.907 187.907 247.495 184.044 248.027 186.905Z" fill="white"/>
</g>
<path d="M292.398 174.704C290.946 176.939 289.356 187.224 287.628 192.232C287.716 191.406 287.778 190.492 287.822 189.597C288.041 188.708 288.36 187.788 288.504 186.967C288.717 185.715 288.886 184.463 288.986 183.211C289.167 181.228 289.112 179.229 288.824 177.258C288.526 174.947 287.563 172.772 286.05 170.998C285.656 170.554 283.227 167.868 282.839 169.49C282.796 169.754 282.82 170.025 282.908 170.278C283.565 172.782 284.83 174.967 285.762 177.352C287.152 180.92 287.49 187.205 287.578 189.872C287.528 190.304 287.465 190.849 287.396 191.468C287.121 186.817 284.329 181.659 282.345 180.977C279.891 180.138 282.808 184.432 285.162 188.207C286.253 189.853 286.929 191.739 287.133 193.703C286.964 195.087 286.77 196.633 286.564 198.204C286.507 198.43 286.457 198.642 286.414 198.861C286.462 197.847 286.395 196.831 286.213 195.832C285.656 193.221 281.894 188.376 280.022 189.415C278.15 190.454 281.9 192.745 284.185 195.719C285.379 197.369 286.035 199.347 286.063 201.384C286.063 201.503 286.063 201.622 286.063 201.741C285.957 202.461 285.85 203.156 285.744 203.813C285.493 205.353 285.268 206.805 285.049 208.195C285.272 206.159 285.201 204.101 284.836 202.085C284.016 198.254 281.218 194.936 279.258 194.717C277.299 194.498 281.806 200.27 283.528 203.638C284.482 205.611 284.913 207.797 284.78 209.985C284.485 211.989 284.21 213.961 283.947 216.045C283.719 213.402 283.279 210.781 282.632 208.208C281.637 203.963 278.67 201.585 276.93 201.948C275.189 202.311 277.38 204.489 280.686 209.341C282.428 211.89 283.472 214.851 283.715 217.929C283.609 218.806 283.503 219.707 283.396 220.646C283.277 221.717 283.215 222.875 283.202 224.052C282.795 223.063 282.194 221.617 281.512 220.033C280.729 218.278 280.083 216.466 279.578 214.612C279.014 212.452 278.038 209.798 275.721 208.978C275.56 208.9 275.384 208.859 275.204 208.855C275.025 208.852 274.848 208.887 274.683 208.958C274.519 209.029 274.372 209.135 274.252 209.268C274.132 209.401 274.042 209.558 273.987 209.729C273.854 210.228 273.884 210.757 274.075 211.237C274.926 213.942 276.93 216.346 278.488 218.674C279.923 220.811 281.496 222.852 283.196 224.784C283.196 225.867 283.227 226.956 283.284 228.014L282.301 227.388C281.136 226.637 277.612 220.74 275.515 218.186C273.418 215.632 270 215.35 271.715 218.718C273.43 222.086 281.105 226.913 281.105 226.913L283.296 228.34C283.528 232.521 284.054 236.058 284.054 236.058L285.468 236.296C285.468 236.296 284.154 234.112 283.853 228.44C284.316 227.811 284.847 227.236 285.437 226.725C288.642 223.732 294.67 222.643 295.584 217.654C295.804 216.452 295.153 215.05 293.788 215.313C292.811 215.501 291.91 216.521 291.384 217.316C289.688 219.976 288.504 222.649 286.113 224.828C286.007 224.928 284.523 226.506 283.816 227.457C283.816 226.668 283.784 225.823 283.816 224.916C284.292 223.683 284.865 222.489 285.531 221.347C287.309 218.33 290.382 216.264 292.361 213.347C292.987 212.452 293.5 209.485 291.403 210.511C290.47 210.968 289.525 212.615 288.899 213.403C287.021 215.651 285.143 218.067 284.066 220.834C284.066 220.571 284.116 220.308 284.135 220.045C285.298 217.39 286.671 214.832 288.241 212.396C290.846 208.383 293.706 205.585 293.475 203.632C293.243 201.678 289.719 205.51 286.921 210.518C285.669 212.788 284.802 215.25 284.354 217.804C284.611 215.188 284.905 212.546 285.205 210.004C285.727 207.387 286.845 204.926 288.473 202.812C291.152 199.6 293.325 196.958 293.356 194.129C293.387 191.299 292.254 192.357 290.107 196.821C288.636 199.882 286.551 203.895 285.575 207.006C285.831 205.009 286.082 203.118 286.32 201.416C286.827 199.907 288.198 196.076 290.076 193.39C292.442 189.972 293.356 187.863 291.822 187.919C290.758 187.957 288.292 192.489 286.964 196.821C287.177 195.375 287.353 194.273 287.465 193.622C287.515 193.33 287.559 193.01 287.597 192.664C289.17 189.574 290.545 186.388 291.716 183.124C293.794 177.408 293.976 172.275 292.398 174.704Z" fill="#4A9396"/>
<g opacity="0.6">
<path d="M292.398 174.704C290.946 176.939 289.356 187.224 287.628 192.232C287.716 191.406 287.778 190.492 287.822 189.597C288.041 188.708 288.36 187.788 288.504 186.967C288.717 185.715 288.886 184.463 288.986 183.211C289.167 181.228 289.112 179.229 288.824 177.258C288.526 174.947 287.563 172.772 286.05 170.998C285.656 170.554 283.227 167.868 282.839 169.49C282.796 169.754 282.82 170.025 282.908 170.278C283.565 172.782 284.83 174.967 285.762 177.352C287.152 180.92 287.49 187.205 287.578 189.872C287.528 190.304 287.465 190.849 287.396 191.468C287.121 186.817 284.329 181.659 282.345 180.977C279.891 180.138 282.808 184.432 285.162 188.207C286.253 189.853 286.929 191.739 287.133 193.703C286.964 195.087 286.77 196.633 286.564 198.204C286.507 198.43 286.457 198.642 286.414 198.861C286.462 197.847 286.395 196.831 286.213 195.832C285.656 193.221 281.894 188.376 280.022 189.415C278.15 190.454 281.9 192.745 284.185 195.719C285.379 197.369 286.035 199.347 286.063 201.384C286.063 201.503 286.063 201.622 286.063 201.741C285.957 202.461 285.85 203.156 285.744 203.813C285.493 205.353 285.268 206.805 285.049 208.195C285.272 206.159 285.201 204.101 284.836 202.085C284.016 198.254 281.218 194.936 279.258 194.717C277.299 194.498 281.806 200.27 283.528 203.638C284.482 205.611 284.913 207.797 284.78 209.985C284.485 211.989 284.21 213.961 283.947 216.045C283.719 213.402 283.279 210.781 282.632 208.208C281.637 203.963 278.67 201.585 276.93 201.948C275.189 202.311 277.38 204.489 280.686 209.341C282.428 211.89 283.472 214.851 283.715 217.929C283.609 218.806 283.503 219.707 283.396 220.646C283.277 221.717 283.215 222.875 283.202 224.052C282.795 223.063 282.194 221.617 281.512 220.033C280.729 218.278 280.083 216.466 279.578 214.612C279.014 212.452 278.038 209.798 275.721 208.978C275.56 208.9 275.384 208.859 275.204 208.855C275.025 208.852 274.848 208.887 274.683 208.958C274.519 209.029 274.372 209.135 274.252 209.268C274.132 209.401 274.042 209.558 273.987 209.729C273.854 210.228 273.884 210.757 274.075 211.237C274.926 213.942 276.93 216.346 278.488 218.674C279.923 220.811 281.496 222.852 283.196 224.784C283.196 225.867 283.227 226.956 283.284 228.014L282.301 227.388C281.136 226.637 277.612 220.74 275.515 218.186C273.418 215.632 270 215.35 271.715 218.718C273.43 222.086 281.105 226.913 281.105 226.913L283.296 228.34C283.528 232.521 284.054 236.058 284.054 236.058L285.468 236.296C285.468 236.296 284.154 234.112 283.853 228.44C284.316 227.811 284.847 227.236 285.437 226.725C288.642 223.732 294.67 222.643 295.584 217.654C295.804 216.452 295.153 215.05 293.788 215.313C292.811 215.501 291.91 216.521 291.384 217.316C289.688 219.976 288.504 222.649 286.113 224.828C286.007 224.928 284.523 226.506 283.816 227.457C283.816 226.668 283.784 225.823 283.816 224.916C284.292 223.683 284.865 222.489 285.531 221.347C287.309 218.33 290.382 216.264 292.361 213.347C292.987 212.452 293.5 209.485 291.403 210.511C290.47 210.968 289.525 212.615 288.899 213.403C287.021 215.651 285.143 218.067 284.066 220.834C284.066 220.571 284.116 220.308 284.135 220.045C285.298 217.39 286.671 214.832 288.241 212.396C290.846 208.383 293.706 205.585 293.475 203.632C293.243 201.678 289.719 205.51 286.921 210.518C285.669 212.788 284.802 215.25 284.354 217.804C284.611 215.188 284.905 212.546 285.205 210.004C285.727 207.387 286.845 204.926 288.473 202.812C291.152 199.6 293.325 196.958 293.356 194.129C293.387 191.299 292.254 192.357 290.107 196.821C288.636 199.882 286.551 203.895 285.575 207.006C285.831 205.009 286.082 203.118 286.32 201.416C286.827 199.907 288.198 196.076 290.076 193.39C292.442 189.972 293.356 187.863 291.822 187.919C290.758 187.957 288.292 192.489 286.964 196.821C287.177 195.375 287.353 194.273 287.465 193.622C287.515 193.33 287.559 193.01 287.597 192.664C289.17 189.574 290.545 186.388 291.716 183.124C293.794 177.408 293.976 172.275 292.398 174.704Z" fill="white"/>
</g>
<path d="M25.4029 197.19C25.6971 199.156 29.8851 205.71 31.375 209.353C31.0181 208.846 30.605 208.308 30.1856 207.782C29.8663 207.156 29.5909 206.499 29.2653 205.973C28.7708 205.165 28.245 204.377 27.6753 203.619C26.7946 202.419 25.7756 201.326 24.6392 200.364C23.3334 199.211 21.7188 198.464 19.9943 198.217C19.5498 198.167 16.8643 197.86 17.4465 198.955C17.5515 199.127 17.7007 199.268 17.8784 199.362C19.481 200.433 21.2651 201.04 22.9678 201.923C25.5093 203.2 28.7958 206.58 30.173 208.014L30.8554 208.996C28.4077 206.524 24.3012 205.015 22.8488 205.61C21.0585 206.348 24.8145 207.319 27.9946 208.277C29.4204 208.654 30.7317 209.377 31.8132 210.38C32.4016 211.231 33.0652 212.202 33.6912 213.184C33.7663 213.335 33.8477 213.479 33.929 213.623C33.4593 213.03 32.9214 212.494 32.3265 212.026C30.7239 210.837 26.223 209.979 25.6846 211.482C25.1463 212.984 28.3889 212.414 31.1308 212.959C32.6152 213.294 33.9611 214.076 34.987 215.2C35.0433 215.275 35.0997 215.338 35.1623 215.407C35.4565 215.857 35.7382 216.302 36.0011 216.721C36.6271 217.71 37.2093 218.637 37.7915 219.532C36.9094 218.286 35.8556 217.171 34.6615 216.22C32.314 214.474 29.1026 213.998 27.9007 214.843C26.6987 215.688 32.0698 216.721 34.6928 217.735C36.2011 218.371 37.5219 219.382 38.5301 220.671C39.3502 221.923 40.1703 223.175 41.0341 224.477C39.603 223.102 38.0621 221.846 36.4268 220.721C33.7725 218.843 30.943 218.962 30.1668 220.027C29.3905 221.091 31.6754 221.235 35.9197 222.318C38.1557 222.886 40.2039 224.03 41.8605 225.636C42.2298 226.18 42.6179 226.737 43.0248 227.319C43.5128 228.011 44.0351 228.677 44.5898 229.316C43.8762 228.966 42.8308 228.453 41.6601 227.902C40.3569 227.303 39.1013 226.607 37.9041 225.817C36.5207 224.884 34.6677 223.883 32.9587 224.565C32.8296 224.597 32.7089 224.657 32.605 224.74C32.5012 224.823 32.4166 224.928 32.3571 225.047C32.2976 225.166 32.2646 225.296 32.2604 225.429C32.2562 225.562 32.2809 225.695 32.3327 225.817C32.5114 226.186 32.8091 226.484 33.1778 226.662C34.9932 227.758 37.2969 228.114 39.3252 228.647C41.177 229.137 43.0591 229.505 44.9592 229.748C45.4975 230.374 46.0547 230.95 46.6055 231.514L45.7417 231.645C44.715 231.795 39.8322 230.237 37.3971 229.83C34.9619 229.423 32.9087 230.969 35.5191 232.008C38.1295 233.047 44.8214 231.964 44.8214 231.964L46.7558 231.683C48.9468 233.911 50.9875 235.633 50.9875 235.633L51.8952 235.069C51.8952 235.069 50.0861 234.493 47.1126 231.464C47.0641 230.884 47.0788 230.3 47.1564 229.723C47.4757 226.462 50.2864 222.875 48.3646 219.632C47.8951 218.85 46.8372 218.38 46.1986 219.207C45.8029 219.908 45.676 220.729 45.8418 221.516C46.2049 223.845 46.8622 225.898 46.5993 228.321C46.5993 228.434 46.5367 230.049 46.5993 230.925C46.1986 230.5 45.7792 230.03 45.3473 229.51C45.0061 228.583 44.7382 227.631 44.546 226.662C44.0577 224.096 44.7588 221.416 44.4271 218.812C44.3206 218.011 43.1751 216.083 42.4865 217.692C42.1922 218.405 42.4865 219.795 42.4865 220.565C42.4416 222.784 42.7674 224.995 43.4505 227.107C43.3316 226.95 43.2126 226.794 43.0999 226.631C42.4498 224.58 41.9641 222.48 41.6476 220.352C41.128 216.821 41.3534 213.842 40.2579 212.84C39.1624 211.838 39.0748 215.776 39.9699 219.914C40.3916 221.806 41.1212 223.617 42.1296 225.272C40.9841 223.676 39.8447 222.055 38.7618 220.477C37.7632 218.756 37.1741 216.829 37.0403 214.843C36.9589 211.713 36.865 209.172 35.4878 207.569C34.1106 205.967 33.9979 207.118 34.9995 210.699C35.6881 213.141 36.4956 216.415 37.5035 218.643C36.6647 217.391 35.8696 216.214 35.1623 215.144C34.2703 213.111 33.6393 210.974 33.2843 208.784C32.9274 205.704 32.4016 204.07 31.5628 204.859C30.9868 205.403 31.8445 209.159 33.2404 212.245C32.6144 211.325 32.195 210.624 31.9384 210.205C31.8215 210.017 31.69 209.808 31.544 209.579C30.9139 207.072 30.1278 204.607 29.1902 202.198C27.5438 197.985 25.0899 195.018 25.4029 197.19Z" fill="#4A9396"/>
<path opacity="0.6" d="M25.4029 197.19C25.6971 199.156 29.8851 205.71 31.375 209.353C31.0181 208.846 30.605 208.308 30.1856 207.782C29.8663 207.156 29.5909 206.499 29.2653 205.973C28.7708 205.165 28.245 204.377 27.6753 203.619C26.7946 202.419 25.7756 201.326 24.6392 200.364C23.3334 199.211 21.7188 198.464 19.9943 198.217C19.5498 198.167 16.8643 197.86 17.4465 198.955C17.5515 199.127 17.7007 199.268 17.8784 199.362C19.481 200.433 21.2651 201.04 22.9678 201.923C25.5093 203.2 28.7958 206.58 30.173 208.014L30.8554 208.996C28.4077 206.524 24.3012 205.015 22.8488 205.61C21.0585 206.348 24.8145 207.319 27.9946 208.277C29.4204 208.654 30.7317 209.377 31.8132 210.38C32.4016 211.231 33.0652 212.202 33.6912 213.184C33.7663 213.335 33.8477 213.479 33.929 213.623C33.4593 213.03 32.9214 212.494 32.3265 212.026C30.7239 210.837 26.223 209.979 25.6846 211.482C25.1463 212.984 28.3889 212.414 31.1308 212.959C32.6152 213.294 33.9611 214.076 34.987 215.2C35.0433 215.275 35.0997 215.338 35.1623 215.407C35.4565 215.857 35.7382 216.302 36.0011 216.721C36.6271 217.71 37.2093 218.637 37.7915 219.532C36.9094 218.286 35.8556 217.171 34.6615 216.22C32.314 214.474 29.1026 213.998 27.9007 214.843C26.6987 215.688 32.0698 216.721 34.6928 217.735C36.2011 218.371 37.5219 219.382 38.5301 220.671C39.3502 221.923 40.1703 223.175 41.0341 224.477C39.603 223.102 38.0621 221.846 36.4268 220.721C33.7725 218.843 30.943 218.962 30.1668 220.027C29.3905 221.091 31.6754 221.235 35.9197 222.318C38.1557 222.886 40.2039 224.03 41.8605 225.636C42.2298 226.18 42.6179 226.737 43.0248 227.319C43.5128 228.011 44.0351 228.677 44.5898 229.316C43.8762 228.966 42.8308 228.453 41.6601 227.902C40.3569 227.303 39.1013 226.607 37.9041 225.817C36.5207 224.884 34.6677 223.883 32.9587 224.565C32.8296 224.597 32.7089 224.657 32.605 224.74C32.5012 224.823 32.4166 224.928 32.3571 225.047C32.2976 225.166 32.2646 225.296 32.2604 225.429C32.2562 225.562 32.2809 225.695 32.3327 225.817C32.5114 226.186 32.8091 226.484 33.1778 226.662C34.9932 227.758 37.2969 228.114 39.3252 228.647C41.177 229.137 43.0591 229.505 44.9592 229.748C45.4975 230.374 46.0547 230.95 46.6055 231.514L45.7417 231.645C44.715 231.795 39.8322 230.237 37.3971 229.83C34.9619 229.423 32.9087 230.969 35.5191 232.008C38.1295 233.047 44.8214 231.964 44.8214 231.964L46.7558 231.683C48.9468 233.911 50.9875 235.633 50.9875 235.633L51.8952 235.069C51.8952 235.069 50.0861 234.493 47.1126 231.464C47.0641 230.884 47.0788 230.3 47.1564 229.723C47.4757 226.462 50.2864 222.875 48.3646 219.632C47.8951 218.85 46.8372 218.38 46.1986 219.207C45.8029 219.908 45.676 220.729 45.8418 221.516C46.2049 223.845 46.8622 225.898 46.5993 228.321C46.5993 228.434 46.5367 230.049 46.5993 230.925C46.1986 230.5 45.7792 230.03 45.3473 229.51C45.0061 228.583 44.7382 227.631 44.546 226.662C44.0577 224.096 44.7588 221.416 44.4271 218.812C44.3206 218.011 43.1751 216.083 42.4865 217.692C42.1922 218.405 42.4865 219.795 42.4865 220.565C42.4416 222.784 42.7674 224.995 43.4505 227.107C43.3316 226.95 43.2126 226.794 43.0999 226.631C42.4498 224.58 41.9641 222.48 41.6476 220.352C41.128 216.821 41.3534 213.842 40.2579 212.84C39.1624 211.838 39.0748 215.776 39.9699 219.914C40.3916 221.806 41.1212 223.617 42.1296 225.272C40.9841 223.676 39.8447 222.055 38.7618 220.477C37.7632 218.756 37.1741 216.829 37.0403 214.843C36.9589 211.713 36.865 209.172 35.4878 207.569C34.1106 205.967 33.9979 207.118 34.9995 210.699C35.6881 213.141 36.4956 216.415 37.5035 218.643C36.6647 217.391 35.8696 216.214 35.1623 215.144C34.2703 213.111 33.6393 210.974 33.2843 208.784C32.9274 205.704 32.4016 204.07 31.5628 204.859C30.9868 205.403 31.8445 209.159 33.2404 212.245C32.6144 211.325 32.195 210.624 31.9384 210.205C31.8215 210.017 31.69 209.808 31.544 209.579C30.9139 207.072 30.1278 204.607 29.1902 202.198C27.5438 197.985 25.0899 195.018 25.4029 197.19Z" fill="white"/>
<path d="M70.7374 195.638C69.066 196.714 64.8279 203.231 62.1236 206.098C62.4366 205.56 62.7496 204.959 63.0626 204.364C63.482 203.819 63.9828 203.294 64.3146 202.78C64.8467 201.992 65.3475 201.184 65.8045 200.351C66.5326 199.056 67.1062 197.68 67.5135 196.251C68.0295 194.585 68.0426 192.804 67.551 191.13C67.4196 190.705 66.587 188.132 65.8295 189.121C65.7173 189.287 65.6504 189.479 65.6355 189.678C65.3162 191.556 65.504 193.434 65.4039 195.368C65.2599 198.223 63.5634 202.605 62.7997 204.458C62.6369 204.733 62.4303 205.084 62.1737 205.485C63.4257 202.236 63.0939 197.872 61.9546 196.796C60.5398 195.469 61.2096 199.3 61.6541 202.58C61.8924 204.037 61.7742 205.53 61.3098 206.931C60.7715 207.813 60.1642 208.809 59.5445 209.817L59.2377 210.217C59.6069 209.546 59.8948 208.834 60.0954 208.095C60.5148 206.148 59.4694 201.697 57.848 201.835C56.2267 201.973 58.1172 204.677 58.7495 207.4C59.0619 208.891 58.9044 210.441 58.2987 211.838L58.1861 212.083C57.8918 212.54 57.6101 212.978 57.3347 213.391C56.7087 214.368 56.0827 215.269 55.5068 216.177C56.2826 214.861 56.8645 213.44 57.2346 211.957C57.8605 209.097 56.9654 205.979 55.7009 205.228C54.4363 204.477 55.7008 209.791 55.8699 212.608C55.9129 214.245 55.5357 215.866 54.7744 217.316C53.9606 218.568 53.1718 219.82 52.3517 221.185C53.0002 219.312 53.4963 217.39 53.8354 215.438C54.4614 212.245 53.1718 209.716 51.8697 209.435C50.5677 209.153 51.394 211.313 52.1577 215.62C52.5633 217.89 52.3669 220.228 51.588 222.399C51.2437 222.963 50.8994 223.545 50.5364 224.152C50.1733 224.759 49.7351 225.61 49.3595 226.412C49.3595 225.61 49.4221 224.446 49.4409 223.157C49.4487 221.721 49.5638 220.287 49.7852 218.868C50.0668 217.228 50.2171 215.112 48.89 213.86C48.8042 213.757 48.6966 213.673 48.5749 213.616C48.4531 213.559 48.3203 213.529 48.1857 213.529C48.0512 213.529 47.9183 213.559 47.7966 213.616C47.6748 213.673 47.5672 213.757 47.4815 213.86C47.2364 214.158 47.0956 214.527 47.0808 214.912C46.8304 217.022 47.4564 219.294 47.8007 221.335C48.123 223.24 48.5684 225.122 49.1341 226.969C48.8023 227.701 48.5081 228.459 48.2014 229.191L47.7256 228.459C47.1685 227.589 46.5738 222.493 45.9352 220.108C45.2967 217.723 43.0431 216.49 43.1809 219.307C43.3186 222.124 47.0621 227.77 47.0621 227.77L48.12 229.41C46.9932 232.321 46.242 234.894 46.242 234.894L47.1246 235.489C47.1246 235.489 46.9055 233.611 48.4392 229.648C48.9547 229.336 49.5053 229.086 50.0794 228.903C53.2094 227.852 57.5914 228.953 59.7699 225.842C60.2894 225.091 60.2769 223.964 59.2691 223.695C58.4665 223.62 57.6645 223.843 57.0155 224.321C55.0436 225.611 53.4222 227.069 51.1248 227.814C51.0184 227.852 49.5285 228.471 48.7522 228.897C48.9776 228.359 49.2343 227.776 49.5285 227.169C50.2283 226.482 50.9842 225.853 51.7884 225.291C53.923 223.783 56.6524 223.319 58.8935 221.936C59.5758 221.516 60.8528 219.657 59.1125 219.714C58.3363 219.714 57.1907 220.571 56.5021 220.909C54.4611 221.783 52.5802 222.991 50.937 224.484C51.0309 224.315 51.1248 224.139 51.225 223.97C52.8209 222.509 54.5311 221.178 56.3394 219.989C59.3442 218.061 62.1486 217.034 62.5994 215.607C63.0501 214.18 59.4694 215.738 56.0389 218.268C54.488 219.429 53.1405 220.84 52.0513 222.443C53.0278 220.74 54.042 219.031 55.0248 217.397C56.1892 215.782 57.71 214.456 59.4694 213.522C62.2864 212.158 64.5713 211.018 65.4602 209.14C66.3491 207.262 65.2536 207.6 62.4241 209.979C60.4835 211.613 57.8355 213.698 56.2142 215.519C57.0029 214.267 57.7541 213.015 58.4365 211.945C59.9169 210.301 61.5997 208.852 63.4445 207.632C66.105 206.035 67.3758 204.877 66.3116 204.445C65.5729 204.145 62.5055 206.474 60.2706 209.015L61.5915 206.993C61.7167 206.805 61.8482 206.599 61.9796 206.367C63.9956 204.759 65.9086 203.026 67.7075 201.178C70.8688 197.904 72.5653 194.467 70.7374 195.638Z" fill="#4A9396"/>
<path opacity="0.6" d="M70.7374 195.638C69.066 196.714 64.8279 203.231 62.1236 206.098C62.4366 205.56 62.7496 204.959 63.0626 204.364C63.482 203.819 63.9828 203.294 64.3146 202.78C64.8467 201.992 65.3475 201.184 65.8045 200.351C66.5326 199.056 67.1062 197.68 67.5135 196.251C68.0295 194.585 68.0426 192.804 67.551 191.13C67.4196 190.705 66.587 188.132 65.8295 189.121C65.7173 189.287 65.6504 189.479 65.6355 189.678C65.3162 191.556 65.504 193.434 65.4039 195.368C65.2599 198.223 63.5634 202.605 62.7997 204.458C62.6369 204.733 62.4303 205.084 62.1737 205.485C63.4257 202.236 63.0939 197.872 61.9546 196.796C60.5398 195.469 61.2096 199.3 61.6541 202.58C61.8924 204.037 61.7742 205.53 61.3098 206.931C60.7715 207.813 60.1642 208.809 59.5445 209.817L59.2377 210.217C59.6069 209.546 59.8948 208.834 60.0954 208.095C60.5148 206.148 59.4694 201.697 57.848 201.835C56.2267 201.973 58.1172 204.677 58.7495 207.4C59.0619 208.891 58.9044 210.441 58.2987 211.838L58.1861 212.083C57.8918 212.54 57.6101 212.978 57.3347 213.391C56.7087 214.368 56.0827 215.269 55.5068 216.177C56.2826 214.861 56.8645 213.44 57.2346 211.957C57.8605 209.097 56.9654 205.979 55.7009 205.228C54.4363 204.477 55.7008 209.791 55.8699 212.608C55.9129 214.245 55.5357 215.866 54.7744 217.316C53.9606 218.568 53.1718 219.82 52.3517 221.185C53.0002 219.312 53.4963 217.39 53.8354 215.438C54.4614 212.245 53.1718 209.716 51.8697 209.435C50.5677 209.153 51.394 211.313 52.1577 215.62C52.5633 217.89 52.3669 220.228 51.588 222.399C51.2437 222.963 50.8994 223.545 50.5364 224.152C50.1733 224.759 49.7351 225.61 49.3595 226.412C49.3595 225.61 49.4221 224.446 49.4409 223.157C49.4487 221.721 49.5638 220.287 49.7852 218.868C50.0668 217.228 50.2171 215.112 48.89 213.86C48.8042 213.757 48.6966 213.673 48.5749 213.616C48.4531 213.559 48.3203 213.529 48.1857 213.529C48.0512 213.529 47.9183 213.559 47.7966 213.616C47.6748 213.673 47.5672 213.757 47.4815 213.86C47.2364 214.158 47.0956 214.527 47.0808 214.912C46.8304 217.022 47.4564 219.294 47.8007 221.335C48.123 223.24 48.5684 225.122 49.1341 226.969C48.8023 227.701 48.5081 228.459 48.2014 229.191L47.7256 228.459C47.1685 227.589 46.5738 222.493 45.9352 220.108C45.2967 217.723 43.0431 216.49 43.1809 219.307C43.3186 222.124 47.0621 227.77 47.0621 227.77L48.12 229.41C46.9932 232.321 46.242 234.894 46.242 234.894L47.1246 235.489C47.1246 235.489 46.9055 233.611 48.4392 229.648C48.9547 229.336 49.5053 229.086 50.0794 228.903C53.2094 227.852 57.5914 228.953 59.7699 225.842C60.2894 225.091 60.2769 223.964 59.2691 223.695C58.4665 223.62 57.6645 223.843 57.0155 224.321C55.0436 225.611 53.4222 227.069 51.1248 227.814C51.0184 227.852 49.5285 228.471 48.7522 228.897C48.9776 228.359 49.2343 227.776 49.5285 227.169C50.2283 226.482 50.9842 225.853 51.7884 225.291C53.923 223.783 56.6524 223.319 58.8935 221.936C59.5758 221.516 60.8528 219.657 59.1125 219.714C58.3363 219.714 57.1907 220.571 56.5021 220.909C54.4611 221.783 52.5802 222.991 50.937 224.484C51.0309 224.315 51.1248 224.139 51.225 223.97C52.8209 222.509 54.5311 221.178 56.3394 219.989C59.3442 218.061 62.1486 217.034 62.5994 215.607C63.0501 214.18 59.4694 215.738 56.0389 218.268C54.488 219.429 53.1405 220.84 52.0513 222.443C53.0278 220.74 54.042 219.031 55.0248 217.397C56.1892 215.782 57.71 214.456 59.4694 213.522C62.2864 212.158 64.5713 211.018 65.4602 209.14C66.3491 207.262 65.2536 207.6 62.4241 209.979C60.4835 211.613 57.8355 213.698 56.2142 215.519C57.0029 214.267 57.7541 213.015 58.4365 211.945C59.9169 210.301 61.5997 208.852 63.4445 207.632C66.105 206.035 67.3758 204.877 66.3116 204.445C65.5729 204.145 62.5055 206.474 60.2706 209.015L61.5915 206.993C61.7167 206.805 61.8482 206.599 61.9796 206.367C63.9956 204.759 65.9086 203.026 67.7075 201.178C70.8688 197.904 72.5653 194.467 70.7374 195.638Z" fill="white"/>
<path d="M89.0917 195.807C87.4141 196.89 83.176 203.406 80.4717 206.267C80.7847 205.735 81.0977 205.134 81.4107 204.533C81.8301 203.995 82.3309 203.463 82.6627 202.956C83.1948 202.167 83.6956 201.359 84.1526 200.527C84.8796 199.231 85.4532 197.855 85.8616 196.426C86.3767 194.76 86.3919 192.98 85.9054 191.306C85.7677 190.88 84.9351 188.307 84.1776 189.29C84.0662 189.458 83.9994 189.652 83.9836 189.853C83.6706 191.731 83.8521 193.609 83.752 195.537C83.608 198.398 81.9115 202.78 81.1478 204.633C80.985 204.909 80.7785 205.259 80.5218 205.66C81.7738 202.405 81.4483 198.041 80.3027 196.971C78.8879 195.644 79.5578 199.475 80.0022 202.755C80.2442 204.21 80.126 205.701 79.6579 207.1C79.1196 207.989 78.5123 208.978 77.8926 209.992C77.7862 210.123 77.686 210.261 77.5859 210.392C77.9334 209.719 78.2002 209.006 78.3809 208.27C78.8066 206.323 77.7549 201.873 76.1335 202.01C74.5122 202.148 76.4027 204.852 77.035 207.575C77.3482 209.064 77.1906 210.613 76.5843 212.007L76.4716 212.258C76.1774 212.709 75.8957 213.153 75.6202 213.566C74.9942 214.537 74.3682 215.444 73.7923 216.352C74.5692 215.034 75.1511 213.611 75.5201 212.126C76.1461 209.272 75.2509 206.154 73.9864 205.403C72.7218 204.652 74.0177 209.967 74.1554 212.784C74.1984 214.421 73.8212 216.041 73.0599 217.491C72.2461 218.743 71.4573 219.995 70.6373 221.36C71.2931 219.49 71.7976 217.57 72.1459 215.619C72.7719 212.427 71.4824 209.898 70.1803 209.616C68.8782 209.334 69.7045 211.494 70.4745 215.801C70.8749 218.073 70.6764 220.409 69.8986 222.581C69.5543 223.144 69.21 223.726 68.8469 224.333C68.4838 224.941 68.0456 225.792 67.67 226.587C67.67 225.792 67.7326 224.628 67.7514 223.332C67.7595 221.898 67.8746 220.467 68.0957 219.05C68.3774 217.41 68.5276 215.294 67.2005 214.042C67.1148 213.938 67.0072 213.855 66.8854 213.798C66.7637 213.74 66.6308 213.711 66.4963 213.711C66.3617 213.711 66.2288 213.74 66.1071 213.798C65.9854 213.855 65.8778 213.938 65.792 214.042C65.5469 214.339 65.4062 214.709 65.3914 215.094C65.141 217.197 65.767 219.476 66.1113 221.516C66.4338 223.409 66.8792 225.278 67.4447 227.113C67.1129 227.852 66.8187 228.603 66.5119 229.341L66.0362 228.603C65.479 227.733 64.8843 222.643 64.2458 220.258C63.6073 217.873 61.3537 216.64 61.4914 219.457C61.6291 222.274 65.3726 227.914 65.3726 227.914L66.4305 229.554C65.3037 232.471 64.5525 235.044 64.5525 235.044L65.4352 235.639C65.4352 235.639 65.2161 233.761 66.7498 229.798C67.2569 229.51 67.7944 229.279 68.3524 229.11C71.4824 228.058 75.8644 229.166 78.0428 226.055C78.5624 225.297 78.5499 224.146 77.542 223.908C76.7392 223.83 75.9361 224.053 75.2884 224.534C73.3165 225.823 71.6952 227.282 69.3978 228.027C69.2914 228.058 67.8015 228.684 67.0252 229.11C67.2506 228.565 67.5073 227.989 67.8015 227.376C68.5028 226.69 69.2585 226.062 70.0613 225.498C72.2023 223.989 74.9254 223.526 77.1664 222.142C77.855 221.723 79.1258 219.864 77.3855 219.914C76.6093 219.914 75.4637 220.778 74.7751 221.11C72.7351 221.988 70.8546 223.198 69.21 224.69L69.4979 224.171C71.1036 222.72 72.8221 221.399 74.6374 220.221C77.6422 218.286 80.4467 217.266 80.8974 215.839C81.3481 214.411 77.7674 215.97 74.3369 218.499C72.786 219.661 71.4386 221.072 70.3493 222.675C71.3259 220.972 72.34 219.263 73.3228 217.623C74.4813 216.004 75.9953 214.672 77.7486 213.729C80.5656 212.364 82.8505 211.225 83.7394 209.316C84.6284 207.406 83.5329 207.769 80.7033 210.155C78.7627 211.782 76.1148 213.873 74.4934 215.695C75.2822 214.411 76.0334 213.191 76.7157 212.114C78.1983 210.474 79.8808 209.027 81.7237 207.807C84.3842 206.204 85.655 205.053 84.5908 204.621C83.8521 204.32 80.7847 206.649 78.5499 209.19C79.1759 208.27 79.6016 207.575 79.8708 207.168C79.996 206.981 80.1274 206.774 80.2589 206.542C82.2762 204.936 84.1913 203.205 85.993 201.359C89.2107 198.079 90.9071 194.642 89.0917 195.807Z" fill="#4A9396"/>
<path opacity="0.6" d="M89.0917 195.807C87.4141 196.89 83.176 203.406 80.4717 206.267C80.7847 205.735 81.0977 205.134 81.4107 204.533C81.8301 203.995 82.3309 203.463 82.6627 202.956C83.1948 202.167 83.6956 201.359 84.1526 200.527C84.8796 199.231 85.4532 197.855 85.8616 196.426C86.3767 194.76 86.3919 192.98 85.9054 191.306C85.7677 190.88 84.9351 188.307 84.1776 189.29C84.0662 189.458 83.9994 189.652 83.9836 189.853C83.6706 191.731 83.8521 193.609 83.752 195.537C83.608 198.398 81.9115 202.78 81.1478 204.633C80.985 204.909 80.7785 205.259 80.5218 205.66C81.7738 202.405 81.4483 198.041 80.3027 196.971C78.8879 195.644 79.5578 199.475 80.0022 202.755C80.2442 204.21 80.126 205.701 79.6579 207.1C79.1196 207.989 78.5123 208.978 77.8926 209.992C77.7862 210.123 77.686 210.261 77.5859 210.392C77.9334 209.719 78.2002 209.006 78.3809 208.27C78.8066 206.323 77.7549 201.873 76.1335 202.01C74.5122 202.148 76.4027 204.852 77.035 207.575C77.3482 209.064 77.1906 210.613 76.5843 212.007L76.4716 212.258C76.1774 212.709 75.8957 213.153 75.6202 213.566C74.9942 214.537 74.3682 215.444 73.7923 216.352C74.5692 215.034 75.1511 213.611 75.5201 212.126C76.1461 209.272 75.2509 206.154 73.9864 205.403C72.7218 204.652 74.0177 209.967 74.1554 212.784C74.1984 214.421 73.8212 216.041 73.0599 217.491C72.2461 218.743 71.4573 219.995 70.6373 221.36C71.2931 219.49 71.7976 217.57 72.1459 215.619C72.7719 212.427 71.4824 209.898 70.1803 209.616C68.8782 209.334 69.7045 211.494 70.4745 215.801C70.8749 218.073 70.6764 220.409 69.8986 222.581C69.5543 223.144 69.21 223.726 68.8469 224.333C68.4838 224.941 68.0456 225.792 67.67 226.587C67.67 225.792 67.7326 224.628 67.7514 223.332C67.7595 221.898 67.8746 220.467 68.0957 219.05C68.3774 217.41 68.5276 215.294 67.2005 214.042C67.1148 213.938 67.0072 213.855 66.8854 213.798C66.7637 213.74 66.6308 213.711 66.4963 213.711C66.3617 213.711 66.2288 213.74 66.1071 213.798C65.9854 213.855 65.8778 213.938 65.792 214.042C65.5469 214.339 65.4062 214.709 65.3914 215.094C65.141 217.197 65.767 219.476 66.1113 221.516C66.4338 223.409 66.8792 225.278 67.4447 227.113C67.1129 227.852 66.8187 228.603 66.5119 229.341L66.0362 228.603C65.479 227.733 64.8843 222.643 64.2458 220.258C63.6073 217.873 61.3537 216.64 61.4914 219.457C61.6291 222.274 65.3726 227.914 65.3726 227.914L66.4305 229.554C65.3037 232.471 64.5525 235.044 64.5525 235.044L65.4352 235.639C65.4352 235.639 65.2161 233.761 66.7498 229.798C67.2569 229.51 67.7944 229.279 68.3524 229.11C71.4824 228.058 75.8644 229.166 78.0428 226.055C78.5624 225.297 78.5499 224.146 77.542 223.908C76.7392 223.83 75.9361 224.053 75.2884 224.534C73.3165 225.823 71.6952 227.282 69.3978 228.027C69.2914 228.058 67.8015 228.684 67.0252 229.11C67.2506 228.565 67.5073 227.989 67.8015 227.376C68.5028 226.69 69.2585 226.062 70.0613 225.498C72.2023 223.989 74.9254 223.526 77.1664 222.142C77.855 221.723 79.1258 219.864 77.3855 219.914C76.6093 219.914 75.4637 220.778 74.7751 221.11C72.7351 221.988 70.8546 223.198 69.21 224.69L69.4979 224.171C71.1036 222.72 72.8221 221.399 74.6374 220.221C77.6422 218.286 80.4467 217.266 80.8974 215.839C81.3481 214.411 77.7674 215.97 74.3369 218.499C72.786 219.661 71.4386 221.072 70.3493 222.675C71.3259 220.972 72.34 219.263 73.3228 217.623C74.4813 216.004 75.9953 214.672 77.7486 213.729C80.5656 212.364 82.8505 211.225 83.7394 209.316C84.6284 207.406 83.5329 207.769 80.7033 210.155C78.7627 211.782 76.1148 213.873 74.4934 215.695C75.2822 214.411 76.0334 213.191 76.7157 212.114C78.1983 210.474 79.8808 209.027 81.7237 207.807C84.3842 206.204 85.655 205.053 84.5908 204.621C83.8521 204.32 80.7847 206.649 78.5499 209.19C79.1759 208.27 79.6016 207.575 79.8708 207.168C79.996 206.981 80.1274 206.774 80.2589 206.542C82.2762 204.936 84.1913 203.205 85.993 201.359C89.2107 198.079 90.9071 194.642 89.0917 195.807Z" fill="white"/>
<path d="M283.86 77.2421C283.86 77.2421 281.462 70.3561 274.564 70.0494C267.665 69.7427 268.867 76.347 264.072 78.1436C259.277 79.9402 257.474 74.8446 253.273 76.0465C249.073 77.2484 251.777 80.5412 248.178 81.7431C244.578 82.945 244.879 79.646 239.483 82.3691C234.086 85.0922 232.885 85.9686 231.683 86.2691C230.481 86.5695 219.688 88.3662 219.688 88.3662H294.358C294.358 88.3662 296.461 81.7681 292.261 79.0701C288.06 76.372 288.361 79.646 283.86 77.2421Z" fill="#4A9396"/>
<path opacity="0.7" d="M283.86 77.2421C283.86 77.2421 281.462 70.3561 274.564 70.0494C267.665 69.7427 268.867 76.347 264.072 78.1436C259.277 79.9402 257.474 74.8446 253.273 76.0465C249.073 77.2484 251.777 80.5412 248.178 81.7431C244.578 82.945 244.879 79.646 239.483 82.3691C234.086 85.0922 232.885 85.9686 231.683 86.2691C230.481 86.5695 219.688 88.3662 219.688 88.3662H294.358C294.358 88.3662 296.461 81.7681 292.261 79.0701C288.06 76.372 288.361 79.646 283.86 77.2421Z" fill="white"/>
<path d="M146.653 66.0993C146.653 66.0993 145.194 61.9176 141.019 61.7173C136.843 61.517 137.569 65.5297 134.658 66.6252C131.748 67.7207 130.658 64.622 128.11 65.3732C125.563 66.1244 127.203 68.1025 125.024 68.8287C122.846 69.5548 123.021 67.5767 119.747 69.1918C116.473 70.8068 115.753 71.3765 115.021 71.558C114.288 71.7396 107.753 72.81 107.753 72.81H153.019C153.019 72.81 154.271 68.8099 151.767 67.176C149.263 65.5422 149.376 67.5516 146.653 66.0993Z" fill="#4A9396"/>
<path opacity="0.8" d="M146.653 66.0993C146.653 66.0993 145.194 61.9176 141.019 61.7173C136.843 61.517 137.569 65.5297 134.658 66.6252C131.748 67.7207 130.658 64.622 128.11 65.3732C125.563 66.1244 127.203 68.1025 125.024 68.8287C122.846 69.5548 123.021 67.5767 119.747 69.1918C116.473 70.8068 115.753 71.3765 115.021 71.558C114.288 71.7396 107.753 72.81 107.753 72.81H153.019C153.019 72.81 154.271 68.8099 151.767 67.176C149.263 65.5422 149.376 67.5516 146.653 66.0993Z" fill="white"/>
<path d="M70.5061 139.598C70.5061 139.598 68.5468 133.964 62.919 133.726C57.2913 133.488 58.2616 138.866 54.3491 140.337C50.4366 141.808 48.9592 137.639 45.535 138.621C42.1108 139.604 44.283 142.29 41.3721 143.273C38.4612 144.255 38.6803 141.557 34.2733 143.761C29.8662 145.964 28.8897 146.697 27.9069 146.947C26.924 147.198 18.1162 148.656 18.1162 148.656H79.0761C79.0761 148.656 80.7851 143.273 77.3608 141.069C73.9366 138.866 74.1745 141.57 70.5061 139.598Z" fill="#4A9396"/>
<g opacity="0.7">
<path d="M70.5061 139.598C70.5061 139.598 68.5468 133.964 62.919 133.726C57.2913 133.488 58.2616 138.866 54.3491 140.337C50.4366 141.808 48.9592 137.639 45.535 138.621C42.1108 139.604 44.283 142.29 41.3721 143.273C38.4612 144.255 38.6803 141.557 34.2733 143.761C29.8662 145.964 28.8897 146.697 27.9069 146.947C26.924 147.198 18.1162 148.656 18.1162 148.656H79.0761C79.0761 148.656 80.7851 143.273 77.3608 141.069C73.9366 138.866 74.1745 141.57 70.5061 139.598Z" fill="white"/>
</g>
<path d="M142.916 251.339C179.584 251.339 209.31 249.231 209.31 246.631C209.31 244.032 179.584 241.924 142.916 241.924C106.248 241.924 76.5225 244.032 76.5225 246.631C76.5225 249.231 106.248 251.339 142.916 251.339Z" fill="#4A9396"/>
<path d="M205.128 243.501C225.916 243.501 242.769 242.448 242.769 241.148C242.769 239.848 225.916 238.794 205.128 238.794C184.339 238.794 167.486 239.848 167.486 241.148C167.486 242.448 184.339 243.501 205.128 243.501Z" fill="#4A9396"/>
<g opacity="0.6">
<path d="M142.916 251.339C179.584 251.339 209.31 249.231 209.31 246.631C209.31 244.032 179.584 241.924 142.916 241.924C106.248 241.924 76.5225 244.032 76.5225 246.631C76.5225 249.231 106.248 251.339 142.916 251.339Z" fill="white"/>
<path d="M205.128 243.501C225.916 243.501 242.769 242.448 242.769 241.148C242.769 239.848 225.916 238.794 205.128 238.794C184.339 238.794 167.486 239.848 167.486 241.148C167.486 242.448 184.339 243.501 205.128 243.501Z" fill="white"/>
</g>
<path d="M142.435 176.438L154.109 168.075" stroke="#263238" stroke-width="0.835087" stroke-linecap="round" stroke-linejoin="round"/>
<path d="M179.337 234.537L178.68 241.955C178.68 241.955 175.356 243.414 175.362 243.902C175.369 244.39 175.988 245.06 178.699 245.06C181.409 245.06 182.292 244.034 182.292 243.264C182.292 242.494 188.064 236.077 188.064 236.077C188.205 235.692 188.245 235.277 188.178 234.872C188.111 234.467 187.94 234.086 187.682 233.767C186.781 232.741 183.701 232.615 183.701 232.615L179.337 234.537Z" fill="#4A9396"/>
<path d="M175.368 244.397C175.368 244.397 179.882 244.102 181.09 243.414C182.298 242.725 186.599 236.177 186.943 235.658C187.168 235.234 187.286 234.761 187.287 234.281" stroke="#263238" stroke-width="0.417543" stroke-linecap="round" stroke-linejoin="round"/>
<path d="M185.121 232.722C185.121 232.722 188.783 233.417 188.432 234.988C188.082 236.559 182.335 243.527 181.465 244.378C180.595 245.229 175.205 245.248 175.368 244.378C175.531 243.508 178.679 241.937 178.679 241.937L179.725 235.677" stroke="#263238" stroke-width="0.835087" stroke-linecap="round" stroke-linejoin="round"/>
<path d="M107.998 240.566L97.2185 245.83C97.2185 245.83 95.81 246.857 98.6333 246.857C101.457 246.857 116.337 246.982 116.337 246.982C116.337 246.982 118.008 247.37 118.39 246.6C119.016 245.348 119.291 244.547 118.903 244.159C118.515 243.771 107.998 240.566 107.998 240.566Z" fill="#4A9396"/>
<path d="M98.2324 245.649H117.357" stroke="#263238" stroke-width="0.417543" stroke-linecap="round" stroke-linejoin="round"/>
<path d="M107.272 241.235C107.272 241.235 96.2916 245.943 96.4669 246.462C96.6422 246.982 107.616 246.988 111.798 246.988C115.979 246.988 118.947 247.164 118.947 246.118" stroke="#263238" stroke-width="0.835087" stroke-linecap="round" stroke-linejoin="round"/>
<path d="M185.122 232.722L148.882 206.236L147.63 179.574C146.295 180.75 144.788 181.715 143.161 182.435C140.92 183.293 127.937 189.853 127.937 189.853C127.937 189.853 133.689 210.242 134.735 211.989C135.78 213.735 179.694 235.683 179.694 235.683L185.122 232.722Z" fill="#263238"/>
<path d="M118.94 245.073C118.94 245.073 117.544 244.722 115.979 244.372C114.414 244.021 107.266 241.242 107.266 241.242C107.124 240.673 107.065 240.087 107.09 239.501C107.109 239.124 107.212 238.755 107.393 238.424C107.574 238.092 107.828 237.806 108.136 237.586C108.136 237.586 80.9485 201.34 80.2536 200.295C79.5588 199.25 80.0784 197.503 84.7859 193.847C89.4934 190.191 120.293 171.393 120.293 171.393C119.109 169.99 121.338 169.126 121.338 169.126L124.13 169.997L142.428 176.444L149.746 171.568C149.746 171.568 150.967 176.094 146.434 179.581C141.902 183.067 100.467 201.491 100.467 201.491L99.7786 201.534L118.421 242.262C118.421 242.262 119.673 244.491 118.94 245.073Z" fill="#263238"/>
<path d="M95.8223 196.902L99.2653 201.209L97.8881 195.525" stroke="white" stroke-width="0.835087" stroke-linecap="round" stroke-linejoin="round"/>
<path d="M129.758 190.185C129.758 190.185 136.819 201.209 139.404 203.45" stroke="white" stroke-width="0.835087" stroke-linecap="round" stroke-linejoin="round"/>
<path d="M130.791 189.841C132.738 191.544 134.809 193.099 136.988 194.492" stroke="white" stroke-width="0.835087" stroke-linecap="round" stroke-linejoin="round"/>
<g style="mix-blend-mode:multiply">
<path d="M143.173 131.479L118.722 148.143L124.068 170.178L142.215 176.263L166.429 159.01L163.506 136.844L143.173 131.479Z" fill="#4A9396"/>
</g>
<path d="M118.853 148.143L120.405 155.029" stroke="#263238" stroke-width="0.835087" stroke-linecap="round" stroke-linejoin="round"/>
<path d="M121.695 160.056L124.137 169.99L142.435 176.438L140.169 160.056" stroke="#263238" stroke-width="0.835087" stroke-linecap="round" stroke-linejoin="round"/>
<path d="M139.993 158.666L139.298 154.484" stroke="#263238" stroke-width="0.835087" stroke-linecap="round" stroke-linejoin="round"/>
<path d="M161.603 162.848L166.479 159.186L164.038 138.452" stroke="#263238" stroke-width="0.835087" stroke-linecap="round" stroke-linejoin="round"/>
<path d="M141.733 153.264L154.98 143.329" stroke="#263238" stroke-width="0.835087" stroke-linecap="round" stroke-linejoin="round"/>
<path d="M154.285 134.44L143.305 131.479L119.254 147.861" stroke="#263238" stroke-width="0.835087" stroke-linecap="round" stroke-linejoin="round"/>
<path d="M119.429 148.556L123.091 149.601" stroke="#263238" stroke-width="0.835087" stroke-linecap="round" stroke-linejoin="round"/>
<path d="M129.363 150.997L139.298 153.783" stroke="#263238" stroke-width="0.835087" stroke-linecap="round" stroke-linejoin="round"/>
<path d="M152.538 134.095L137.552 145.595" stroke="#263238" stroke-width="0.417543" stroke-linecap="round" stroke-linejoin="round"/>
<path d="M136.331 146.641L130.929 150.822" stroke="#263238" stroke-width="0.417543" stroke-linecap="round" stroke-linejoin="round"/>
<path d="M152.914 124.48C152.914 124.48 156.72 155.874 156.72 157.27C156.72 158.666 153.233 159.361 153.233 161.101C153.135 162.528 152.843 163.935 152.363 165.283C152.363 165.283 151.668 165.984 151.668 166.535C151.668 167.086 152.889 166.885 153.934 166.366C154.98 165.846 155.324 163.924 155.324 163.924C155.085 165.076 154.911 166.24 154.804 167.411L154.109 168.106C154.109 168.106 152.019 170.022 153.408 170.197C154.798 170.372 161.252 167.931 161.603 166.366C161.953 164.801 160.726 157.301 160.726 157.301C160.726 157.301 165.784 121.926 165.784 118.615C165.809 117.689 165.556 116.777 165.058 115.997C164.561 115.216 163.841 114.602 162.992 114.233" fill="white"/>
<mask id="mask0_757_8188" style="mask-type:luminance" maskUnits="userSpaceOnUse" x="151" y="114" width="15" height="57">
<path d="M152.914 124.48C152.914 124.48 156.72 155.874 156.72 157.27C156.72 158.666 153.233 159.361 153.233 161.101C153.135 162.528 152.843 163.935 152.363 165.283C152.363 165.283 151.668 165.984 151.668 166.535C151.668 167.086 152.889 166.885 153.934 166.366C154.98 165.846 155.324 163.924 155.324 163.924C155.085 165.076 154.911 166.24 154.804 167.411L154.109 168.106C154.109 168.106 152.019 170.022 153.408 170.197C154.798 170.372 161.252 167.931 161.603 166.366C161.953 164.801 160.726 157.301 160.726 157.301C160.726 157.301 165.784 121.926 165.784 118.615C165.809 117.689 165.556 116.777 165.058 115.997C164.561 115.216 163.841 114.602 162.992 114.233" fill="white"/>
</mask>
<g mask="url(#mask0_757_8188)">
<g style="mix-blend-mode:multiply" opacity="0.3">
<path d="M165.759 123.022C165.027 120.236 164.232 115.178 164.232 115.178L160.914 114.17L156.532 119.435L159.994 117.306V159.079C159.994 161.208 157.334 169.452 157.334 169.452C157.334 169.452 162.836 168.294 161.947 163.286C161.058 158.278 159.994 159.079 161.59 148.969C163.187 138.859 166.517 125.826 165.759 123.022Z" fill="#4A9396"/>
</g>
</g>
<path d="M152.914 124.48C152.914 124.48 156.72 155.874 156.72 157.27C156.72 158.666 153.233 159.361 153.233 161.101C153.135 162.528 152.843 163.935 152.363 165.283C152.363 165.283 151.668 165.984 151.668 166.535C151.668 167.086 152.889 166.885 153.934 166.366C154.98 165.846 155.324 163.924 155.324 163.924C155.085 165.076 154.911 166.24 154.804 167.411L154.109 168.106C154.109 168.106 152.019 170.022 153.408 170.197C154.798 170.372 161.252 167.931 161.603 166.366C161.953 164.801 160.726 157.301 160.726 157.301C160.726 157.301 165.784 121.926 165.784 118.615C165.809 117.689 165.556 116.777 165.058 115.997C164.561 115.216 163.841 114.602 162.992 114.233" stroke="#263238" stroke-width="0.835087" stroke-linecap="round" stroke-linejoin="round"/>
<path d="M157.126 166.072C157.316 166.815 157.254 167.601 156.951 168.306C156.608 168.866 156.205 169.387 155.749 169.859" stroke="#263238" stroke-width="0.417543" stroke-linecap="round" stroke-linejoin="round"/>
<path d="M159.211 166.072C159.108 166.776 158.934 167.468 158.691 168.137" stroke="#263238" stroke-width="0.417543" stroke-linecap="round" stroke-linejoin="round"/>
<path d="M160.764 165.552C160.658 166.256 160.484 166.948 160.244 167.618" stroke="#263238" stroke-width="0.417543" stroke-linecap="round" stroke-linejoin="round"/>
<path d="M104.468 100.31C104.267 98.5074 100.662 95.102 95.6536 94.1004C90.6456 93.0988 85.2307 93.0988 83.2275 94.7264C82.4763 95.3211 81.9755 96.7045 81.65 98.1944C82.0068 97.4307 82.7267 95.8845 83.4716 95.2647C87.1588 92.1911 88.1854 94.0127 88.7989 96.6983C89.4124 99.3838 88.5923 106.714 88.5923 106.714C88.5923 106.714 80.1914 109.174 81.4184 104.868C81.2382 104.254 81.1125 103.625 81.0428 102.99C81.0428 103.309 81.0428 103.503 81.0428 103.503L80.6421 106.107L77.2367 106.733L65.4053 106.357C65.4053 106.357 71.4274 110.113 74.8328 110.113C77.0335 110.023 79.1422 109.206 80.8299 107.791L102.74 109.462C102.74 109.462 104.668 102.113 104.468 100.31Z" fill="#4A9396"/>
<path d="M78.9265 106.558L65.3799 106.351C65.3799 106.351 69.1359 109.894 74.1439 109.894C79.1519 109.894 80.817 107.81 80.817 107.81L102.727 109.481C102.727 109.481 105.588 104.029 104.129 99.2398C102.671 94.4509 89.5247 92.8421 85.8689 93.7247C81.3491 94.8202 81.0487 98.6388 81.0487 100.723C81.0157 102.261 80.8755 103.794 80.6292 105.312" stroke="#263238" stroke-width="0.835087" stroke-linecap="round" stroke-linejoin="round"/>
<mask id="mask1_757_8188" style="mask-type:luminance" maskUnits="userSpaceOnUse" x="78" y="108" width="26" height="28">
<path d="M79.972 108.436C79.972 108.436 77.6745 113.857 78.72 114.696C79.7654 115.535 80.3851 115.948 80.3851 115.948C80.3851 115.948 81.0111 123.241 82.0503 124.493C83.0894 125.745 89.7626 123.66 89.7626 123.66C89.7626 123.66 103.29 137.2 103.729 134.696C104.167 132.192 102.477 122.802 102.477 121.776C102.477 120.749 99.5595 118.02 99.5595 118.02" fill="white"/>
</mask>
<g mask="url(#mask1_757_8188)">
<g style="mix-blend-mode:multiply" opacity="0.3">
<path d="M91.5901 108.743L82.7447 108.899C82.7447 108.899 80.2407 112.624 80.8667 113.713C81.3511 114.466 81.9916 115.106 82.7447 115.591C82.7447 115.591 82.1187 120.561 82.9012 122.27C83.6837 123.979 89.8873 123.197 89.8873 123.197C88.5145 124.009 86.9712 124.489 85.3801 124.599C82.4317 124.906 81.5052 124.286 81.0357 122.577C80.5662 120.868 80.4097 115.96 80.4097 115.96L78.25 113.713L79.8025 109.519L81.5115 107.816L91.5901 108.743Z" fill="#4A9396"/>
</g>
</g>
<path d="M79.972 108.436C79.972 108.436 77.6745 113.857 78.72 114.696C79.7654 115.535 80.3851 115.948 80.3851 115.948C80.3851 115.948 81.0111 123.241 82.0503 124.493C83.0894 125.745 89.7626 123.66 89.7626 123.66C89.7626 123.66 103.29 137.2 103.729 134.696C104.167 132.192 102.477 122.802 102.477 121.776C102.477 120.749 99.5595 118.02 99.5595 118.02" stroke="#263238" stroke-width="0.835087" stroke-linecap="round" stroke-linejoin="round"/>
<path d="M92.0596 108.642C92.0596 108.642 92.4727 110.52 93.7247 110.727C94.9767 110.933 96.0159 108.849 96.0159 108.849L92.0596 108.642Z" fill="#263238"/>
<path d="M102.665 109.481C102.665 109.481 103.917 113.237 102.452 115.316C100.987 117.394 100.374 117.4 100.374 117.4C99.1217 119.485 95.7852 114.896 95.7852 114.896C95.7852 114.896 98.2892 114.783 98.9152 113.118C99.5412 111.453 98.6648 109.018 98.6648 109.018L102.665 109.481Z" fill="#263238"/>
<path d="M98.9084 109.481C98.9084 109.481 99.5344 112.398 98.9084 113.863C98.2824 115.328 95.7784 114.902 95.7784 114.902L94.5264 118.032" stroke="#263238" stroke-width="0.835087" stroke-linecap="round" stroke-linejoin="round"/>
<path d="M81.8691 117.15C81.8691 117.15 84.2855 117.669 85.8317 114.909" stroke="#263238" stroke-width="0.626315" stroke-linecap="round" stroke-linejoin="round"/>
<path d="M124.773 130.709L119.65 132.596L122.543 140.45L127.665 138.563L124.773 130.709Z" fill="#263238"/>
<path d="M123.876 132.466L121.427 133.368L122.768 137.01L125.218 136.108L123.876 132.466Z" fill="white"/>
<path d="M122.071 129.511L120.99 129.909L121.871 132.3L122.952 131.902L122.071 129.511Z" fill="white" stroke="#263238" stroke-width="0.417543" stroke-linecap="round" stroke-linejoin="round"/>
<path d="M116.706 163.83L121.345 169.12" stroke="#263238" stroke-width="0.835087" stroke-linecap="round" stroke-linejoin="round"/>
<mask id="mask2_757_8188" style="mask-type:luminance" maskUnits="userSpaceOnUse" x="143" y="61" width="129" height="172">
<path d="M144.112 109.456L145.283 109.907L161.985 112.962C161.985 112.962 164.708 114.395 165.665 115.923C166.623 117.45 165.759 123.022 165.759 123.022L164.013 136.13L166.811 159.63L161.928 163.292L162.116 165.615C162.247 165.652 162.085 168.713 154.842 169.997C154.842 169.997 153.339 170.748 152.901 170.416C151.793 169.583 152.682 169.652 152.682 169.652L149.753 171.53C149.908 173.007 149.75 174.501 149.289 175.912C148.526 178.416 148 178.905 148 178.905L149.333 202.198L152.544 206.774L194.486 232.233H271.81V61.661H143.167V109.099L144.112 109.456Z" fill="white"/>
</mask>
<g mask="url(#mask2_757_8188)">
<path d="M164.357 98.5637L159.756 101.218L157.158 96.6795L161.753 94.0315L164.357 98.5637Z" stroke="#263238" stroke-width="0.835087" stroke-linecap="round" stroke-linejoin="round"/>
<path d="M162.805 93.3991L155.562 97.5808L151.249 89.5931L158.492 85.4114L162.805 93.3991Z" stroke="#263238" stroke-width="0.835087" stroke-linecap="round" stroke-linejoin="round"/>
<path d="M232.538 194.89C254.286 173.142 254.286 137.882 232.538 116.134C210.791 94.386 175.53 94.386 153.782 116.134C132.034 137.882 132.034 173.142 153.782 194.89C175.53 216.638 210.791 216.638 232.538 194.89Z" fill="white"/>
<path d="M193.647 90.2692C180.933 90.2655 168.502 94.0325 157.928 101.094C147.354 108.155 139.112 118.194 134.243 129.94C129.375 141.686 128.099 154.612 130.578 167.083C133.056 179.554 139.177 191.01 148.166 200.002C157.156 208.994 168.61 215.119 181.081 217.6C193.551 220.082 206.477 218.81 218.225 213.946C229.972 209.081 240.013 200.841 247.078 190.269C254.142 179.697 257.913 167.268 257.913 154.553C257.913 137.507 251.142 121.159 239.091 109.104C227.039 97.0491 210.693 90.2741 193.647 90.2692ZM193.647 210.242C182.628 210.242 171.857 206.975 162.694 200.853C153.532 194.731 146.391 186.029 142.174 175.849C137.958 165.668 136.854 154.466 139.004 143.659C141.154 132.851 146.46 122.924 154.252 115.132C162.043 107.341 171.971 102.034 182.778 99.8846C193.586 97.7349 204.788 98.8382 214.968 103.055C225.149 107.272 233.85 114.413 239.972 123.575C246.094 132.737 249.361 143.509 249.361 154.528C249.361 161.845 247.92 169.089 245.121 175.849C242.321 182.608 238.217 188.75 233.043 193.924C227.87 199.097 221.728 203.201 214.968 206.001C208.209 208.801 200.964 210.242 193.647 210.242Z" fill="#263238" stroke="#263238" stroke-width="0.835087" stroke-linecap="round" stroke-linejoin="round"/>
<path d="M233.092 106.063C226.686 100.843 219.307 96.9471 211.383 94.6011" stroke="white" stroke-width="1.67017" stroke-linecap="round" stroke-linejoin="round"/>
<path d="M205.454 93.1613C203.178 92.7293 200.879 92.4221 198.568 92.2411" stroke="white" stroke-width="1.67017" stroke-linecap="round" stroke-linejoin="round"/>
<path d="M240.535 188.921C248.045 178.665 251.989 166.232 251.763 153.522C251.537 140.813 247.154 128.527 239.283 118.546" stroke="white" stroke-width="0.835087" stroke-linecap="round" stroke-linejoin="round"/>
<path d="M232.41 197.866C234.236 196.236 235.954 194.49 237.556 192.639" stroke="white" stroke-width="0.835087" stroke-linecap="round" stroke-linejoin="round"/>
<path d="M170.017 207.675C179.787 212.014 190.562 213.579 201.163 212.199C211.764 210.819 221.78 206.546 230.113 199.85" stroke="white" stroke-width="0.835087" stroke-linecap="round" stroke-linejoin="round"/>
<path d="M161.722 203.137C163.461 204.277 165.26 205.322 167.112 206.267" stroke="white" stroke-width="0.835087" stroke-linecap="round" stroke-linejoin="round"/>
<path d="M155.486 198.404C156.952 199.68 158.482 200.882 160.069 202.004" stroke="white" stroke-width="0.835087" stroke-linecap="round" stroke-linejoin="round"/>
<path d="M177.572 98.6764C167.694 101.521 158.747 106.934 151.642 114.363C144.537 121.792 139.528 130.972 137.127 140.967C134.726 150.962 135.017 161.415 137.972 171.261C140.927 181.107 146.439 189.993 153.947 197.015" stroke="white" stroke-width="0.835087" stroke-linecap="round" stroke-linejoin="round"/>
<path d="M234.751 113.45C227.951 106.659 219.575 101.656 210.371 98.8894C201.167 96.1226 191.422 95.6774 182.004 97.5934" stroke="white" stroke-width="0.835087" stroke-linecap="round" stroke-linejoin="round"/>
<path d="M201.98 175.142H185.253V179.674H201.98V175.142Z" fill="#4A9396"/>
<path d="M198.317 154.553C198.317 153.461 197.934 152.403 197.234 151.564C196.533 150.726 195.561 150.16 194.486 149.965L193.992 119.372H193.297L192.809 149.965C191.744 150.156 190.78 150.711 190.08 151.535C189.379 152.359 188.987 153.4 188.97 154.481C188.953 155.562 189.312 156.616 189.986 157.461C190.66 158.307 191.607 158.892 192.665 159.117L192.489 169.972H194.805L194.63 159.117C195.673 158.891 196.608 158.315 197.278 157.485C197.949 156.655 198.316 155.62 198.317 154.553ZM193.647 157.057C193.152 157.057 192.668 156.91 192.256 156.635C191.844 156.36 191.524 155.969 191.334 155.511C191.144 155.054 191.095 154.55 191.192 154.065C191.288 153.579 191.527 153.133 191.877 152.783C192.227 152.432 192.673 152.194 193.159 152.097C193.645 152.001 194.148 152.05 194.606 152.24C195.063 152.429 195.454 152.75 195.729 153.162C196.005 153.574 196.151 154.058 196.151 154.553C196.151 154.882 196.087 155.208 195.961 155.511C195.835 155.815 195.65 156.091 195.418 156.324C195.185 156.556 194.909 156.741 194.606 156.867C194.302 156.992 193.976 157.057 193.647 157.057Z" fill="#263238"/>
<path d="M193.648 157.126C195.069 157.126 196.221 155.974 196.221 154.553C196.221 153.132 195.069 151.98 193.648 151.98C192.227 151.98 191.075 153.132 191.075 154.553C191.075 155.974 192.227 157.126 193.648 157.126Z" fill="#4A9396"/>
<path d="M193.647 101.988V111.259" stroke="#263238" stroke-width="3.34035" stroke-linecap="round" stroke-linejoin="round"/>
<path d="M193.647 198.167V207.438" stroke="#263238" stroke-width="3.34035" stroke-linecap="round" stroke-linejoin="round"/>
<path d="M167.287 109.055L171.92 117.081" stroke="#263238" stroke-width="3.34035" stroke-linecap="round" stroke-linejoin="round"/>
<path d="M215.376 192.345L220.008 200.376" stroke="#263238" stroke-width="3.34035" stroke-linecap="round" stroke-linejoin="round"/>
<path d="M147.987 128.349L156.013 132.987" stroke="#263238" stroke-width="3.34035" stroke-linecap="round" stroke-linejoin="round"/>
<path d="M231.276 176.438L239.308 181.077" stroke="#263238" stroke-width="3.34035" stroke-linecap="round" stroke-linejoin="round"/>
<path d="M246.37 154.716H237.099" stroke="#263238" stroke-width="3.34035" stroke-linecap="round" stroke-linejoin="round"/>
<path d="M150.191 154.716H140.92" stroke="#263238" stroke-width="3.34035" stroke-linecap="round" stroke-linejoin="round"/>
<path d="M246.37 154.716H237.099" stroke="#263238" stroke-width="3.34035" stroke-linecap="round" stroke-linejoin="round"/>
<path d="M150.191 154.716H140.92" stroke="#263238" stroke-width="3.34035" stroke-linecap="round" stroke-linejoin="round"/>
<path d="M239.308 128.349L231.276 132.987" stroke="#263238" stroke-width="3.34035" stroke-linecap="round" stroke-linejoin="round"/>
<path d="M156.013 176.438L147.987 181.077" stroke="#263238" stroke-width="3.34035" stroke-linecap="round" stroke-linejoin="round"/>
<path d="M220.008 109.055L215.376 117.081" stroke="#263238" stroke-width="3.34035" stroke-linecap="round" stroke-linejoin="round"/>
<path d="M171.92 192.345L167.287 200.376" stroke="#263238" stroke-width="3.34035" stroke-linecap="round" stroke-linejoin="round"/>
<path d="M196.302 88.2472H190.993V92.9422H196.302V88.2472Z" stroke="#263238" stroke-width="0.835087" stroke-linecap="round" stroke-linejoin="round"/>
<path d="M197.829 75.7021H189.466V87.978H197.829V75.7021Z" stroke="#263238" stroke-width="0.835087" stroke-linecap="round" stroke-linejoin="round"/>
<path d="M199.57 67.0634H187.463V75.4267H199.57V67.0634Z" fill="#4A9396"/>
<path d="M199.702 67.0634H187.595V75.4267H199.702V67.0634Z" stroke="#263238" stroke-width="0.835087" stroke-linecap="round" stroke-linejoin="round"/>
<path d="M188.94 72.2654V67.2511" stroke="#263238" stroke-width="0.835087" stroke-linecap="round" stroke-linejoin="round"/>
<path d="M188.94 75.5832V73.4235" stroke="#263238" stroke-width="0.835087" stroke-linecap="round" stroke-linejoin="round"/>
<path d="M190.48 75.5832V67.2511" stroke="#263238" stroke-width="0.835087" stroke-linecap="round" stroke-linejoin="round"/>
<path d="M192.021 69.3357V67.2511" stroke="#263238" stroke-width="0.835087" stroke-linecap="round" stroke-linejoin="round"/>
<path d="M192.021 75.5832V70.3373" stroke="#263238" stroke-width="0.835087" stroke-linecap="round" stroke-linejoin="round"/>
<path d="M194.568 75.5832V67.2511" stroke="#263238" stroke-width="0.835087" stroke-linecap="round" stroke-linejoin="round"/>
</g>
<g style="mix-blend-mode:multiply" opacity="0.3">
<path d="M105.25 133.426L109.751 133.739L109.601 132.03C109.601 132.03 105.563 131.717 105.25 133.426Z" fill="#4A9396"/>
</g>
<mask id="mask3_757_8188" style="mask-type:luminance" maskUnits="userSpaceOnUse" x="87" y="132" width="16" height="40">
<path d="M95.3842 132.524C95.3842 132.524 88.0663 138.452 88.0663 140.036C88.0663 141.62 87.5405 171.054 87.891 171.749C88.2416 172.444 102.039 162.848 102.039 162.848L100.643 150.127" fill="white"/>
</mask>
<g mask="url(#mask3_757_8188)">
<g style="mix-blend-mode:multiply" opacity="0.3">
<path d="M92.8485 168.939L102.038 162.848L90.3007 167.324C90.3007 167.324 89.2365 143.379 90.0378 141.52C90.839 139.661 95.8909 136.199 95.8909 136.199C95.8909 136.199 95.5904 134.271 97.218 133.538C98.3342 133.121 99.5635 133.121 100.68 133.538L101.838 133.977C100.504 133.225 98.351 131.704 95.0395 128.612H94.9644L95.7657 129.382L95.4151 132.512L91.897 135.385C91.102 136.186 88.0972 140.005 88.0972 140.005L87.9219 171.718L92.6983 168.644L92.8485 168.939Z" fill="#4A9396"/>
</g>
</g>
<path d="M95.3842 132.524C95.3842 132.524 88.0663 138.452 88.0663 140.036C88.0663 141.62 87.5405 171.054 87.891 171.749C88.2416 172.444 102.039 162.848 102.039 162.848L100.643 150.127" stroke="#263238" stroke-width="0.835087" stroke-linecap="round" stroke-linejoin="round"/>
<path d="M96.7803 146.991L111.591 158.841" stroke="#263238" stroke-width="0.835087" stroke-linecap="round" stroke-linejoin="round"/>
<mask id="mask4_757_8188" style="mask-type:luminance" maskUnits="userSpaceOnUse" x="106" y="106" width="56" height="23">
<path d="M106.809 120.192C106.809 120.192 121.175 106.539 122.916 106.539C124.656 106.539 153.408 112.286 155.499 112.636C157.59 112.987 161.077 113.682 161.077 113.682C161.077 113.682 154.979 121.35 152.888 123.961C150.798 126.571 149.758 128.142 149.758 128.142L126.233 117.344" fill="white"/>
</mask>
<g mask="url(#mask4_757_8188)">
<g style="mix-blend-mode:multiply" opacity="0.3">
<path d="M160.914 114.17L151.994 111.428L122.916 106.539L115.548 114.621C115.548 114.621 121.933 110.633 123.792 110.633C125.651 110.633 153.696 118.608 156.344 119.353L160.914 114.17Z" fill="#4A9396"/>
</g>
</g>
<path d="M106.809 120.192C106.809 120.192 121.175 106.539 122.916 106.539C124.656 106.539 153.408 112.286 155.499 112.636C157.59 112.987 161.077 113.682 161.077 113.682C161.077 113.682 154.979 121.35 152.888 123.961C150.798 126.571 149.758 128.142 149.758 128.142L126.233 117.344" stroke="#263238" stroke-width="0.835087" stroke-linecap="round" stroke-linejoin="round"/>
<path d="M130.233 119.979L136.162 135.66" stroke="#263238" stroke-width="0.835087" stroke-linecap="round" stroke-linejoin="round"/>
<path d="M112.111 143.504L110.715 144.9L103.923 136.186" stroke="#263238" stroke-width="0.835087" stroke-linecap="round" stroke-linejoin="round"/>
<path d="M123.554 120.599L130.446 119.391L124.587 123.522" stroke="#263238" stroke-width="0.417543" stroke-linecap="round" stroke-linejoin="round"/>
<path d="M100.611 150.127L91.8594 148.844" stroke="#263238" stroke-width="0.417543" stroke-linecap="round" stroke-linejoin="round"/>
<path d="M95.7344 129.388C95.1054 130.945 95.0434 132.673 95.5592 134.271C96.4293 136.881 99.3903 141.413 99.3903 141.413L103.221 136.011" stroke="#263238" stroke-width="0.835087" stroke-linecap="round" stroke-linejoin="round"/>
<path d="M104.442 133.92C104.442 133.92 106.364 132.18 108.105 132.18H111.065C111.065 132.18 110.546 125.382 108.105 121.719C105.663 118.057 102.352 119.979 102.352 119.979" stroke="#263238" stroke-width="0.835087" stroke-linecap="round" stroke-linejoin="round"/>
<path d="M101.306 163.893L122.221 154.134L123.961 148.036L131.104 146.484C131.104 146.484 132.5 145.088 132.325 146.484C132.149 147.88 130.234 148.4 129.539 149.795C128.844 151.191 128.838 153.977 127.968 155.198C127.097 156.419 123.961 157.815 123.961 157.815C123.961 157.815 100.436 177.502 98.6959 178.548C96.9556 179.593 93.4688 169.658 93.4688 169.658" fill="white"/>
<mask id="mask5_757_8188" style="mask-type:luminance" maskUnits="userSpaceOnUse" x="93" y="145" width="40" height="34">
<path d="M101.306 163.893L122.221 154.134L123.961 148.036L131.104 146.484C131.104 146.484 132.5 145.088 132.325 146.484C132.149 147.88 130.234 148.4 129.539 149.795C128.844 151.191 128.838 153.977 127.968 155.198C127.097 156.419 123.961 157.815 123.961 157.815C123.961 157.815 100.436 177.502 98.6959 178.548C96.9556 179.593 93.4688 169.658 93.4688 169.658" fill="white"/>
</mask>
<g mask="url(#mask5_757_8188)">
<g style="mix-blend-mode:multiply" opacity="0.3">
<path d="M92.8486 168.939C93.6562 170.234 96.9552 175.599 97.1868 177.703C97.456 180.1 99.5844 177.703 99.5844 177.703L118.74 161.746C118.74 161.746 99.8473 173.709 98.2823 173.177C96.7173 172.645 96.4043 168.657 96.4043 168.657L102.038 162.848L92.8486 168.939Z" fill="#4A9396"/>
</g>
</g>
<path d="M101.306 163.893L122.221 154.134L123.961 148.036L131.104 146.484C131.104 146.484 132.5 145.088 132.325 146.484C132.149 147.88 130.234 148.4 129.539 149.795C128.844 151.191 128.838 153.977 127.968 155.198C127.097 156.419 123.961 157.815 123.961 157.815C123.961 157.815 100.436 177.502 98.6959 178.548C96.9556 179.593 93.4688 169.658 93.4688 169.658" stroke="#263238" stroke-width="0.835087" stroke-linecap="round" stroke-linejoin="round"/>
<path d="M131.104 146.484C131.104 146.484 127.692 148.519 128.036 149.207" stroke="#263238" stroke-width="0.417543" stroke-linecap="round" stroke-linejoin="round"/>
<path d="M128.38 147.123L125.795 148.5" stroke="#263238" stroke-width="0.417543" stroke-linecap="round" stroke-linejoin="round"/>
</svg>
