<svg width="393" height="275" viewBox="0 0 393 275" fill="none" xmlns="http://www.w3.org/2000/svg">
<g filter="url(#filter0_f_83_2077)">
<ellipse cx="197" cy="146" rx="215" ry="104" fill="#F2F2F2" fill-opacity="0.8"/>
</g>
<ellipse cx="197" cy="146" rx="201" ry="104" fill="white"/>
<path d="M397.5 146C397.5 174.436 375.213 200.305 338.899 219.095C302.609 237.872 252.441 249.5 197 249.5C141.559 249.5 91.3906 237.872 55.1013 219.095C18.7867 200.305 -3.5 174.436 -3.5 146C-3.5 117.564 18.7867 91.6946 55.1013 72.905C91.3906 54.1284 141.559 42.5 197 42.5C252.441 42.5 302.609 54.1284 338.899 72.905C375.213 91.6946 397.5 117.564 397.5 146Z" stroke="#D8D8D8" stroke-opacity="0.24"/>
<g filter="url(#filter1_f_83_2077)">
<ellipse cx="197" cy="166" rx="143" ry="58" fill="#F2F2F2" fill-opacity="0.8"/>
</g>
<ellipse cx="197" cy="166" rx="134" ry="58" fill="white"/>
<path d="M330.5 166C330.5 173.841 326.831 181.351 320.112 188.227C313.391 195.105 303.641 201.322 291.554 206.553C267.381 217.016 233.951 223.5 197 223.5C160.049 223.5 126.619 217.016 102.446 206.553C90.3591 201.322 80.6091 195.105 73.888 188.227C67.1692 181.351 63.5 173.841 63.5 166C63.5 158.159 67.1692 150.649 73.888 143.773C80.6091 136.895 90.3591 130.678 102.446 125.447C126.619 114.984 160.049 108.5 197 108.5C233.951 108.5 267.381 114.984 291.554 125.447C303.641 130.678 313.391 136.895 320.112 143.773C326.831 150.649 330.5 158.159 330.5 166Z" stroke="#D8D8D8" stroke-opacity="0.54"/>
<g filter="url(#filter2_f_83_2077)">
<ellipse cx="197" cy="180" rx="60" ry="26" fill="#F2F2F2" fill-opacity="0.8"/>
</g>
<ellipse cx="197" cy="180" rx="48" ry="21" fill="white"/>
<path d="M244.5 180C244.5 182.734 243.236 185.378 240.868 187.827C238.499 190.278 235.046 192.508 230.741 194.391C222.131 198.158 210.203 200.5 197 200.5C183.797 200.5 171.869 198.158 163.259 194.391C158.954 192.508 155.501 190.278 153.132 187.827C150.764 185.378 149.5 182.734 149.5 180C149.5 177.266 150.764 174.622 153.132 172.173C155.501 169.722 158.954 167.492 163.259 165.609C171.869 161.842 183.797 159.5 197 159.5C210.203 159.5 222.131 161.842 230.741 165.609C235.046 167.492 238.499 169.722 240.868 172.173C243.236 174.622 244.5 177.266 244.5 180Z" stroke="#D8D8D8" stroke-opacity="0.54"/>
<ellipse cx="197" cy="182" rx="18" ry="8" fill="white"/>
<path d="M214.5 182C214.5 182.942 214.073 183.877 213.223 184.769C212.372 185.664 211.115 186.493 209.525 187.2C206.345 188.613 201.917 189.5 197 189.5C192.083 189.5 187.655 188.613 184.475 187.2C182.885 186.493 181.628 185.664 180.777 184.769C179.927 183.877 179.5 182.942 179.5 182C179.5 181.058 179.927 180.123 180.777 179.231C181.628 178.336 182.885 177.507 184.475 176.8C187.655 175.387 192.083 174.5 197 174.5C201.917 174.5 206.345 175.387 209.525 176.8C211.115 177.507 212.372 178.336 213.223 179.231C214.073 180.123 214.5 181.058 214.5 182Z" stroke="#D8D8D8" stroke-opacity="0.36"/>
<rect x="9" width="375" height="170" fill="url(#paint0_linear_83_2077)"/>
<path d="M221 146C221 164.667 197 180.667 197 180.667C197 180.667 173 164.667 173 146C173 139.635 175.529 133.53 180.029 129.029C184.53 124.529 190.635 122 197 122C203.365 122 209.47 124.529 213.971 129.029C218.471 133.53 221 139.635 221 146Z" fill="#101010"/>
<path d="M197 154C201.418 154 205 150.418 205 146C205 141.582 201.418 138 197 138C192.582 138 189 141.582 189 146C189 150.418 192.582 154 197 154Z" fill="white"/>
<defs>
<filter id="filter0_f_83_2077" x="-43" y="17" width="480" height="258" filterUnits="userSpaceOnUse" color-interpolation-filters="sRGB">
<feFlood flood-opacity="0" result="BackgroundImageFix"/>
<feBlend mode="normal" in="SourceGraphic" in2="BackgroundImageFix" result="shape"/>
<feGaussianBlur stdDeviation="12.5" result="effect1_foregroundBlur_83_2077"/>
</filter>
<filter id="filter1_f_83_2077" x="29" y="83" width="336" height="166" filterUnits="userSpaceOnUse" color-interpolation-filters="sRGB">
<feFlood flood-opacity="0" result="BackgroundImageFix"/>
<feBlend mode="normal" in="SourceGraphic" in2="BackgroundImageFix" result="shape"/>
<feGaussianBlur stdDeviation="12.5" result="effect1_foregroundBlur_83_2077"/>
</filter>
<filter id="filter2_f_83_2077" x="112" y="129" width="170" height="102" filterUnits="userSpaceOnUse" color-interpolation-filters="sRGB">
<feFlood flood-opacity="0" result="BackgroundImageFix"/>
<feBlend mode="normal" in="SourceGraphic" in2="BackgroundImageFix" result="shape"/>
<feGaussianBlur stdDeviation="12.5" result="effect1_foregroundBlur_83_2077"/>
</filter>
<linearGradient id="paint0_linear_83_2077" x1="196.5" y1="113.5" x2="196.5" y2="170" gradientUnits="userSpaceOnUse">
<stop stop-color="white"/>
<stop offset="1" stop-color="white" stop-opacity="0"/>
</linearGradient>
</defs>
</svg>
