<svg width="125" height="45" viewBox="0 0 125 45" fill="none" xmlns="http://www.w3.org/2000/svg">
<path d="M3.10114 4.39284L10.2678 7.23112C10.9105 7.48692 11.2193 8.20172 10.9608 8.82897L9.67537 11.916C9.21218 13.0268 7.98779 13.598 6.83166 13.3106L6.59109 13.8924C6.29309 14.6072 5.45651 14.9541 4.72403 14.6632L1.76905 13.4929C1.03658 13.202 0.681132 12.3856 0.979138 11.6708L1.2197 11.0891C0.185657 10.5074 -0.284702 9.26697 0.178448 8.15618L1.46388 5.06912C1.72239 4.44187 2.45486 4.13704 3.10114 4.39284Z" fill="#4A9396"/>
<path d="M10.3755 1.63165C10.7597 1.78234 10.9464 2.20983 10.7885 2.58477L9.39893 5.92763L8.0058 5.37751L9.39533 2.03461C9.5533 1.65971 9.99134 1.47747 10.3755 1.63165Z" fill="#4A9396"/>
<path d="M6.39721 0.0548698C6.78141 0.20552 6.96811 0.633052 6.81013 1.00795L5.4206 4.35085L4.02747 3.80069L5.417 0.45783C5.57497 0.0828912 6.01305 -0.0993071 6.39721 0.0548698Z" fill="#4A9396"/>
<path d="M7.61443 31.3881C6.7132 30.8102 5.86946 30.1339 5.10109 29.363C1.09408 25.3648 0.060032 19.0504 2.72057 14.0711C3.03296 13.4859 3.39918 12.9323 3.8121 12.4102C4.41888 11.6428 5.6971 12.4943 5.08671 13.2652C2.10301 17.0425 2.03836 22.6421 4.76716 26.5771C5.86585 28.1611 7.30565 29.4541 8.94292 30.4211L7.61443 31.3881Z" fill="#4A9396"/>
<path d="M21.5925 34.4941H13.9279C-4.75011 34.4941 -2.96417 15.5557 14.8952 15.7046C16.1975 15.7046 17.4253 15.965 18.5415 16.4487C17.4253 16.4115 16.2719 16.5975 15.1557 16.9696C3.36104 20.6531 4.32843 31.1455 16.83 31.1455H22.225C23.6017 31.1455 24.7551 30.7734 25.6109 30.1037C26.9876 29.0619 26.9131 27.0527 25.0528 27.0527H19.5089C14.5604 27.0527 13.5186 24.8947 15.1557 22.253C17.0533 19.2392 21.2577 18.3463 25.5737 18.3463H34.0941C41.4239 18.3463 44.9958 23.9645 41.9448 31.1455H43.3215L42.0936 34.4941H33.8337L35.9545 28.9502C37.4055 24.9691 36.5126 21.7321 32.9407 21.7321H25.0156C23.0808 21.7321 20.1042 22.0298 20.1042 23.2204C20.067 23.7041 20.5507 23.9273 21.1088 23.9273H29.5176C33.9081 23.9273 34.5778 26.7178 32.3826 30.2153C30.0757 33.6383 26.1318 34.4941 21.5925 34.4941ZM11.9559 44.0935C10.2816 44.0935 9.20256 42.7541 9.50021 41.0798C9.79787 39.4054 11.3606 38.066 13.0721 38.066C14.7464 38.066 15.8254 39.4054 15.5278 41.0798C15.2301 42.7541 13.6674 44.0935 11.9559 44.0935ZM18.988 44.1307C17.3137 44.1307 16.2347 42.7913 16.5324 41.117C16.83 39.4426 18.3927 38.1032 20.1042 38.1032C21.7786 38.1032 22.8576 39.4426 22.5599 41.117C22.2622 42.7913 20.6996 44.1307 18.988 44.1307ZM56.0416 15.3325C54.3673 15.3325 53.2883 13.993 53.586 12.3187C53.8836 10.6444 55.4463 9.30493 57.1579 9.30493C58.8322 9.30493 59.9112 10.6444 59.6135 12.3187C59.3159 13.993 57.7532 15.3325 56.0416 15.3325ZM55.5952 34.4941H41.8657L43.0936 31.1455H46.7771L51.7628 18.3835H58.4601L53.6976 31.1455H56.7858L55.5952 34.4941ZM102.468 34.4941H88.7378L89.966 31.1455H93.6495L98.6352 18.3835H105.333L100.57 31.1455H103.658L102.468 34.4941ZM94.3932 43.3494C92.7193 43.3494 91.6403 42.0099 91.938 40.3356C92.2356 38.6613 93.7983 37.3218 95.5098 37.3218C97.1842 37.3218 98.2632 38.6613 97.9655 40.3356C97.6679 42.0099 96.1052 43.3494 94.3932 43.3494ZM116.804 15.3325C115.129 15.3325 114.05 13.993 114.348 12.3187C114.646 10.6444 116.208 9.30493 117.92 9.30493C119.594 9.30493 120.673 10.6444 120.375 12.3187C120.078 13.993 118.515 15.3325 116.804 15.3325ZM109.251 26.755L112.301 18.3835H119.222L116.059 26.9411C113.455 33.4895 111.446 34.4941 102.925 34.4941H102.218L103.446 31.1455H103.93C107.204 31.1455 107.837 30.2897 109.251 26.755Z" fill="#4A9396"/>
<mask id="mask0_20_51538" style="mask-type:luminance" maskUnits="userSpaceOnUse" x="26" y="0" width="64" height="45">
<path d="M89.9172 40.8207C89.9172 42.6778 88.503 44.1834 86.7588 44.1834H29.5134C27.7691 44.1834 26.355 42.6778 26.355 40.8207V3.41012C26.355 1.55291 27.7691 0.0473633 29.5134 0.0473633H86.7588C88.503 0.0473633 89.9172 1.55291 89.9172 3.41012V40.8207Z" fill="white"/>
</mask>
<g mask="url(#mask0_20_51538)">
<path d="M89.9172 40.8207C89.9172 44.0708 87.4426 46.7055 84.39 46.7055H31.8822C28.8296 46.7055 26.355 44.0708 26.355 40.8207C26.355 41.2852 27.7691 41.6614 29.5134 41.6614H86.7588C88.503 41.6614 89.9172 41.2852 89.9172 40.8207Z" fill="#4A9396"/>
</g>
<path d="M89.316 31.1455H90.0974L88.9068 34.4941H87.9394C85.9674 34.4941 85 33.9732 84.0698 32.5222C81.6142 33.7128 78.4888 34.4941 74.6936 34.4941H55.1599L56.4994 31.1455H61.3363C59.2527 27.7969 62.3409 24.039 65.9872 22.1786C63.4943 21.3601 62.2293 19.3137 63.7548 16.0767C64.6477 17.7138 66.2476 18.3835 69.0382 18.3835H78.8608C90.7671 18.3835 92.4786 26.0481 86.7115 30.8106C87.4929 31.1455 88.7207 31.1455 89.316 31.1455ZM76.368 30.9223C80.0887 30.3269 83.5489 28.4294 83.5489 25.6388C83.5489 22.5879 80.7212 22.5507 77.8562 22.5507H75.8471C78.898 24.8575 79.1585 28.0573 76.368 30.9223ZM74.3216 27.9085C74.6936 26.197 72.8333 24.8203 70.266 24.8203C67.5871 24.8203 65.0942 26.197 64.6849 27.9085C64.2757 29.5828 66.0988 31.1083 68.7405 31.1083C71.3822 31.1083 73.8751 29.5828 74.3216 27.9085Z" fill="#4A9396"/>
<path d="M116.92 8.56121C116.904 8.77686 117.216 8.82569 117.285 8.62648C117.422 8.23437 117.461 7.79269 117.538 7.38446C117.613 6.98188 117.703 6.58024 117.754 6.17348C117.773 6.01144 117.518 5.96683 117.474 6.12217C117.354 6.52462 117.275 6.94092 117.18 7.35035C117.089 7.74572 116.952 8.15577 116.92 8.56121Z" fill="#F5821F"/>
<path d="M113.786 9.33975C113.633 9.18968 113.486 9.03577 113.344 8.87458C113.065 8.5589 112.809 8.22012 112.577 7.86759C112.451 7.67198 112.121 7.82751 112.245 8.03409C112.475 8.41546 112.727 8.77959 113.011 9.11995C113.146 9.28541 113.289 9.4442 113.438 9.59876C113.589 9.75689 113.745 9.95429 113.955 10.0277C114.112 10.0847 114.255 9.90293 114.182 9.76007C114.098 9.59062 113.921 9.47269 113.786 9.33975Z" fill="#F5821F"/>
<path d="M112.784 11.9521C112.993 11.9493 113.057 11.6552 112.849 11.5878C112.453 11.4552 111.984 11.4615 111.568 11.459C111.36 11.4588 111.156 11.4627 110.949 11.4781C110.74 11.4924 110.519 11.4947 110.322 11.5712C110.161 11.6341 110.249 11.8451 110.384 11.8642C110.574 11.8912 110.774 11.8571 110.967 11.85C111.174 11.8437 111.38 11.8431 111.586 11.8512C111.982 11.8664 112.384 11.9563 112.784 11.9521Z" fill="#F5821F"/>
<path d="M120.713 9.78285C121.221 9.2671 121.775 8.83116 122.426 8.50916C122.69 8.37727 122.483 7.96637 122.221 8.09903C121.537 8.45033 120.918 8.94201 120.458 9.56189C120.346 9.71692 120.576 9.91962 120.713 9.78285Z" fill="#F5821F"/>
<path d="M124.336 13.1414C123.936 13.0197 123.487 13.0519 123.078 13.0892C122.653 13.128 122.248 13.2278 121.854 13.3837C121.68 13.4517 121.782 13.7285 121.96 13.6885C122.337 13.5983 122.725 13.5319 123.113 13.5067C123.502 13.4815 123.882 13.5423 124.267 13.528C124.481 13.5208 124.561 13.2104 124.336 13.1414Z" fill="#F5821F"/>
<path d="M112.378 14.1134C111.773 14.4652 111.203 14.8702 110.678 15.3286C110.453 15.5238 110.771 15.8793 110.985 15.6754C111.462 15.2097 111.978 14.7871 112.531 14.4185C112.71 14.302 112.573 14.0008 112.378 14.1134Z" fill="#F5821F"/>
<path d="M121.789 18.1004C121.559 17.7951 121.277 17.5227 121.017 17.2418C120.76 16.9611 120.508 16.6528 120.22 16.4026C120.103 16.3009 119.861 16.415 119.968 16.5731C120.182 16.8919 120.452 17.1783 120.7 17.4707C120.954 17.7711 121.199 18.098 121.48 18.3732C121.672 18.5564 121.949 18.3108 121.789 18.1004Z" fill="#F5821F"/>
<path d="M118.292 15.3214C120.264 14.7931 121.509 13.0479 121.074 11.4233C120.639 9.79875 118.687 8.91008 116.716 9.4384C114.744 9.96673 113.499 11.712 113.934 13.3365C114.369 14.9611 116.32 15.8498 118.292 15.3214Z" fill="#F5821F"/>
<path d="M7.61801 31.3881H7.61441C7.60363 31.3846 7.60003 31.3776 7.58929 31.3707L8.91774 30.4106C8.92852 30.4211 8.93573 30.4246 8.9465 30.4281C11.5173 31.9385 14.58 32.6531 17.6068 32.4183C17.8868 32.4008 18.1633 32.3729 18.4434 32.3342C18.7055 32.2993 18.9065 32.2819 19.1112 32.2574C19.1399 32.2536 19.1686 32.2501 19.1974 32.2501H19.7359C19.7036 32.2539 19.6713 32.2609 19.6354 32.2644C19.1974 32.3272 18.7665 32.4815 18.4398 32.6531C18.4254 32.6566 18.4147 32.6636 18.4003 32.6706C18.052 32.8601 17.8222 33.0667 17.8473 33.207C17.8725 33.3574 18.2172 33.4523 18.7593 33.4977H18.7881C18.8275 33.5012 18.8599 33.5012 18.8958 33.5081L18.7162 33.7849L18.7127 33.7884C18.7019 33.7884 18.6947 33.7922 18.6839 33.7922C18.6372 33.7957 18.5906 33.8027 18.5403 33.8062C18.4829 33.8166 18.4326 33.8201 18.3751 33.8236C18.1202 33.8515 17.8581 33.8725 17.6032 33.8938C14.1024 34.1108 10.5443 33.2698 7.61801 31.3881Z" fill="#4A9396"/>
<path d="M71.7613 29.068C71.7589 29.068 71.7589 29.068 71.757 29.068L68.93 29.0478C68.7517 29.0467 68.6072 28.9773 68.6072 28.8928L68.6006 26.8987C68.6006 26.8131 68.7475 26.7426 68.9281 26.7426C69.1087 26.7426 69.2552 26.8119 69.2552 26.8976L69.2622 28.7386L71.7659 28.7556C71.9465 28.7568 72.0911 28.8273 72.0888 28.9141C72.0888 28.9994 71.9419 29.068 71.7613 29.068Z" fill="#4A9396"/>
<path d="M65.3105 27.9433C66.1476 27.722 66.2445 28.5312 65.7581 28.649C65.0361 28.8242 64.9706 28.0332 65.3105 27.9433Z" fill="#4A9396"/>
<path d="M68.7986 30.2687C69.6358 30.0474 69.7327 30.8567 69.2463 30.9745C68.5242 31.1497 68.4587 30.3586 68.7986 30.2687Z" fill="#4A9396"/>
<path d="M68.7986 25.2303C69.6358 25.009 69.7327 25.8182 69.2463 25.936C68.5242 26.1112 68.4587 25.3202 68.7986 25.2303Z" fill="#4A9396"/>
<path d="M73.0619 27.9433C73.8991 27.722 73.996 28.5312 73.5096 28.649C72.7875 28.8242 72.722 28.0332 73.0619 27.9433Z" fill="#4A9396"/>
</svg>
