<svg width="353" height="353" viewBox="0 0 353 353" fill="none" xmlns="http://www.w3.org/2000/svg">
<path d="M75.6055 247.806L65.658 248.018C62.3116 248.074 58.9369 248.131 55.5622 248.131H55.2445V247.806V239.906V239.553H55.5975L65.6086 239.595C68.948 239.595 72.2873 239.68 75.6197 239.715H75.8173V239.899L75.6055 247.806ZM75.6055 247.806L75.422 239.906L75.6055 240.096C72.2732 240.132 68.9339 240.209 65.5945 240.216L55.5834 240.259L55.9364 239.906V247.806L55.6187 247.495C58.9157 247.495 62.2198 247.552 65.545 247.608L75.6055 247.806Z" fill="#EBEBEB"/>
<path d="M64.4366 257.775L54.5031 257.979C51.1638 258.036 47.7891 258.092 44.4073 258.092H44.0967V257.775L44.0614 249.874V249.521H44.4144L54.4325 249.564C57.7719 249.564 61.1042 249.649 64.4436 249.684H64.6342V249.867L64.4366 257.775ZM64.4366 257.775L64.2459 249.874L64.4295 250.065C61.0901 250.1 57.7578 250.178 54.4184 250.185L44.4003 250.227L44.7533 249.874V257.775L44.4356 257.464C47.7397 257.464 51.0367 257.52 54.369 257.577L64.4366 257.775Z" fill="#EBEBEB"/>
<path d="M240.555 194.291L230.629 194.489C227.283 194.545 223.908 194.602 220.533 194.609H220.215V194.291L220.18 186.384V186.031H220.54L230.551 186.073C233.891 186.073 237.223 186.158 240.562 186.193H240.746V186.384L240.555 194.291ZM240.555 194.291L240.372 186.384L240.555 186.568C237.216 186.61 233.884 186.681 230.544 186.688L220.533 186.737L220.879 186.384L220.844 194.284L220.533 193.966C223.83 193.966 227.127 194.03 230.46 194.086L240.555 194.291Z" fill="#EBEBEB"/>
<path d="M217.985 194.291L208.051 194.489C204.712 194.545 201.337 194.602 197.955 194.609H197.68V194.291L197.602 186.384V186.031H197.955L207.973 186.073C211.313 186.073 214.645 186.158 217.985 186.193H218.154V186.384L217.985 194.291ZM217.985 194.291L217.801 186.384L217.985 186.568C214.645 186.61 211.313 186.681 207.973 186.688L197.955 186.737L198.308 186.384L198.273 194.284L197.955 193.966C201.259 193.966 204.556 194.03 207.889 194.086L217.985 194.291Z" fill="#EBEBEB"/>
<path d="M229.295 204.253L219.361 204.451C216.015 204.507 212.647 204.564 209.265 204.571H208.976V204.253V196.353V196H209.329L219.347 196.042C222.679 196.042 226.019 196.127 229.358 196.162H229.549V196.346L229.295 204.253ZM229.295 204.253L229.104 196.353L229.295 196.536C225.955 196.579 222.616 196.649 219.284 196.656L209.265 196.706L209.618 196.353L209.583 204.253L209.265 203.935C212.569 203.935 215.867 203.999 219.199 204.055L229.295 204.253Z" fill="#EBEBEB"/>
<path d="M308.593 257.775L298.659 257.979C295.313 258.036 291.938 258.092 288.563 258.092H288.246V257.775V249.874V249.521H288.599L298.61 249.564C301.949 249.564 305.288 249.649 308.628 249.684H308.818V249.867L308.593 257.775ZM308.593 257.775L308.402 249.874L308.593 250.065C305.253 250.1 301.914 250.178 298.574 250.185L288.563 250.227L288.916 249.874L288.881 257.775L288.563 257.464C291.86 257.464 295.164 257.52 298.497 257.577L308.593 257.775Z" fill="#EBEBEB"/>
<path d="M297.417 57.3908L287.49 57.5885C284.144 57.645 280.769 57.7015 277.394 57.7015H277.077V57.3838V49.4907V49.1306H277.437L287.448 49.173C290.787 49.173 294.12 49.2577 297.459 49.293H297.65V49.4836L297.417 57.3908ZM297.417 57.3908L297.226 49.4907L297.41 49.6742C294.07 49.6742 290.738 49.7872 287.398 49.7943L277.387 49.8366L277.733 49.4907V57.3838L277.423 57.0731C280.72 57.0731 284.017 57.1296 287.349 57.1861L297.417 57.3908Z" fill="#EBEBEB"/>
<path d="M308.593 67.3454L298.638 67.5502C295.292 67.6066 291.917 67.6631 288.542 67.6631H288.224V67.3454V59.4523V59.0923H288.577L298.589 59.1346C301.928 59.1346 305.267 59.2194 308.607 59.2547H308.797V59.4453L308.593 67.3454ZM308.593 67.3454L308.402 59.4523L308.593 59.6359C305.253 59.6359 301.914 59.7489 298.574 59.7559L288.563 59.7983L288.916 59.4523L288.881 67.3454L288.563 67.0348C291.86 67.0348 295.164 67.0913 298.497 67.1477L308.593 67.3454Z" fill="#EBEBEB"/>
<path d="M64.4366 57.3908L54.5031 57.5885C51.1638 57.645 47.7891 57.7015 44.4073 57.7015H44.0967V57.3838L44.0614 49.4907V49.1306H44.4144L54.4325 49.173C57.7719 49.173 61.1042 49.2577 64.4436 49.293H64.6342V49.4836L64.4366 57.3908ZM64.4366 57.3908L64.2459 49.4907L64.4295 49.6742C61.0901 49.6742 57.7578 49.7872 54.4184 49.7943L44.4003 49.8366L44.7533 49.4907V57.3838L44.4356 57.0731C47.7397 57.0731 51.0367 57.1296 54.369 57.1861L64.4366 57.3908Z" fill="#EBEBEB"/>
<path d="M166.199 124.545L156.273 124.743C152.927 124.8 149.552 124.856 146.177 124.863H145.86V124.545V116.645V116.292H146.213L156.224 116.335C159.563 116.335 162.902 116.419 166.235 116.455H166.425V116.638L166.199 124.545ZM166.199 124.545L166.016 116.645L166.199 116.829C162.867 116.871 159.528 116.942 156.188 116.949L146.177 116.998L146.53 116.645L146.495 124.545L146.177 124.228C149.474 124.228 152.778 124.284 156.104 124.341L166.199 124.545Z" fill="#EBEBEB"/>
<path d="M74.6948 0H73.9888V97.8587H74.6948V0Z" fill="#C7C7C7"/>
<path d="M108.646 130.928L105.886 136.992H42.7907L40.0443 130.928L66.9006 112.332H81.783L108.646 130.928Z" fill="#EBEBEB"/>
<path d="M83.6469 94.4204L81.7831 112.332H66.9006L65.0367 94.4204H83.6469Z" fill="#DBDBDB"/>
<path d="M108.639 130.928L105.879 136.992H42.7906L40.0372 130.928H108.639Z" fill="#DBDBDB"/>
<path d="M148.366 0H147.66V58.718H148.366V0Z" fill="#C7C7C7"/>
<path d="M182.31 91.787L179.557 97.8515H116.462L113.715 91.787L140.572 73.1909H155.454L182.31 91.787Z" fill="#EBEBEB"/>
<path d="M157.318 55.2798L155.454 73.191H140.572L138.708 55.2798H157.318Z" fill="#DBDBDB"/>
<path d="M182.31 91.7871L179.55 97.8517H116.462L113.708 91.7871H182.31Z" fill="#DBDBDB"/>
<path d="M312.963 321.322L278.842 321.491L244.728 321.555L176.5 321.668L108.272 321.555L74.1512 321.491L40.0372 321.322L74.1512 321.145L108.272 321.082L176.5 320.969L244.728 321.082L278.842 321.145L312.963 321.322Z" fill="#263238"/>
<path d="M166.051 321.315H98.0916C97.5339 319.126 96.9903 316.973 96.4466 314.855C95.8254 312.419 95.2111 310.04 94.6252 307.724C94.4981 307.209 94.3639 306.687 94.2298 306.178C93.7874 304.408 93.3497 302.681 92.9166 300.996L92.1471 297.967C91.8788 296.951 91.6317 295.948 91.3846 294.974C91.314 294.72 91.2505 294.459 91.1869 294.212L90.9751 293.371L90.721 292.369C90.6221 292.016 90.5374 291.663 90.4527 291.324C90.2762 290.667 90.1138 290.025 89.9585 289.397C89.7185 288.465 89.4855 287.554 89.2525 286.664C89.1537 286.276 89.0478 285.888 88.956 285.514C88.796 284.892 88.6406 284.285 88.49 283.692C88.3912 283.297 88.2923 282.908 88.2006 282.527C87.7911 280.974 87.424 279.506 87.078 278.136L86.8027 277.077C86.6544 276.484 86.5132 275.919 86.372 275.368C86.2802 275.022 86.1885 274.662 86.1108 274.359C85.8143 273.187 85.5389 272.121 85.306 271.182C85.2354 270.928 85.1718 270.688 85.1153 270.476C84.96 269.854 84.8118 269.304 84.6917 268.817C84.6423 268.619 84.6 268.428 84.5435 268.252C84.487 268.075 84.4517 267.878 84.4093 267.715C84.367 267.553 84.3458 267.468 84.3246 267.369C84.3034 267.271 84.2399 267.038 84.2046 266.903C84.1693 266.769 84.1693 266.755 84.1481 266.699C84.0493 266.289 83.9928 266.084 83.9928 266.084H150.145C150.145 266.084 152.327 273.596 155.793 285.704C156.499 288.168 157.261 290.83 158.08 293.654C160.431 301.695 163.135 311.113 166.051 321.315Z" fill="#37474F"/>
<path d="M109.218 321.315H107.524C105.006 310.904 102.568 300.474 100.21 290.025C99.6355 287.483 99.0731 284.939 98.5224 282.393C98.473 282.153 98.4165 281.92 98.3671 281.687C98.3605 281.661 98.3646 281.633 98.3785 281.61C98.3924 281.587 98.415 281.57 98.4412 281.563C98.4674 281.557 98.4951 281.561 98.5183 281.575C98.5415 281.589 98.5582 281.611 98.5647 281.638C98.5647 281.715 98.6071 281.793 98.6353 281.871C99.3978 284.596 100.167 287.335 100.916 290.074C103.768 300.452 106.535 310.866 109.218 321.315Z" fill="#263238"/>
<path d="M148.013 266.056L145.097 280.67L142.704 292.672L138.63 313.104L138.207 315.222L137.501 318.71L136.978 321.357H98.0776C97.5269 319.162 96.9692 317.008 96.4397 314.897C95.8184 312.462 95.2042 310.082 94.6182 307.767C94.4911 307.251 94.357 306.729 94.2228 306.221C93.7804 304.451 93.3427 302.724 92.9097 301.039L92.1401 298.01C91.8719 296.993 91.6248 295.991 91.3777 295.016C91.3071 294.762 91.2435 294.501 91.18 294.254L90.9682 293.414L90.714 292.411C90.6152 292.058 90.5305 291.705 90.4457 291.366C90.2692 290.71 90.1069 290.067 89.9515 289.439C89.7115 288.507 89.4785 287.596 89.2455 286.707C89.1396 286.311 89.0408 285.93 88.949 285.556C88.789 284.935 88.6337 284.328 88.4831 283.735C88.3842 283.339 88.2854 282.951 88.1936 282.57C87.7841 281.016 87.417 279.548 87.0711 278.178L86.7957 277.119C86.6475 276.526 86.5063 275.961 86.3651 275.411C86.2733 275.065 86.1815 274.705 86.1038 274.401C85.8073 273.229 85.532 272.163 85.299 271.224C85.2284 270.97 85.1649 270.73 85.1084 270.518C84.9531 269.897 84.8048 269.346 84.6848 268.859C84.6354 268.661 84.593 268.471 84.5365 268.294C84.48 268.118 84.4447 267.92 84.4024 267.758C84.36 267.595 84.3388 267.511 84.3177 267.412C84.2965 267.313 84.2329 267.08 84.1976 266.946C84.1623 266.812 84.1623 266.798 84.1412 266.741C84.0423 266.332 83.9858 266.127 83.9858 266.127L148.013 266.056Z" fill="#263238"/>
<path d="M148.027 266.028C148.027 266.388 147.752 270.335 147.109 276.357C146.933 278.115 146.714 280.042 146.467 282.111C146.079 285.372 145.598 288.973 144.998 292.778C143.982 299.415 142.662 306.658 140.939 313.739C140.325 316.288 139.654 318.816 138.941 321.287H53.5149C54.5174 308.275 55.4423 296.506 56.1765 287.229C57.2355 274.232 57.8921 266.056 57.8921 266.056H135.347L148.027 266.028Z" fill="#37474F"/>
<path d="M147.843 273.879C147.752 276.936 147.618 279.986 147.42 283.021C147.215 286.318 146.912 289.608 146.481 292.905C146.474 293.029 146.46 293.151 146.439 293.273C146.038 296.351 145.568 299.424 145.027 302.493C144.532 305.352 144.172 308.437 142.909 311.078C142.43 312.102 141.751 313.019 140.911 313.775C140.141 314.48 139.198 314.967 138.178 315.187C138.012 315.229 137.842 315.258 137.67 315.272C137.628 315.272 137.578 315.272 137.522 315.272C137.554 315.288 137.58 315.314 137.598 315.345C137.615 315.376 137.623 315.412 137.621 315.448C137.585 316.472 137.621 317.517 137.501 318.533C137.497 318.576 137.497 318.618 137.501 318.66C137.402 319.55 137.232 320.425 137.07 321.308H135.609C135.609 321.308 135.609 321.273 135.609 321.251C135.87 320.291 136.082 319.317 136.315 318.343C136.547 317.368 136.9 316.38 137.133 315.37C137.147 315.333 137.172 315.301 137.204 315.279C136.275 315.321 135.355 315.079 134.568 314.585C133.781 314.09 133.163 313.366 132.799 312.511C132.304 311.205 132.53 309.842 132.728 308.501C132.996 306.75 133.25 304.971 133.519 303.255C134.02 300.043 134.662 296.866 135.234 293.668L135.488 292.214C136.639 285.711 137.832 279.209 139.273 272.77C139.322 272.502 139.386 272.234 139.442 271.965C139.499 271.697 139.774 271.838 139.753 272.008C139.71 272.438 139.668 272.876 139.619 273.307C139.364 275.785 139.075 278.249 138.729 280.699C138.312 283.586 138.023 286.488 137.628 289.368C137.486 290.357 137.352 291.338 137.204 292.319C136.54 297.064 135.856 301.808 135.044 306.538C134.662 308.734 133.293 312.666 136.456 313.351C137.172 313.503 137.918 313.408 138.574 313.083C139.97 312.241 141.013 310.922 141.511 309.369C142.407 306.856 142.725 304.081 143.191 301.462C143.706 298.568 144.158 295.673 144.568 292.771C145.085 289.152 145.624 285.532 146.184 281.913C146.467 280.07 146.763 278.228 147.053 276.385C147.194 275.531 147.328 274.677 147.469 273.822C147.554 273.646 147.843 273.695 147.843 273.879Z" fill="#263238"/>
<path d="M72.2803 296.577C75.8365 296.545 79.3749 296.071 82.8138 295.165C84.4023 294.762 85.9697 294.254 87.5229 293.753C89.061 293.334 90.5008 292.614 91.7589 291.635C94.1593 289.573 95.2889 286.318 96.3125 283.431C97.4504 280.175 98.3725 276.847 99.073 273.469C99.1083 273.3 99.3554 273.356 99.3554 273.512C99.447 277.326 98.9712 281.133 97.9434 284.808C97.0891 287.935 95.9313 291.416 93.4109 293.604C90.7563 295.906 87.1487 296.718 83.7528 297.134C79.9379 297.577 76.0818 297.525 72.2803 296.979C72.2269 296.979 72.1758 296.958 72.138 296.92C72.1003 296.882 72.0791 296.831 72.0791 296.778C72.0791 296.724 72.1003 296.673 72.138 296.636C72.1758 296.598 72.2269 296.577 72.2803 296.577Z" fill="#263238"/>
<path d="M66.364 273.533C66.171 278.31 65.9687 283.092 65.7569 287.879C65.2862 299.029 64.7496 310.174 64.1472 321.315H62.5446C63.2788 310.146 64.053 298.984 64.8673 287.829C65.2203 283.057 65.5733 278.298 65.9475 273.526C65.9573 273.477 65.9838 273.434 66.0223 273.402C66.0609 273.371 66.1092 273.355 66.1587 273.356C66.2082 273.357 66.2559 273.375 66.2934 273.407C66.3309 273.439 66.3559 273.484 66.364 273.533Z" fill="#263238"/>
<path d="M128.492 181.781C141.984 202.135 175.01 239.574 191.665 244.989C201.267 248.117 241.791 241.163 251.174 238.487C256.158 237.075 237.174 196.374 231.808 197.744C226.308 199.156 200.935 204.401 196.805 204.592C192.674 204.782 160.354 180.778 143.516 169.871C122.279 156.118 117.45 165.112 128.492 181.781Z" fill="#D3766A"/>
<path d="M244.7 239.666C249.917 239.017 273.871 234.018 280.127 231.131C286.382 228.243 303.792 218.627 302.062 213.608C300.332 208.588 295.002 211.002 295.002 211.002C295.002 211.002 301.709 205.778 299.513 200.885C297.318 195.993 289.163 200.01 289.163 200.01C289.163 200.01 295.659 194.143 293.117 189.42C290.575 184.697 283.05 190.126 283.05 190.126C283.05 190.126 289.241 185.036 285.513 182.028C281.023 178.406 270.687 189.088 263.529 191.743C261.905 192.35 229.761 201.697 229.761 201.697L244.7 239.666Z" fill="#D3766A"/>
<path d="M283.72 189.667C276.088 197.489 271.401 199.6 260.938 202.107C260.733 202.156 260.754 202.467 260.938 202.438C271.415 200.914 277.677 199.12 284.087 190.013C284.433 189.568 284.087 189.293 283.72 189.667Z" fill="#263238"/>
<path d="M289.771 199.382C281.136 206.858 276.046 209.146 265.301 212.584C265.145 212.626 265.216 212.894 265.371 212.859C276.215 210.374 282.428 208.44 290.081 199.876C290.42 199.487 290.166 199.043 289.771 199.382Z" fill="#263238"/>
<path d="M294.466 211.158C285.584 217.759 280.134 220.547 269.254 222.538C269.207 222.551 269.165 222.581 269.138 222.622C269.11 222.663 269.098 222.712 269.104 222.761C269.11 222.81 269.134 222.855 269.17 222.888C269.207 222.921 269.254 222.94 269.304 222.941C280.6 221.995 287.42 218.557 294.635 211.447C295.108 210.967 295.023 210.741 294.466 211.158Z" fill="#263238"/>
<path d="M223.096 203.173C223.096 203.173 230.679 191.764 235.098 187.486C239.518 183.207 261.926 173.366 264.334 178.075C267.44 184.16 255.629 192.399 249.317 195.675C249.317 195.675 256.504 209.753 249.317 217.498C242.13 225.242 223.096 203.173 223.096 203.173Z" fill="#D3766A"/>
<path d="M264.616 180.03C263.444 187.627 254.88 191.397 248.992 195.033C248.903 195.082 248.827 195.153 248.771 195.238C248.716 195.323 248.681 195.421 248.672 195.522C248.662 195.624 248.677 195.726 248.716 195.82C248.754 195.914 248.815 195.998 248.893 196.063C251.512 202.17 253.426 211.539 249.719 217.491C249.698 217.525 249.691 217.567 249.7 217.606C249.708 217.646 249.73 217.681 249.763 217.705C249.796 217.729 249.836 217.74 249.876 217.735C249.917 217.731 249.954 217.712 249.98 217.681C254.817 211.843 253.687 202.481 250.39 195.979C256.483 192.343 264.905 188.213 264.694 180.037C264.694 179.988 264.623 179.974 264.616 180.03Z" fill="#263238"/>
<path d="M171.17 184.732L155.278 223.52C155.278 223.52 129.332 189.328 121.199 173.147C112.727 156.287 116.299 150.209 137.776 162.987C159.387 175.844 171.17 184.732 171.17 184.732Z" fill="#4A9396"/>
<path d="M171.17 184.732L163.623 203.152L155.278 223.52C155.278 223.52 129.339 189.328 121.199 173.147C116.892 164.597 115.699 158.822 118.375 156.873C121.051 154.925 127.214 156.69 137.797 162.987C159.387 175.851 171.17 184.732 171.17 184.732Z" fill="#4A9396"/>
<path d="M123.804 156.513C124.051 156.57 124.306 156.633 124.567 156.711L123.903 157.177C121.609 158.822 119.356 160.53 117.118 162.274C117.118 162.076 117.055 161.886 117.041 161.702C119.251 159.937 121.467 158.144 123.804 156.513ZM146.615 168.36C145.769 170.451 144.666 172.429 143.332 174.248C140.698 177.85 137.395 180.911 133.604 183.264C132.026 184.253 130.373 185.12 128.662 185.855C128.789 186.059 128.93 186.264 129.057 186.476C130.823 185.692 132.529 184.779 134.161 183.744C137.813 181.428 141.011 178.466 143.6 175.003C145.062 173.071 146.261 170.953 147.166 168.706L146.615 168.36ZM149.919 216.368L150.625 217.356C150.745 217.406 150.872 217.476 150.992 217.533C152.874 218.46 154.682 219.529 156.4 220.731L156.661 220.103C156.047 219.679 155.426 219.27 154.784 218.874C153.228 217.908 151.602 217.061 149.919 216.34V216.368ZM164.872 196.063C159.111 194.764 153.837 191.891 148.013 190.804C143.269 189.914 138.2 190.444 134.444 193.719C134.324 193.832 134.197 193.938 134.084 194.065C134.204 194.242 134.338 194.432 134.458 194.623C136.231 192.936 138.447 191.788 140.847 191.312C146.735 190.147 152.623 192.618 158.045 194.623C160.669 195.653 163.382 196.44 166.15 196.974L166.418 196.317C165.91 196.268 165.381 196.148 164.872 196.035V196.063Z" fill="white"/>
<path d="M163.425 184.612C162.938 185.488 162.578 186.441 162.175 187.359C161.773 188.276 161.349 189.244 160.933 190.183C160.093 192.089 159.288 194.016 158.49 195.943C156.894 199.798 155.285 203.646 153.76 207.529C153.336 208.595 152.92 209.647 152.531 210.741C152.143 211.836 151.783 213.043 151.374 214.165C151.374 214.236 151.451 214.271 151.479 214.201C151.903 213.262 152.404 212.351 152.835 211.377C153.266 210.402 153.696 209.442 154.113 208.461C154.925 206.541 155.73 204.613 156.513 202.686C158.052 198.873 159.605 195.075 161.067 191.234C161.476 190.161 161.872 189.116 162.281 188.015C162.691 186.914 163.206 185.77 163.524 184.619C163.545 184.598 163.453 184.556 163.425 184.612Z" fill="#263238"/>
<path opacity="0.1" d="M163.623 203.152L155.278 223.52C155.278 223.52 129.339 189.328 121.199 173.147C116.892 164.597 115.699 158.822 118.375 156.873C122.675 156.993 125.654 157.064 125.654 157.064L163.623 203.152Z" fill="black"/>
<path d="M160.347 292.574L50.832 292.891C50.832 292.891 60.3842 210.48 100.605 161.794C109.91 150.498 124.898 156.654 131.217 162.634C147.243 177.82 160.657 292.178 160.347 292.574Z" fill="#4A9396"/>
<path d="M123.331 157.586C118.65 160.968 114.153 164.646 109.599 168.176C107.248 169.991 104.961 171.918 102.504 173.577C100.534 174.905 98.2682 176.006 95.8536 175.872C94.254 175.754 92.7312 175.139 91.4976 174.114C91.5753 173.987 91.6671 173.853 91.7518 173.725C92.2584 174.135 92.8132 174.481 93.4038 174.756C95.8254 175.865 98.4588 175.314 100.711 174.05C103.203 172.681 105.399 170.739 107.644 169.002L114.993 163.298C117.528 161.335 120.041 159.217 122.675 157.297L123.331 157.586ZM107.093 214.024C109.515 210.558 110.694 205.905 109.211 201.838C107.849 198.203 104.594 195.809 100.902 194.92C97.0539 194.009 93.0084 194.487 89.4785 196.268C84.8683 198.605 81.5148 202.756 77.3706 205.757C76.2018 206.597 74.9447 207.307 73.6217 207.875C73.5017 208.164 73.3887 208.447 73.2687 208.729C77.7306 207.042 81.0347 203.483 84.6141 200.448C86.4788 198.753 88.5963 197.359 90.8905 196.317C92.8285 195.531 94.8988 195.121 96.9903 195.11C101 195.068 105.279 196.565 107.58 200.052C110.178 203.971 109.416 209.054 107.051 212.887C101.057 222.602 87.7911 221.981 77.8789 222.164C74.4757 222.182 71.0807 222.501 67.7337 223.117C67.6278 223.378 67.536 223.633 67.4513 223.894C71.2611 223.194 75.1279 222.851 79.0014 222.87C88.6524 222.757 100.909 222.913 107.121 214.024H107.093ZM109.515 189.469C118.137 190.451 126.835 188.429 134.14 183.744C136.088 182.507 137.916 181.088 139.597 179.508C139.52 179.261 139.442 179.02 139.35 178.802C137.588 180.499 135.652 182.006 133.575 183.299C126.011 188.063 116.972 189.912 108.145 188.502C100.866 187.26 94.3357 182.783 87.2687 180.807C87.1275 181.026 87.0004 181.244 86.8592 181.463C89.9226 182.415 92.9104 183.595 95.7972 184.993C100.252 187.012 104.679 188.862 109.543 189.469H109.515ZM101.389 255.932C104.324 253.001 106.083 249.095 106.331 244.954C106.542 241.163 105.335 237.188 102.321 234.682C98.8612 231.858 94.1592 231.73 90.0644 233.058C85.3413 234.59 81.6772 237.859 78.4719 241.53C74.9843 245.547 71.9273 250.122 67.6842 253.405C64.7967 255.636 61.1608 257.464 57.4402 257.704C57.3837 257.923 57.3343 258.142 57.2778 258.361C59.1897 258.258 61.0694 257.826 62.834 257.083C67.4936 255.12 71.0236 251.611 74.2147 247.792C77.5753 243.789 80.7099 239.32 85.0942 236.298C88.9207 233.679 94.0251 231.97 98.6141 233.425C102.892 234.773 105.363 238.734 105.674 243.076C105.801 245.225 105.491 247.378 104.763 249.405C104.035 251.431 102.904 253.289 101.438 254.866C98.0281 258.58 93.4179 260.888 88.7301 262.632C83.3047 264.571 77.7665 266.179 72.1462 267.447C66.1663 268.859 58.9722 270.059 53.9596 273.879C53.889 274.253 53.8113 274.585 53.7478 274.966C58.7675 270.765 66.4558 269.516 72.6686 268.054C78.2704 266.795 83.788 265.187 89.189 263.239C93.6368 261.552 98.0352 259.356 101.417 255.932H101.389ZM94.3287 274.055C89.5067 273.73 85.3978 276.745 82.6726 280.459C79.8486 284.313 78.1683 288.846 75.5561 292.821H76.3469C77.4129 291.147 78.3307 289.368 79.2203 287.653C81.536 283.17 84.0776 278.143 88.836 275.82C91.08 274.665 93.6702 274.373 96.1149 275.001C97.2078 275.358 98.2102 275.948 99.0525 276.731C99.8949 277.514 100.557 278.47 100.993 279.534C102.829 283.692 102.137 288.33 102.405 292.729H103.111C102.9 289.135 103.274 285.499 102.49 281.941C101.593 277.832 98.84 274.352 94.3852 274.055H94.3287ZM144.024 289.827C142.386 285.372 142.365 280.529 142.612 275.855C143.163 264.122 145.471 252.282 143.629 240.555C142.217 231.575 138.362 222.468 130.758 217.039C126.889 214.285 121.58 212.513 117.189 215.125C113.461 217.328 111.506 221.79 111.456 225.998C111.393 231.448 113.934 236.552 116.603 241.156C119.272 245.759 122.251 250.023 124.934 254.57C127.617 259.116 129.876 263.797 130.857 268.93C131.761 273.697 131.605 278.604 130.398 283.304C129.569 286.607 128.251 289.767 126.487 292.679H127.285C127.645 292.072 127.991 291.451 128.308 290.83C130.453 286.645 131.715 282.064 132.017 277.372C132.318 272.679 131.652 267.974 130.059 263.55C126.459 253.666 119.215 245.681 114.746 236.206C112.459 231.363 110.983 225.616 113.377 220.505C114.31 218.388 115.906 216.632 117.923 215.5C119.12 214.924 120.421 214.595 121.748 214.533C123.075 214.471 124.401 214.677 125.647 215.139C130.363 216.686 134.295 220.491 137.006 224.543C139.585 228.543 141.4 232.986 142.358 237.647C144.871 249.035 142.887 260.74 142.075 272.198C141.722 277.14 141.419 282.202 142.478 287.088C142.872 289.032 143.57 290.903 144.546 292.63H145.436C144.863 291.751 144.39 290.811 144.024 289.827ZM132.163 205.368C134.451 210.014 139.089 212.541 143.692 214.426C145.401 215.132 147.123 215.775 148.811 216.495C148.768 216.255 148.719 216.022 148.677 215.789C146.001 214.652 143.276 213.671 140.663 212.33C136.223 210.099 131.627 206.074 131.69 200.666C131.747 195.724 136.322 192.194 140.868 191.277C141.591 191.139 142.322 191.049 143.057 191.008C143 190.818 142.944 190.613 142.894 190.415C139.799 190.536 136.833 191.687 134.465 193.684C132.809 195.079 131.679 196.998 131.261 199.122C130.842 201.246 131.161 203.45 132.163 205.368Z" fill="white"/>
<path d="M96.3549 190.91C96.3549 217.787 104.89 274.302 120.359 286.615C140.663 302.775 183.002 305.769 196.409 306.093C202.255 306.235 205.495 267.447 200.942 263.162C196.388 258.876 147.646 250.058 143.431 248.039C139.216 246.02 125.562 206.59 114.647 186.744C100.88 161.709 96.3549 168.325 96.3549 190.91Z" fill="#D3766A"/>
<path d="M219.206 270.878C216.65 269.346 217.434 267.998 222.694 267.348C227.953 266.699 249.324 268.492 249.324 260.994C249.324 253.496 219.135 251.357 210.494 253.143C201.852 254.93 188.431 260.846 188.431 260.846C194.192 262.413 207.882 267.609 219.206 270.878Z" fill="#D3766A"/>
<path d="M181.442 304.505C197.927 308.395 218.203 314.234 236.454 308.579C238.496 308.005 240.286 306.761 241.537 305.049C249.762 302.655 251.103 298.059 251.103 298.059C258.085 293.484 258.813 288.592 258.813 288.592C258.813 288.592 268.435 285.683 267.645 279.569C266.776 272.714 253.426 278.157 244.262 276.639C223.258 273.194 194.376 262.42 188.417 260.825L181.442 304.505Z" fill="#D3766A"/>
<path d="M219.7 288.493C225.899 289.383 231.97 290.42 238.261 290.463C245.159 290.512 251.802 289.404 258.601 288.451C258.64 288.45 258.678 288.463 258.709 288.487C258.74 288.511 258.761 288.546 258.769 288.584C258.778 288.622 258.772 288.662 258.755 288.697C258.737 288.732 258.707 288.76 258.671 288.775C246.669 292.454 231.723 292.235 219.658 288.775C219.361 288.691 219.39 288.444 219.7 288.493Z" fill="#263238"/>
<path d="M215.782 300.862C221.861 301.392 232.556 302.274 251.047 297.847C251.103 297.847 251.152 297.932 251.089 297.96C239.461 302.422 227.918 303.255 215.789 301.151C215.379 301.088 215.372 300.827 215.782 300.862Z" fill="#263238"/>
<path d="M213.798 307.548C224.169 308.063 230.777 307.068 241.473 305.006C241.537 305.006 241.572 305.091 241.509 305.112C229.598 308.741 224.861 308.706 213.727 307.936C213.346 307.88 213.389 307.534 213.798 307.548Z" fill="#263238"/>
<path d="M130.306 217.208L96.2279 241.614C96.2279 241.614 92.4296 198.866 94.1099 180.835C95.889 162.048 102.151 158.801 113.546 181.04C125.047 203.42 130.306 217.208 130.306 217.208Z" fill="#4A9396"/>
<path d="M103.831 236.178L103.231 236.602C102.046 235.104 100.437 233.997 98.6141 233.425C97.6142 233.111 96.5762 232.936 95.5289 232.903L95.4865 232.253C97.9855 232.272 100.406 233.127 102.363 234.682C102.905 235.127 103.397 235.628 103.831 236.178ZM102.504 173.57C104.043 172.525 105.526 171.382 106.987 170.217C106.888 170.069 106.768 169.934 106.662 169.793C104.803 171.382 102.812 172.811 100.711 174.065C98.9653 175.122 96.9028 175.529 94.8864 175.215C94.8864 175.378 94.8229 175.547 94.7946 175.717C95.1437 175.791 95.4976 175.84 95.8536 175.865C98.2752 175.999 100.534 174.898 102.504 173.57ZM100.894 194.92C98.5326 194.362 96.0776 194.326 93.7003 194.814C93.7003 195.047 93.7003 195.273 93.7003 195.52C94.7796 195.29 95.8797 195.171 96.9832 195.167C100.993 195.124 105.272 196.621 107.573 200.109C110.171 204.027 109.409 209.11 107.044 212.944C104.22 217.554 99.7084 219.835 94.724 220.985L94.7664 221.691C99.659 220.576 104.107 218.394 107.128 214.074C109.55 210.607 110.729 205.955 109.246 201.888C107.842 198.203 104.587 195.809 100.894 194.92ZM117.485 188.806C114.373 189.131 111.231 189.031 108.145 188.509C103.203 187.662 98.6 185.325 93.9404 183.299L93.898 184.153L95.7971 185.008C100.224 187.013 104.679 188.862 109.543 189.469C112.295 189.802 115.077 189.814 117.831 189.505L117.485 188.806ZM130.066 216.58C126.282 214.102 121.333 212.676 117.196 215.168C113.468 217.371 111.513 221.832 111.463 226.04C111.453 227.503 111.612 228.963 111.936 230.389L112.572 229.944C111.795 226.799 112.081 223.485 113.384 220.519C114.318 218.403 115.913 216.646 117.93 215.514C119.127 214.938 120.428 214.609 121.755 214.547C123.082 214.485 124.408 214.692 125.654 215.154C127.233 215.681 128.729 216.432 130.095 217.385L130.306 217.236C130.306 217.236 130.229 216.996 130.066 216.58Z" fill="white"/>
<path d="M123.811 212.986C122.936 213.473 122.117 214.088 121.291 214.652L118.735 216.389C117.005 217.561 115.304 218.761 113.602 219.976C110.2 222.39 106.797 224.798 103.436 227.269C102.511 227.975 101.593 228.631 100.69 229.337C99.7861 230.043 98.84 230.89 97.8657 231.625C97.8022 231.667 97.8657 231.752 97.9363 231.709C98.7977 231.137 99.7084 230.636 100.57 230.064C101.431 229.492 102.335 228.885 103.203 228.278C104.912 227.083 106.613 225.875 108.307 224.656C111.633 222.249 114.972 219.856 118.248 217.385L120.987 215.267C121.947 214.561 122.964 213.855 123.811 213.05C123.917 213.043 123.868 212.958 123.811 212.986Z" fill="#263238"/>
<path d="M120.309 190.62C120.309 190.535 120.154 190.578 120.168 190.662C120.415 192.272 120.785 193.861 121.277 195.414C120.952 194.743 120.641 194.065 120.309 193.395C119.243 191.234 118.142 189.088 117.083 186.928C117.074 186.914 117.06 186.904 117.044 186.899C117.028 186.895 117.011 186.896 116.996 186.903C116.981 186.909 116.968 186.921 116.961 186.936C116.954 186.951 116.952 186.968 116.956 186.984C118.544 190.874 119.978 194.842 121.686 198.69C123.395 202.537 125.096 206.378 126.861 210.197C127.835 212.315 129.198 214.829 130.179 216.933C129.297 217.78 127.998 218.634 127.031 219.531C126.946 219.608 127.08 219.735 127.179 219.672C128.301 218.874 129.798 218.126 130.899 217.173C131.041 217.053 125.026 203.3 121.961 196.854C121.467 194.729 120.931 192.639 120.309 190.62Z" fill="#263238"/>
<path d="M101.523 238.148C100.553 238.575 99.61 239.061 98.6989 239.603C97.9435 240.047 97.2375 240.556 96.5174 241.015C96.5174 239.8 96.3691 238.579 96.2914 237.372C96.1926 235.931 96.0961 234.491 96.002 233.051C95.8113 230.17 95.6137 227.29 95.4372 224.409C95.2607 221.529 95.0559 218.648 94.8865 215.761C94.717 212.873 94.59 209.993 94.357 207.112C94.0958 203.872 93.8557 200.624 93.6086 197.384C93.6086 197.354 93.5967 197.325 93.5755 197.304C93.5544 197.283 93.5256 197.271 93.4957 197.271C93.4657 197.271 93.437 197.283 93.4158 197.304C93.3946 197.325 93.3827 197.354 93.3827 197.384C93.3451 200.377 93.3451 203.371 93.3827 206.364C92.945 204.648 92.3661 202.961 92.0131 201.224C92.0084 201.196 91.9927 201.171 91.9696 201.155C91.9464 201.138 91.9176 201.131 91.8895 201.136C91.8614 201.141 91.8364 201.156 91.8198 201.18C91.8033 201.203 91.7966 201.232 91.8013 201.26C91.9495 203.498 92.2814 205.891 93.418 207.861C93.4745 210.198 93.5451 212.542 93.6651 214.885C93.9546 220.653 94.3076 226.414 94.8018 232.175C94.943 233.792 95.0842 235.409 95.2395 237.033C95.3948 238.656 95.4795 240.238 95.7831 241.798C95.8018 241.859 95.8361 241.914 95.8825 241.958C95.9289 242.002 95.986 242.032 96.048 242.047C96.1099 242.062 96.1748 242.061 96.236 242.043C96.2973 242.026 96.3529 241.992 96.3973 241.946C97.1992 241.238 98.0483 240.584 98.9389 239.991C99.7861 239.384 100.655 238.805 101.53 238.24C101.664 238.233 101.593 238.12 101.523 238.148Z" fill="#263238"/>
<path d="M134.606 166.044C134.669 167.788 134.641 169.535 134.521 171.276C134.462 172.847 134.254 174.41 133.9 175.942C133.194 178.717 131.507 181.407 128.52 182.508C127.132 182.961 125.668 183.131 124.213 183.01C122.758 182.889 121.342 182.478 120.048 181.802C117.288 180.447 115 178.315 112.889 176.232C111.583 174.94 110.327 173.599 109.141 172.208C108.54 171.502 107.94 170.796 107.376 170.09C106.811 169.384 106.281 168.6 105.674 167.901C105.625 167.845 105.505 167.901 105.547 167.972C106.761 169.645 110.489 174.961 111.64 176.246C113.758 178.583 116.088 180.955 118.968 182.522C121.742 184.133 125.036 184.594 128.146 183.807C129.627 183.382 130.974 182.586 132.06 181.493C133.146 180.401 133.935 179.049 134.352 177.566C134.834 175.793 135.053 173.959 135.001 172.123C135.001 170.104 134.881 168.085 134.712 166.087C134.648 166.016 134.606 166.023 134.606 166.044Z" fill="#263238"/>
<path d="M125.414 177.842C118.686 178.505 108.844 167.054 105.512 158.405C105.286 157.812 110.553 136.018 111.16 131.577C111.273 130.674 138.051 142.062 138.051 142.062C138.051 142.062 134.069 150.971 133.109 158.695C132.996 159.359 131.909 177.206 125.414 177.842Z" fill="#D3766A"/>
<path d="M138.044 142.076C138.044 142.076 134.062 150.985 133.067 158.709C133.067 158.864 132.975 159.98 132.792 161.596C119.745 158.603 112.431 149.369 108.788 142.944C109.889 138.002 110.906 133.392 111.132 131.598C111.273 130.688 138.044 142.076 138.044 142.076Z" fill="#263238"/>
<path d="M137.021 88.2925C138.637 88.0948 147.54 98.826 148.415 104.439C149.291 110.051 148.924 121.538 147.3 121.976C145.676 122.413 135.771 88.4478 137.021 88.2925Z" fill="#263238"/>
<path d="M101.459 104.255C98.6847 114.259 104.693 142.803 111.929 149.015C122.427 158.01 139.23 158.455 146.799 145.937C154.127 133.808 145.648 96.7432 137.621 91.1446C125.739 82.8915 105.554 89.4643 101.459 104.255Z" fill="#D3766A"/>
<path d="M125.873 115.036C125.108 115.441 124.324 115.806 123.522 116.13C122.611 116.547 121.933 116.97 120.91 116.801C120.624 116.723 120.373 116.552 120.196 116.316C120.018 116.079 119.924 115.79 119.928 115.495C120.02 114.231 121.001 113.447 122.046 112.904C123.109 112.322 124.35 112.158 125.527 112.445C125.798 112.516 126.042 112.666 126.228 112.876C126.414 113.086 126.533 113.346 126.57 113.624C126.607 113.902 126.56 114.185 126.436 114.436C126.312 114.688 126.116 114.896 125.873 115.036Z" fill="#263238"/>
<path d="M126.967 121.383C126.967 121.319 126.84 121.51 126.868 121.587C127.405 123.487 127.708 125.739 126.162 126.812C126.113 126.812 126.162 126.939 126.205 126.911C128.21 126.085 127.786 123.091 126.967 121.383Z" fill="#263238"/>
<path d="M124.764 119.822C121.637 120.359 122.943 126.572 125.845 126.077C128.746 125.583 127.384 119.37 124.764 119.822Z" fill="#263238"/>
<path d="M137.995 118.785C137.995 118.707 138.164 118.841 138.178 118.919C138.524 120.86 139.244 123.021 141.122 123.296C141.179 123.296 141.193 123.402 141.122 123.402C138.941 123.55 138.009 120.677 137.995 118.785Z" fill="#263238"/>
<path d="M139.294 116.412C142.337 115.523 143.89 121.686 141.066 122.505C138.242 123.324 136.738 117.154 139.294 116.412Z" fill="#263238"/>
<path d="M140.847 112.254C139.977 112.26 139.108 112.22 138.242 112.134C137.239 112.071 136.442 112.134 135.609 111.499C135.393 111.296 135.25 111.027 135.203 110.735C135.155 110.442 135.206 110.142 135.347 109.882C136.018 108.802 137.254 108.569 138.461 108.583C139.677 108.569 140.856 109.003 141.772 109.804C141.979 109.995 142.124 110.243 142.189 110.517C142.254 110.791 142.235 111.078 142.136 111.341C142.037 111.604 141.861 111.832 141.631 111.995C141.401 112.157 141.128 112.248 140.847 112.254Z" fill="#263238"/>
<path d="M129.106 139.082C129.657 139.435 130.25 139.958 130.963 139.866C131.674 139.701 132.343 139.388 132.926 138.948C132.938 138.939 132.953 138.935 132.969 138.935C132.984 138.936 132.999 138.941 133.01 138.951C133.022 138.96 133.031 138.973 133.035 138.988C133.039 139.003 133.037 139.019 133.032 139.033C132.835 139.468 132.524 139.843 132.133 140.117C131.742 140.391 131.284 140.556 130.808 140.593C130.391 140.568 129.992 140.421 129.659 140.169C129.326 139.918 129.075 139.574 128.937 139.181C128.88 139.132 129.022 139.082 129.106 139.082Z" fill="#263238"/>
<path d="M129.904 132.919C130.554 133.577 131.332 134.095 132.191 134.439C133.05 134.782 133.971 134.945 134.895 134.917C135.703 134.9 136.504 134.77 137.275 134.529C137.428 134.495 137.577 134.445 137.719 134.38L138.122 134.225C138.221 134.185 138.304 134.114 138.357 134.022C138.411 133.929 138.432 133.822 138.418 133.717C138.404 133.649 138.382 133.583 138.355 133.519L138.313 133.349C138.044 131.86 137.423 129.636 137.423 129.636C138.023 129.798 141.045 130.455 140.84 129.692C139.11 123.338 137.183 116.321 134.126 110.39C134.108 110.348 134.074 110.314 134.031 110.295C133.989 110.276 133.941 110.274 133.897 110.289C133.853 110.305 133.817 110.336 133.795 110.377C133.773 110.418 133.768 110.466 133.78 110.51C135.192 116.66 137.698 122.512 139.23 128.676C138.277 128.52 136.71 128.21 135.94 128.386C135.743 128.492 137.211 132.665 137.275 133.328C137.277 133.352 137.277 133.375 137.275 133.399C134.846 134.246 132.813 133.886 130.045 132.693C129.904 132.629 129.763 132.792 129.904 132.919Z" fill="#263238"/>
<path d="M136.258 133.957C135.669 135.188 134.772 136.246 133.653 137.028C133.024 137.436 132.284 137.639 131.535 137.607C129.911 137.529 129.579 136.124 129.608 134.86C129.625 134.185 129.725 133.514 129.904 132.862C131.85 133.899 134.078 134.282 136.258 133.957Z" fill="#263238"/>
<path d="M133.646 137.028C133.017 137.436 132.277 137.639 131.528 137.607C129.904 137.529 129.572 136.124 129.6 134.86C131.316 134.677 133.166 135.453 133.646 137.028Z" fill="#FF97B8"/>
<path d="M105.413 129.113C110.595 128.739 112.183 122.661 112.649 114.429C112.925 109.621 110.2 100.577 110.2 100.577C110.2 100.577 124.235 104.58 131.528 102.695C138.821 100.81 144.109 93.4533 142.824 87.7064C141.73 82.7644 132.29 77.653 121.164 78.9732C113.398 79.891 101.396 88.1512 96.9903 97.3928C96.9903 97.3928 88.0453 103.591 90.6716 110.687C93.2979 117.782 99.546 129.537 105.413 129.113Z" fill="#263238"/>
<path d="M105.681 128.492C112.635 128.831 114.556 118.128 113.871 112.826C113.165 107.319 110.15 102.116 108.336 96.9197C108.336 96.9197 108.336 96.8773 108.378 96.9197C111.703 103.041 115.488 110.856 114.379 118.001C113.673 122.498 111.682 130.073 105.66 128.894C105.455 128.81 105.462 128.492 105.681 128.492Z" fill="#263238"/>
<path d="M88.8502 108.724C89.069 104.064 93.4886 98.7836 97.6328 97.0256C97.6681 97.0256 97.6964 97.0751 97.6328 97.0962C92.7826 99.8143 87.7488 106.733 90.3045 112.254C92.3378 116.667 95.5431 122.399 99.2919 125.555C99.3908 125.64 99.2919 125.774 99.1648 125.703C96.2844 123.628 94.6747 120.571 92.8603 117.584C91.3071 115.007 88.7019 111.972 88.8502 108.724Z" fill="#263238"/>
<path d="M96.129 98.2612C100.789 88.5537 112.318 76.5164 123.967 77.3777V77.4342C111.774 77.5471 102.674 89.4362 96.5879 98.5648C96.4043 98.8401 96.0161 98.5365 96.129 98.2612Z" fill="#263238"/>
<path d="M108.724 128.894C108.724 128.894 101.883 119.865 97.7528 122.336C93.6227 124.807 99.0165 138.065 104.029 139.717C104.657 139.974 105.331 140.1 106.009 140.09C106.687 140.079 107.356 139.932 107.976 139.656C108.596 139.381 109.154 138.983 109.616 138.486C110.078 137.989 110.435 137.404 110.665 136.766L108.724 128.894Z" fill="#D3766A"/>
<path d="M99.3837 126.099C99.306 126.099 99.299 126.205 99.3837 126.233C102.914 127.504 104.855 130.646 106.253 133.928C105.18 132.686 103.747 132.036 102.074 133.328C101.982 133.399 102.074 133.533 102.172 133.512C102.774 133.293 103.429 133.266 104.046 133.435C104.663 133.605 105.213 133.962 105.618 134.458C106.291 135.29 106.873 136.192 107.354 137.148C107.524 137.451 108.06 137.268 107.947 136.915C107.947 136.915 107.947 136.858 107.947 136.837C107.82 132.418 104.149 126.374 99.3837 126.099Z" fill="#263238"/>
<path d="M318.406 253.009C309.073 265.654 299.344 280.324 296.965 296.181C296.965 296.421 297.325 296.499 297.381 296.266C298.452 291.937 299.83 287.69 301.504 283.558C307.646 281.87 313.669 280.487 316.895 274.38C320.178 268.117 319.761 259.949 319.14 253.129C319.063 252.783 318.561 252.748 318.406 253.009Z" fill="#4A9396"/>
<path d="M301.568 283.452C305.762 274.034 311.141 264.587 317.989 256.85C318.032 256.793 318.102 256.85 318.06 256.92C313.584 262.434 310.174 268.435 306.849 274.57C309.941 271.436 313.33 268.626 316.26 265.293C316.316 265.23 316.408 265.293 316.352 265.392C313.443 268.88 310.266 272.671 306.468 275.276C305.451 277.159 304.425 279.042 303.389 280.924C303.644 280.783 303.905 280.656 304.166 280.522C304.215 280.522 304.251 280.571 304.208 280.592C303.919 280.741 303.629 280.896 303.333 281.016C302.846 281.906 302.359 282.802 301.85 283.685C301.751 283.812 301.462 283.649 301.568 283.452Z" fill="#263238"/>
<path d="M304.688 280.162C307.198 278.758 309.594 277.16 311.854 275.382C311.911 275.333 312.003 275.418 311.939 275.467C309.75 277.36 307.351 278.995 304.787 280.338C304.764 280.351 304.736 280.355 304.71 280.347C304.685 280.34 304.663 280.323 304.65 280.3C304.637 280.276 304.633 280.249 304.641 280.223C304.648 280.197 304.665 280.175 304.688 280.162Z" fill="#263238"/>
<path d="M295.849 293.83C295.857 293.87 295.879 293.906 295.911 293.932C295.942 293.957 295.982 293.971 296.022 293.971C296.063 293.971 296.102 293.957 296.134 293.932C296.166 293.906 296.187 293.87 296.195 293.83C296.245 288.613 296.195 283.367 296.273 278.122C297.614 275.418 300.509 273.928 302.479 271.768C303.917 270.19 305.168 268.451 306.206 266.585C308.611 262.126 310.081 257.223 310.527 252.176C311.078 246.592 308.96 228.172 306.602 228.8C305.38 229.132 301.434 238.261 300.382 241.282C298.684 246.259 297.441 251.38 296.668 256.581C294.762 268.845 294.917 281.461 295.849 293.83Z" fill="#4A9396"/>
<path d="M295.814 271.301C296.103 264.693 297.593 258.022 298.984 251.611C300.488 244.706 302.239 238.197 305.79 232.048C305.806 232.031 305.828 232.02 305.852 232.017C305.875 232.014 305.899 232.019 305.92 232.031C305.94 232.044 305.956 232.062 305.964 232.085C305.973 232.107 305.973 232.131 305.966 232.154C303.598 236.943 301.765 241.979 300.502 247.17C300.735 246.796 301.024 246.464 301.271 246.09C301.37 245.956 301.603 246.09 301.504 246.224C301.189 246.783 300.817 247.308 300.396 247.792C300.38 247.797 300.363 247.797 300.347 247.792C299.125 252.734 298.229 257.775 297.523 262.808L297.692 262.618C297.7 262.611 297.711 262.606 297.722 262.606C297.733 262.606 297.744 262.609 297.753 262.615C297.762 262.622 297.768 262.631 297.771 262.642C297.774 262.653 297.774 262.664 297.77 262.674C297.678 262.844 297.572 263.006 297.466 263.175C297.092 265.731 296.76 268.28 296.386 270.807C300.94 266.917 304.823 262.335 307.018 256.687C307.018 256.687 307.068 256.687 307.061 256.687C304.907 262.547 301.526 267.75 296.315 271.309C296.216 272.015 296.125 272.671 296.026 273.349C296.026 273.49 295.786 273.448 295.786 273.314C295.786 272.714 295.786 272.106 295.835 271.506C295.82 271.495 295.807 271.48 295.798 271.463C295.788 271.446 295.782 271.428 295.78 271.408C295.778 271.389 295.78 271.37 295.786 271.351C295.792 271.333 295.801 271.316 295.814 271.301Z" fill="#263238"/>
<path d="M297.932 261.728C301.406 256.539 304.653 251.498 307.202 245.758C307.202 245.695 307.336 245.758 307.315 245.808C305.197 251.505 302.168 257.28 298.101 261.862C298.052 261.926 297.89 261.834 297.932 261.728Z" fill="#263238"/>
<path d="M302.577 244.481C303.989 241.932 305.536 239.447 306.891 236.849C306.933 236.778 307.032 236.849 307.004 236.912C305.877 239.624 304.457 242.205 302.768 244.608C302.705 244.742 302.493 244.629 302.577 244.481Z" fill="#263238"/>
<path d="M292.319 278.722C292.246 282.184 291.837 285.632 291.098 289.015C291.154 289.382 291.204 289.756 291.26 290.138C292.324 286.402 292.94 282.553 293.096 278.672C293.128 278.619 293.144 278.558 293.144 278.496C293.144 278.434 293.128 278.373 293.096 278.319C293.246 273.116 292.858 267.911 291.938 262.787C290.321 253.193 286.791 243.979 280.098 236.792C280.044 236.75 279.981 236.72 279.915 236.705C279.848 236.69 279.778 236.689 279.711 236.703C279.644 236.717 279.581 236.746 279.526 236.787C279.47 236.828 279.425 236.88 279.392 236.941C276.695 243.81 277.634 252.007 279.936 258.827C281.177 262.539 282.959 266.048 285.224 269.24C287.525 272.466 290.455 275.199 292.319 278.722Z" fill="#4A9396"/>
<path d="M280.91 239.983C287.264 250.277 291.67 262.484 292.206 274.641C292.206 274.86 291.853 274.916 291.825 274.697C291.67 273.603 291.507 272.516 291.331 271.443C288.705 268.929 286.008 266.282 284.13 263.14C284.094 263.084 284.179 263.02 284.221 263.069C286.398 265.74 288.732 268.279 291.211 270.673C290.759 267.99 290.222 265.343 289.58 262.738L289.079 262.145C288.973 262.018 289.156 261.827 289.269 261.954L289.418 262.123C288.527 258.551 287.421 255.036 286.106 251.597C284.49 249.67 282.682 248.003 281.51 245.688C281.51 245.631 281.553 245.589 281.595 245.638C282.541 246.966 283.452 248.3 284.525 249.528C284.956 250.023 285.422 250.482 285.866 250.94C284.403 247.21 282.666 243.593 280.67 240.117C280.661 240.087 280.663 240.054 280.675 240.025C280.688 239.995 280.709 239.971 280.737 239.955C280.765 239.94 280.797 239.934 280.829 239.939C280.86 239.944 280.889 239.96 280.91 239.983Z" fill="#263238"/>
<path d="M282.195 252.684C284.243 255.438 286.579 258.071 288.486 260.923C288.542 261.008 288.422 261.093 288.351 261.029C285.93 258.728 283.812 255.572 282.054 252.748C281.997 252.67 282.132 252.6 282.195 252.684Z" fill="#263238"/>
<path d="M288.754 261.566L288.839 261.651C288.902 261.714 288.839 261.806 288.747 261.742L288.655 261.658C288.649 261.644 288.647 261.629 288.649 261.614C288.652 261.599 288.66 261.586 288.671 261.575C288.682 261.565 288.696 261.559 288.711 261.557C288.726 261.555 288.741 261.558 288.754 261.566Z" fill="#263238"/>
<path d="M270.97 259.808C271.485 265.103 274.267 271.429 277.663 275.509C279.157 277.285 281.006 278.728 283.092 279.745C285.443 280.91 287.907 282.252 290.335 283.205C291.492 286.148 292.353 289.199 292.905 292.312C292.983 292.051 293.061 291.776 293.138 291.507C291.578 278.093 282.901 266.635 271.803 259.278C271.716 259.222 271.614 259.192 271.51 259.192C271.406 259.192 271.305 259.221 271.217 259.277C271.129 259.332 271.06 259.412 271.016 259.506C270.972 259.6 270.956 259.705 270.97 259.808Z" fill="#4A9396"/>
<path d="M274.811 263.733C274.733 263.663 274.811 263.521 274.923 263.585C281.012 268.126 285.866 274.118 289.043 281.016C289.121 281.2 288.874 281.362 288.768 281.179C288.253 280.275 287.723 279.392 287.187 278.531C284.652 278.058 282.245 276.272 280.374 274.577C280.324 274.535 280.374 274.457 280.451 274.507C281.428 275.385 282.509 276.14 283.671 276.752C284.702 277.274 285.789 277.606 286.89 278.023C285.951 276.533 284.97 275.107 283.953 273.716C281.215 272.679 278.647 271.236 276.335 269.438C276.265 269.388 276.335 269.268 276.406 269.318C278.692 270.701 281.048 271.964 283.466 273.102C281.92 271.06 280.251 269.115 278.468 267.277C277.606 266.818 276.731 266.36 275.898 265.865C275.834 265.823 275.898 265.71 275.954 265.731C276.646 265.977 277.307 266.302 277.924 266.698C276.943 265.71 275.912 264.708 274.811 263.733Z" fill="#263238"/>
<path d="M275.043 268.365C275.193 268.454 275.335 268.555 275.467 268.668C275.509 268.703 275.467 268.76 275.418 268.739C275.262 268.668 275.113 268.583 274.973 268.485C274.895 268.435 274.966 268.315 275.043 268.365Z" fill="#263238"/>
<path d="M310.456 321.322H280.049L282.499 293.618L283.042 287.511H307.463L308.007 293.618L310.456 321.322Z" fill="#455A64"/>
<path d="M308.007 293.618H282.499L283.042 287.511H307.463L308.007 293.618Z" fill="#263238"/>
<path d="M308.924 283.24H281.588V289.283H308.924V283.24Z" fill="#455A64"/>
<path d="M248.06 61.6338C247.77 59.4023 247.61 57.1558 247.58 54.9056C247.524 52.6579 247.602 50.4089 247.813 48.1704C248.104 50.4017 248.262 52.6485 248.286 54.8986C248.341 57.1461 248.266 59.395 248.06 61.6338Z" fill="#A6A6A6"/>
<path d="M217.328 70.2048C215.96 68.4195 214.699 66.5547 213.551 64.6203C212.382 62.7021 211.326 60.7172 210.388 58.6758C211.756 60.455 213.015 62.3151 214.158 64.2461C215.333 66.1672 216.391 68.157 217.328 70.2048Z" fill="#A6A6A6"/>
<path d="M195.004 92.9944C192.927 92.1332 190.902 91.1501 188.94 90.0504C186.964 88.9756 185.054 87.7826 183.221 86.478C185.298 87.3432 187.323 88.3285 189.286 89.4291C191.26 90.5041 193.17 91.6946 195.004 92.9944Z" fill="#A6A6A6"/>
<path d="M187.09 123.896C184.861 124.186 182.617 124.346 180.369 124.376C178.121 124.433 175.872 124.355 173.634 124.143C178.098 123.595 182.608 123.512 187.09 123.896Z" fill="#A6A6A6"/>
<path d="M195.64 154.614C193.853 155.978 191.989 157.237 190.055 158.384C188.137 159.56 186.15 160.618 184.104 161.554C185.888 160.187 187.753 158.928 189.688 157.784C191.606 156.608 193.594 155.55 195.64 154.614Z" fill="#A6A6A6"/>
<path d="M302.38 153.527C306.53 155.274 310.483 157.458 314.17 160.043C310.028 158.284 306.079 156.1 302.387 153.527H302.38Z" fill="#A6A6A6"/>
<path d="M310.322 122.625C312.551 122.334 314.796 122.176 317.043 122.152C319.291 122.09 321.54 122.165 323.779 122.378C321.55 122.669 319.305 122.827 317.058 122.851C314.81 122.913 312.561 122.838 310.322 122.625Z" fill="#A6A6A6"/>
<path d="M301.751 91.8931C303.534 90.5272 305.397 89.2683 307.329 88.1231C309.247 86.9473 311.234 85.8888 313.28 84.9531C311.497 86.3214 309.632 87.5804 307.696 88.7232C305.779 89.8974 303.794 90.956 301.751 91.8931Z" fill="#A6A6A6"/>
<path d="M278.955 69.5694C279.822 67.5048 280.808 65.4918 281.906 63.5401C282.979 61.5646 284.17 59.655 285.471 57.8215C284.61 59.8969 283.627 61.9196 282.527 63.879C281.449 65.8441 280.256 67.7441 278.955 69.5694Z" fill="#A6A6A6"/>
<path d="M187.189 82.2278L193.084 81.1335L194.404 74.9207L195.724 81.1335L201.619 82.2278L195.746 83.668L194.404 89.5349L193.063 83.668L187.189 82.2278Z" fill="#4A9396"/>
<path d="M282.216 185.586L288.112 184.499L289.432 178.279L290.745 184.499L296.647 185.593L290.773 187.027L289.432 192.901L288.09 187.027L282.216 185.586Z" fill="#4A9396"/>
<path d="M204.098 172.546L207.395 171.939L208.129 168.466L208.87 171.939L212.167 172.546L208.884 173.351L208.129 176.634L207.38 173.351L204.098 172.546Z" fill="#4A9396"/>
<path d="M222.037 66.1734L225.327 65.5592L226.068 62.0857L226.802 65.5592L230.1 66.1734L226.817 66.9712L226.068 70.2541L225.313 66.9712L222.037 66.1734Z" fill="#4A9396"/>
<path d="M208.129 188.791C208.368 188.771 208.591 188.661 208.754 188.484C208.916 188.307 209.007 188.075 209.007 187.835C209.007 187.594 208.916 187.363 208.754 187.186C208.591 187.008 208.368 186.899 208.129 186.878C207.889 186.899 207.666 187.008 207.504 187.186C207.341 187.363 207.251 187.594 207.251 187.835C207.251 188.075 207.341 188.307 207.504 188.484C207.666 188.661 207.889 188.771 208.129 188.791Z" fill="#4A9396"/>
<path d="M301.13 176.634C301.277 176.591 301.406 176.502 301.497 176.38C301.589 176.258 301.638 176.109 301.638 175.956C301.638 175.804 301.589 175.655 301.497 175.533C301.406 175.411 301.277 175.321 301.13 175.279C300.983 175.321 300.855 175.411 300.763 175.533C300.671 175.655 300.622 175.804 300.622 175.956C300.622 176.109 300.671 176.258 300.763 176.38C300.855 176.502 300.983 176.591 301.13 176.634Z" fill="#4A9396"/>
<path d="M204.549 88.377C204.693 88.3323 204.819 88.2428 204.908 88.1215C204.998 88.0002 205.046 87.8535 205.046 87.7028C205.046 87.5521 204.998 87.4054 204.908 87.2841C204.819 87.1628 204.693 87.0733 204.549 87.0286C204.405 87.0733 204.28 87.1628 204.19 87.2841C204.101 87.4054 204.053 87.5521 204.053 87.7028C204.053 87.8535 204.101 88.0002 204.19 88.1215C204.28 88.2428 204.405 88.3323 204.549 88.377Z" fill="#4A9396"/>
<path d="M314.827 98.6565C314.973 98.6138 315.102 98.5246 315.194 98.4024C315.285 98.2802 315.335 98.1315 315.335 97.9788C315.335 97.826 315.285 97.6774 315.194 97.5552C315.102 97.433 314.973 97.3438 314.827 97.301C314.68 97.3438 314.551 97.433 314.459 97.5552C314.368 97.6774 314.318 97.826 314.318 97.9788C314.318 98.1315 314.368 98.2802 314.459 98.4024C314.551 98.5246 314.68 98.6138 314.827 98.6565Z" fill="#4A9396"/>
<path d="M306.171 104.869C308.529 104.869 308.529 101.205 306.171 101.205C303.813 101.205 303.806 104.869 306.171 104.869Z" fill="#4A9396"/>
<g opacity="0.5">
<path d="M300.996 126.374C298.398 158.85 271.344 168.642 271.344 168.642C269.353 173.584 266.762 186.144 266.762 186.144H230.629C230.629 186.144 228.038 173.584 226.047 168.642C226.047 168.642 198.986 158.85 196.395 126.374C194.595 103.782 210.663 70.4377 248.498 70.4307H248.886C286.721 70.466 302.796 103.832 300.996 126.374Z" fill="#4A9396"/>
</g>
<g opacity="0.7">
<path d="M296.52 126.565C294.155 156.273 269.402 165.204 269.402 165.204C267.581 169.722 265.216 186.151 265.216 186.151H232.175C232.175 186.151 229.803 169.722 227.981 165.204C227.981 165.204 203.229 156.252 200.857 126.544C199.212 105.9 213.918 75.4079 248.512 75.4009H248.872C283.473 75.4079 298.179 105.9 296.52 126.565Z" fill="#4A9396"/>
</g>
<path d="M230.341 132.153L228.259 132.542L238.882 189.415L240.964 189.026L230.341 132.153Z" fill="white"/>
<path d="M267.034 132.156L256.451 189.037L258.533 189.424L269.117 132.544L267.034 132.156Z" fill="white"/>
<path d="M248.696 151.169C245.462 151.169 242.497 148.147 240.414 144.285C240.058 144.778 239.6 145.188 239.071 145.487C238.543 145.787 237.956 145.969 237.35 146.022C232.076 146.022 229.944 135.065 229.852 134.599L230.558 134.472C230.558 134.578 232.676 145.316 237.357 145.316C238.289 145.316 239.228 144.667 240.082 143.622C238.461 140.479 237.55 137.018 237.414 133.484C237.414 130.455 238.536 128.718 240.506 128.718C242.8 128.718 244.114 130.568 244.114 133.787C244 137.317 242.891 140.744 240.915 143.671C242.885 147.455 245.695 150.47 248.681 150.47C250.941 150.47 253.2 148.705 255.035 145.528C255.198 145.238 255.36 144.942 255.516 144.638C253.398 142.365 252.218 138.637 252.218 135.086C252.218 131.182 253.673 128.732 256.01 128.732C256.459 128.731 256.9 128.856 257.283 129.092C257.666 129.327 257.975 129.665 258.177 130.066C259.759 132.799 258.883 139.364 256.363 144.504C257.345 145.495 258.681 146.056 260.076 146.064C264.1 146.064 267.136 135.263 267.179 135.157L267.885 135.347C267.75 135.813 264.658 146.77 260.119 146.77C258.616 146.756 257.174 146.171 256.087 145.133L255.685 145.839C254.273 148.26 251.929 151.169 248.696 151.169ZM256.045 129.424C253.765 129.424 252.96 132.453 252.96 135.072C252.96 137.896 253.906 141.666 255.876 143.961C258.17 139.096 259.031 132.898 257.605 130.427C257.469 130.127 257.249 129.874 256.972 129.696C256.696 129.519 256.374 129.424 256.045 129.424ZM240.513 129.424C238.437 129.424 238.127 131.966 238.127 133.484C238.264 136.784 239.099 140.018 240.577 142.972C242.337 140.227 243.314 137.054 243.401 133.794C243.401 132.156 243.019 129.424 240.499 129.424H240.513Z" fill="white"/>
<path d="M271.323 186.215H226.068V211.122H271.323V186.215Z" fill="#455A64"/>
<path d="M266.162 211.094C263.5 215.817 258.396 220.039 248.667 220.039C238.939 220.039 233.841 215.803 231.166 211.094H266.162Z" fill="#455A64"/>
<path d="M266.162 211.094C265.371 212.506 264.382 213.796 263.225 214.928L232.076 212.534C231.749 212.079 231.445 211.608 231.166 211.122L266.162 211.094Z" fill="#37474F"/>
<path d="M272.643 190.966L224.741 195.393V193.218L272.643 188.792V190.966Z" fill="#37474F"/>
<path d="M272.643 197.539L224.741 201.966V199.798L272.643 195.365V197.539Z" fill="#37474F"/>
<path d="M272.643 204.112L224.741 208.538V206.371L272.643 201.937V204.112Z" fill="#37474F"/>
<g opacity="0.5">
<path d="M207.79 118.813C209.449 119.088 211.602 110.524 220.809 100.612C224.896 96.2138 240.414 90.7281 239.299 85.6238C238.183 80.5194 224.339 85.765 217.37 93.8345C206.152 106.818 206.265 118.552 207.79 118.813Z" fill="white"/>
<path d="M289.46 120.592C292.51 120.592 292.517 115.848 289.46 115.848C286.403 115.848 286.375 120.592 289.46 120.592Z" fill="white"/>
<path d="M274.5 156.259C276.166 157.537 284.264 150.06 287.914 141.144C290.95 133.745 291.444 124.39 289.432 123.847C287.42 123.303 286.071 136.138 283.621 140.868C280.529 146.848 272.714 154.904 274.5 156.259Z" fill="white"/>
</g>
</svg>
