<svg width="350" height="335" viewBox="0 0 350 335" fill="none" xmlns="http://www.w3.org/2000/svg">
<g clip-path="url(#clip0_5_113)">
<path d="M233.759 99.7536C232.548 101.191 231.01 102.317 229.275 103.038L224.303 108.633L210.223 125.628L200.71 131.379L196.293 123.778L217.144 103.477L222.955 97.5682C223.421 95.7473 224.316 94.0646 225.567 92.6612C228.645 89.1066 232.975 87.8137 235.237 89.7718C237.5 91.7304 236.838 96.1984 233.759 99.7536Z" fill="#FFAFAF"/>
<path d="M148.652 116.639L157.809 101.408L196.766 118.139L218.06 100.749C218.06 100.749 226.508 108.023 226.81 108.283C227.112 108.542 205.337 138.687 203.791 138.651C202.245 138.616 148.652 116.639 148.652 116.639Z" fill="#DEDEDE"/>
<path d="M236.581 0C264.314 0 286.877 21.161 286.877 47.172C286.877 54.4397 285.065 61.6684 281.628 68.154H281.669L280.759 69.7358C273.033 83.0372 268.744 98.1853 268.355 113.541C268.237 118.222 264.473 121.89 259.788 121.89H220.595C215.544 121.89 211.303 118.271 210.509 113.286C208.579 101.158 204.718 89.471 199.036 78.5496C190.813 69.9005 186.285 58.7606 186.285 47.172C186.285 21.161 208.848 0 236.581 0ZM279.54 69.0908L279.866 68.5044C283.551 61.9664 285.499 54.5897 285.499 47.172C285.499 21.9209 263.554 1.37728 236.581 1.37728C209.608 1.37728 187.663 21.9209 187.663 47.172C187.663 58.4371 192.08 69.2677 200.1 77.67L200.212 77.8273C205.989 88.9048 209.911 100.762 211.87 113.07C212.556 117.382 216.226 120.512 220.595 120.512H259.788C263.72 120.512 266.878 117.435 266.977 113.506C267.372 97.9385 271.715 82.5812 279.54 69.0908Z" fill="#4A9396"/>
<path d="M265.21 118.447H213.464C211.818 118.447 210.528 119.859 210.677 121.496L211.162 126.823C211.567 131.281 212.975 135.59 215.279 139.429C215.664 140.07 216.392 140.422 217.135 140.332C232.469 138.485 247.472 138.425 262.115 140.306C262.916 140.408 263.693 139.999 264.055 139.277L264.386 138.614C266.045 135.298 267.069 131.702 267.404 128.01L267.997 121.496C268.146 119.859 266.856 118.447 265.21 118.447Z" fill="#4A9396"/>
<path d="M218.668 136.696H261.04V164.26C261.04 169.191 257.035 173.194 252.102 173.194H227.605C222.672 173.194 218.668 169.191 218.668 164.26V136.696Z" fill="#4A9396"/>
<path d="M245.306 180.424H236.124C235.114 180.424 234.166 179.937 233.579 179.115L227.624 170.783H253.806L247.851 179.115C247.264 179.937 246.316 180.424 245.306 180.424Z" fill="#4A9396"/>
<path d="M252.254 24.3273C245.512 25.7226 238.771 27.1179 232.029 28.5131C228.997 29.1406 225.602 29.4662 222.848 30.9721C220.177 32.4321 218.307 35.4954 219.262 38.562C220.175 41.4904 222.867 43.3275 225.756 43.9805C228.96 44.7051 232.393 44.7 235.659 44.952C239.066 45.2148 242.473 45.4777 245.88 45.7406C247.502 45.8657 249.132 45.952 250.749 46.1185C251.267 46.1718 251.831 46.2352 252.256 46.5633C252.249 46.5583 252.399 46.6523 252.316 46.6667C252.3 46.6695 252.298 46.5604 252.301 46.5531C252.366 46.3488 252.339 46.5421 252.286 46.5426C252.268 46.5428 251.78 46.865 251.508 46.9158C250.773 47.0531 249.963 46.9532 249.219 46.9406C247.601 46.913 245.984 46.9436 244.369 47.0316C241.118 47.2087 237.873 47.6128 234.676 48.2249C231.531 48.827 228.402 49.6287 225.382 50.6965C222.454 51.7319 219.387 53.6981 219.307 57.1671C219.232 60.4253 222.06 62.715 224.94 63.5335C226.422 63.9544 227.983 64.107 229.502 64.3329C231.197 64.585 232.892 64.837 234.587 65.089C237.921 65.5847 241.255 66.0804 244.589 66.5761C246.284 66.8281 247.979 67.0802 249.674 67.3322C250.464 67.4498 251.259 67.5511 252.047 67.6851C252.338 67.7345 252.612 67.8258 252.898 67.8845C252.706 67.8451 252.944 67.8454 252.905 67.8902C253.03 67.9671 253.031 67.9555 252.906 67.8554L252.821 67.7303C252.626 67.1846 252.633 67.1127 252.988 66.4672C253.056 66.344 253.193 66.4712 253.018 66.4518C252.83 66.4311 253.13 66.4284 252.93 66.5107C252.831 66.5519 252.722 66.5799 252.618 66.6086C251.834 66.8257 251.011 66.9391 250.212 67.0959C248.551 67.4218 246.891 67.7478 245.23 68.0737C241.964 68.7148 238.697 69.3556 235.431 69.9968C229.677 71.1264 223.567 72.6541 220.118 77.8431C219.368 78.972 218.824 80.2727 218.552 81.5996C218.328 82.6916 218.869 83.8314 219.996 84.1409C221.018 84.4216 222.313 83.7962 222.538 82.698C223.631 77.3678 229.466 75.4535 234.265 74.4368C237.446 73.7629 240.647 73.1731 243.838 72.5469C247.053 71.9158 250.32 71.4019 253.509 70.6453C254.849 70.3272 256.304 69.5035 256.678 68.075C257.088 66.511 256.316 65.0011 254.898 64.2725C253.537 63.5737 251.92 63.5186 250.434 63.2976C248.795 63.0539 247.157 62.8103 245.518 62.5666C242.184 62.0709 238.851 61.5753 235.517 61.0796C233.878 60.8359 232.24 60.5923 230.601 60.3487C229.082 60.1228 227.521 59.9702 226.039 59.5492C225.037 59.2644 224.011 58.7756 223.569 57.8217C223.426 57.5142 223.389 57.2904 223.487 56.9445C223.621 56.4697 223.993 56.0275 224.407 55.7003C225.361 54.946 226.653 54.6095 227.787 54.2457C229.276 53.7683 230.781 53.3424 232.299 52.9689C235.313 52.2273 238.376 51.6846 241.466 51.3837C243.076 51.227 244.691 51.1274 246.308 51.0855C247.837 51.0458 249.37 51.1405 250.898 51.0932C252.526 51.0428 254.203 50.6076 255.321 49.3458C256.471 48.0473 256.751 46.2741 255.95 44.7174C254.366 41.6369 250.169 41.9396 247.243 41.7138C243.893 41.4554 240.543 41.1969 237.192 40.9384C234.06 40.6967 230.839 40.6458 227.734 40.1639C226.583 39.9855 225.258 39.657 224.391 38.972C223.596 38.344 223.079 37.5207 223.143 36.6957C223.201 35.9283 223.985 35.0806 224.806 34.6096C225.958 33.9487 227.317 33.702 228.603 33.434C235.222 32.0548 241.844 30.6934 248.465 29.3231C250.095 28.9859 251.724 28.6487 253.353 28.3115C254.447 28.0852 255.079 26.7961 254.797 25.7702C254.485 24.6354 253.351 24.1003 252.254 24.3273Z" fill="#F5821F"/>
<path d="M165.373 90.2122H151.834V116.482H165.373V90.2122Z" fill="#FFAFAF"/>
<path d="M187.726 163.414L155.072 161.026C155.072 161.026 141.532 192.072 151.886 211.973L159.054 253.368L156.22 321.501H171.051L194.098 211.973L187.726 163.414Z" fill="#2F2E41"/>
<path d="M181.355 198.185L194.098 209.272L187.726 317.848H173.39L181.355 198.185Z" fill="#2F2E41"/>
<path d="M158.421 95.3772C167.769 95.3772 175.348 87.8023 175.348 78.4581C175.348 69.1139 167.769 61.539 158.421 61.539C149.072 61.539 141.493 69.1139 141.493 78.4581C141.493 87.8023 149.072 95.3772 158.421 95.3772Z" fill="#FFAFAF"/>
<path d="M156.393 305.331L173.879 308.092L177.165 320.63C177.165 320.63 191.363 325.97 184.522 331.773C177.681 337.576 152.408 334.576 150.41 330.413C148.412 326.25 156.393 305.331 156.393 305.331Z" fill="#2F2E41"/>
<path d="M170.729 305.331L188.215 308.092L191.501 320.63C191.501 320.63 205.699 325.97 198.858 331.773C192.017 337.576 166.744 334.576 164.746 330.413C162.748 326.25 170.729 305.331 170.729 305.331Z" fill="#2F2E41"/>
<path d="M219.036 160.721C217.156 160.742 215.299 160.313 213.62 159.469L206.134 159.356L184.062 159.784L173.494 156.334L176.372 148.028L205.37 150.569L213.642 151.113C215.326 150.278 217.186 149.857 219.066 149.888C223.769 149.9 227.575 152.335 227.568 155.326C227.56 158.318 223.741 160.733 219.036 160.721Z" fill="#FFAFAF"/>
<path d="M166.62 100.127H149.863L144.32 116.844L155.072 161.026L187.726 163.414L185.735 145.502C189.59 139.241 189.283 131.273 184.956 125.327L166.62 100.127Z" fill="#DEDEDE"/>
<path d="M150.692 107.292L168.213 104.285L180.957 144.706L208.036 149.483V161.026C208.036 161.424 170.974 164.608 169.992 163.414C169.01 162.22 150.692 107.292 150.692 107.292Z" fill="#DEDEDE"/>
<path d="M166.873 68.6488C168.952 72.0207 167.035 76.4619 164.473 79.4841C161.912 82.5064 158.609 85.1592 157.465 88.9516C156.439 92.3519 157.372 96.0189 158.578 99.3595C159.784 102.7 161.284 106.031 161.408 109.58C161.532 113.129 159.852 117.048 156.507 118.247C153.075 119.476 149.017 117.544 145.711 119.081C141.405 121.083 140.429 128.014 135.735 128.732C132.846 129.175 130.168 126.671 129.361 123.864C128.553 121.056 129.133 118.059 129.717 115.197C131.316 107.354 132.915 99.5115 134.514 91.6688C135.845 85.1432 137.176 78.6176 138.506 72.0921C139.301 68.1959 140.243 64.0284 143.173 61.3384C146.753 58.0513 152.148 57.9732 157.006 58.1702C161.468 58.3512 166.111 58.6563 169.996 60.8585C173.881 63.0607 176.734 67.7417 175.39 71.9986C174.134 69.0025 170.383 67.3217 167.31 68.3784" fill="#2F2E41"/>
</g>
<defs>
<clipPath id="clip0_5_113">
<rect width="350" height="335" fill="white"/>
</clipPath>
</defs>
</svg>
