<svg width="356" height="332" viewBox="0 0 356 332" fill="none" xmlns="http://www.w3.org/2000/svg">
<g clip-path="url(#clip0_50_903)">
<path d="M329.088 253.99L345.058 256.478C350.464 249.952 354.191 242.208 355.914 233.92C344.236 243.451 326.477 238.386 312.317 243.59C307.913 245.247 303.94 247.87 300.691 251.267C297.442 254.663 295.001 258.744 293.55 263.209L285.745 271.582C292.81 274.371 300.397 275.599 307.984 275.183C315.571 274.766 322.977 272.715 329.693 269.169C333.44 267.143 336.917 264.654 340.041 261.762C334.453 258.253 329.088 253.99 329.088 253.99Z" fill="#F2F2F2"/>
<path d="M323.418 228.522L338.825 223.647C340.745 215.402 340.617 206.814 338.452 198.629C332.263 212.353 314.103 215.717 303.756 226.671C300.556 230.112 298.173 234.228 296.784 238.712C295.395 243.197 295.036 247.935 295.734 252.577L292.493 263.542C300.064 262.896 307.404 260.621 314.009 256.875C320.613 253.128 326.324 247.998 330.749 241.839C333.197 238.359 335.196 234.585 336.698 230.607C330.127 229.952 323.418 228.522 323.418 228.522Z" fill="#F2F2F2"/>
<path d="M356 276.654C356 276.736 355.984 276.818 355.953 276.894C355.921 276.969 355.875 277.039 355.817 277.097C355.759 277.155 355.689 277.201 355.613 277.232C355.537 277.263 355.455 277.279 355.373 277.279H0.626994C0.460705 277.279 0.301225 277.213 0.183641 277.096C0.0660571 276.979 0 276.82 0 276.654C0 276.488 0.0660571 276.329 0.183641 276.212C0.301225 276.095 0.460705 276.029 0.626994 276.029H355.373C355.455 276.029 355.537 276.045 355.613 276.076C355.689 276.107 355.759 276.153 355.817 276.211C355.875 276.269 355.921 276.339 355.953 276.414C355.984 276.49 356 276.572 356 276.654Z" fill="#CCCCCC"/>
<path d="M147 250.001C209.562 250.001 260.28 199.431 260.28 137.049C260.28 74.6668 209.562 24.0962 147 24.0962C84.4366 24.0962 33.7194 74.6668 33.7194 137.049C33.7194 199.431 84.4366 250.001 147 250.001Z" fill="#E6E6E6"/>
<path d="M244.473 137.049C244.485 152.214 240.932 167.171 234.099 180.721C227.267 194.27 217.346 206.034 205.131 215.07C204.314 215.679 203.482 216.273 202.644 216.851C186.309 228.172 166.893 234.24 147 234.24C127.107 234.24 107.69 228.172 91.3553 216.851C90.5176 216.273 89.6851 215.679 88.8684 215.07C76.6618 206.026 66.7465 194.26 59.9152 180.713C53.0839 167.165 49.526 152.212 49.526 137.049C49.526 121.885 53.0839 106.932 59.9152 93.3845C66.7465 79.8371 76.6618 68.0712 88.8684 59.0273C89.6851 58.4179 90.5176 57.8243 91.3553 57.2464C107.69 45.9249 127.107 39.8569 147 39.8569C166.893 39.8569 186.309 45.9249 202.644 57.2464C203.482 57.8243 204.314 58.4179 205.131 59.0273C217.346 68.0632 227.267 79.8275 234.099 93.3768C240.932 106.926 244.485 121.883 244.473 137.049Z" fill="white"/>
<path d="M147 225.835C196.177 225.835 236.043 186.084 236.043 137.049C236.043 88.0135 196.177 48.2627 147 48.2627C97.8222 48.2627 57.9561 88.0135 57.9561 137.049C57.9561 186.084 97.8222 225.835 147 225.835Z" fill="#4A9396"/>
<path opacity="0.2" d="M147.232 48.511C145.882 48.511 144.54 48.5462 143.205 48.6055C165.711 50.5773 186.623 61.0055 201.705 77.7773C216.787 94.5491 224.911 116.41 224.432 138.932C223.952 161.453 214.905 182.951 199.123 199.07C183.341 215.188 162.004 224.722 139.435 225.74C142.005 225.963 144.604 226.083 147.232 226.083C170.848 226.083 193.496 216.729 210.195 200.078C226.894 183.427 236.275 160.844 236.275 137.297C236.275 113.749 226.894 91.1664 210.195 74.5158C193.496 57.8652 170.848 48.511 147.232 48.511Z" fill="black"/>
<path d="M147.263 41.9585C146.495 41.9598 145.759 42.2647 145.215 42.8063C144.672 43.3479 144.366 44.0821 144.365 44.848V57.4566C144.365 58.223 144.67 58.9579 145.214 59.4998C145.757 60.0417 146.494 60.3461 147.263 60.3461C148.032 60.3461 148.769 60.0417 149.312 59.4998C149.856 58.9579 150.161 58.223 150.161 57.4566V44.848C150.159 44.0821 149.854 43.3479 149.311 42.8063C148.767 42.2647 148.031 41.9598 147.263 41.9585Z" fill="white"/>
<path d="M205.131 59.0273C204.314 58.4179 203.482 57.8242 202.644 57.2464C202.141 57.2137 201.639 57.3123 201.186 57.5325C200.733 57.7527 200.346 58.0869 200.062 58.502L192.944 68.9199C192.511 69.5531 192.349 70.3318 192.492 71.0845C192.636 71.8372 193.073 72.5024 193.708 72.9336C194.343 73.3648 195.124 73.5269 195.879 73.384C196.634 73.2411 197.301 72.8051 197.733 72.1718L204.852 61.7539C205.122 61.3587 205.29 60.9022 205.339 60.426C205.387 59.9498 205.316 59.469 205.131 59.0273Z" fill="white"/>
<path d="M237.471 106.531C237.328 106.179 237.117 105.86 236.85 105.59C236.582 105.32 236.265 105.105 235.914 104.958C235.564 104.81 235.188 104.733 234.808 104.731C234.428 104.729 234.051 104.801 233.698 104.944L221.98 109.688C221.269 109.977 220.702 110.535 220.404 111.241C220.105 111.947 220.1 112.742 220.389 113.451C220.678 114.161 221.238 114.727 221.945 115.025C222.653 115.323 223.45 115.329 224.162 115.041L235.88 110.297C236.591 110.007 237.157 109.448 237.455 108.742C237.754 108.036 237.759 107.241 237.471 106.531Z" fill="white"/>
<path d="M101.055 68.9199L93.9371 58.502C93.6534 58.0869 93.2661 57.7527 92.8133 57.5325C92.3606 57.3123 91.858 57.2137 91.3553 57.2464C90.5176 57.8242 89.6851 58.4179 88.8684 59.0273C88.6833 59.469 88.6119 59.9498 88.6606 60.426C88.7094 60.9022 88.8768 61.3587 89.1477 61.7539L96.2659 72.1718C96.6984 72.8051 97.3655 73.2411 98.1204 73.384C98.8753 73.5269 99.6562 73.3649 100.291 72.9336C100.926 72.5024 101.364 71.8372 101.507 71.0845C101.65 70.3318 101.488 69.5531 101.055 68.9199Z" fill="white"/>
<path d="M72.0186 109.688L60.3007 104.944C59.5888 104.656 58.7912 104.661 58.0833 104.959C57.3755 105.257 56.8153 105.824 56.5261 106.533C56.2369 107.243 56.2422 108.038 56.541 108.744C56.8398 109.45 57.4076 110.009 58.1194 110.297L69.8373 115.041C70.5491 115.329 71.3463 115.323 72.0537 115.025C72.7612 114.727 73.3209 114.161 73.61 113.451C73.8991 112.742 73.8938 111.947 73.5954 111.241C73.297 110.535 72.7299 109.977 72.0186 109.688Z" fill="white"/>
<path d="M147.263 213.751C146.495 213.753 145.759 214.057 145.215 214.599C144.672 215.141 144.366 215.875 144.365 216.641V229.249C144.365 230.016 144.67 230.751 145.214 231.293C145.757 231.834 146.494 232.139 147.263 232.139C148.032 232.139 148.769 231.834 149.312 231.293C149.856 230.751 150.161 230.016 150.161 229.249V216.641C150.159 215.875 149.854 215.141 149.311 214.599C148.767 214.057 148.031 213.753 147.263 213.751Z" fill="white"/>
<path d="M204.852 212.343L197.733 201.925C197.519 201.612 197.245 201.343 196.927 201.135C196.609 200.927 196.253 200.784 195.879 200.713C195.505 200.643 195.121 200.646 194.748 200.723C194.376 200.8 194.022 200.95 193.708 201.164C193.393 201.377 193.124 201.65 192.916 201.968C192.707 202.285 192.563 202.64 192.492 203.013C192.421 203.385 192.425 203.768 192.502 204.14C192.58 204.511 192.73 204.864 192.944 205.177L200.062 215.595C200.346 216.01 200.733 216.345 201.186 216.565C201.639 216.785 202.141 216.884 202.644 216.851C203.482 216.273 204.314 215.679 205.131 215.07C205.316 214.628 205.387 214.147 205.339 213.671C205.29 213.195 205.122 212.739 204.852 212.343Z" fill="white"/>
<path d="M235.88 163.8L224.162 159.056C223.45 158.768 222.652 158.773 221.944 159.071C221.237 159.369 220.676 159.936 220.387 160.645C220.098 161.355 220.103 162.151 220.402 162.856C220.701 163.562 221.269 164.121 221.98 164.409L233.698 169.153C234.41 169.441 235.207 169.435 235.915 169.137C236.622 168.839 237.182 168.273 237.471 167.563C237.76 166.854 237.755 166.059 237.457 165.353C237.158 164.648 236.591 164.089 235.88 163.8Z" fill="white"/>
<path d="M100.291 201.164C99.6561 200.733 98.8752 200.571 98.1204 200.714C97.3656 200.856 96.6985 201.292 96.2659 201.925L89.1477 212.343C88.8768 212.739 88.7094 213.195 88.6606 213.671C88.6119 214.147 88.6833 214.628 88.8684 215.07C89.6851 215.679 90.5176 216.273 91.3553 216.851C91.858 216.884 92.3606 216.785 92.8133 216.565C93.2661 216.345 93.6534 216.01 93.9371 215.595L101.055 205.177C101.269 204.864 101.42 204.511 101.497 204.14C101.575 203.768 101.578 203.385 101.507 203.013C101.436 202.64 101.292 202.285 101.084 201.968C100.875 201.65 100.606 201.377 100.291 201.164Z" fill="white"/>
<path d="M73.6098 160.643C73.4667 160.291 73.2556 159.972 72.9885 159.702C72.7214 159.432 72.4036 159.217 72.0533 159.07C71.7029 158.923 71.3269 158.845 70.9467 158.843C70.5665 158.841 70.1895 158.913 69.8373 159.056L58.1194 163.8C57.4081 164.089 56.841 164.648 56.5426 165.353C56.2442 166.059 56.239 166.854 56.528 167.563C56.8171 168.273 57.3769 168.839 58.0843 169.137C58.7917 169.435 59.5889 169.441 60.3007 169.153L72.0186 164.409C72.7296 164.119 73.2962 163.56 73.5944 162.854C73.8926 162.148 73.8982 161.353 73.6098 160.643Z" fill="white"/>
<path d="M151.023 135.615C151.291 137.194 150.919 138.815 149.99 140.122C149.06 141.428 147.649 142.314 146.066 142.584L94.6427 151.306C93.8583 151.439 93.0553 151.417 92.2795 151.24C91.5037 151.064 90.7704 150.737 90.1213 150.278C89.4723 149.819 88.9203 149.237 88.4968 148.565C88.0734 147.893 87.7867 147.145 87.6533 146.363C87.5199 145.581 87.5423 144.78 87.7192 144.006C87.8961 143.233 88.2241 142.502 88.6844 141.854C89.1447 141.207 89.7284 140.657 90.402 140.235C91.0757 139.812 91.8262 139.527 92.6106 139.394L144.034 130.672C145.618 130.405 147.243 130.776 148.553 131.702C149.864 132.629 150.752 134.036 151.023 135.615Z" fill="#3F3D56"/>
<path d="M205.144 192.423C204.406 193.163 203.402 193.582 202.355 193.586C201.307 193.59 200.3 193.18 199.556 192.445L144.2 137.682C143.457 136.945 143.038 135.945 143.034 134.901C143.03 133.856 143.443 132.853 144.18 132.112C144.918 131.37 145.921 130.951 146.968 130.947C148.016 130.942 149.022 131.352 149.766 132.087L205.122 186.85C205.865 187.587 206.285 188.587 206.289 189.632C206.293 190.677 205.881 191.68 205.144 192.423Z" fill="#3F3D56"/>
<path d="M147 143.878C150.782 143.878 153.849 140.821 153.849 137.049C153.849 133.277 150.782 130.219 147 130.219C143.217 130.219 140.15 133.277 140.15 137.049C140.15 140.821 143.217 143.878 147 143.878Z" fill="#CCCCCC"/>
<path d="M99.8203 18.6212C89.3064 35.103 73.2645 46.0412 53.4809 53.2269C53.09 53.5188 52.6452 53.7311 52.172 53.8517C51.6988 53.9722 51.2064 53.9987 50.7229 53.9295C50.2395 53.8603 49.7744 53.6968 49.3543 53.4484C48.9342 53.2 48.5673 52.8715 48.2745 52.4817C37.5282 38.1749 39.9547 17.7275 54.1375 6.79538C57.5665 4.15697 61.4868 2.22398 65.6711 1.10865C69.8553 -0.00667571 74.2201 -0.282136 78.512 0.29827C82.8039 0.878677 86.9374 2.30339 90.6726 4.48968C94.4077 6.67598 97.6701 9.58032 100.27 13.0341L100.568 13.4298C100.86 13.8196 101.073 14.2631 101.194 14.7349C101.315 15.2068 101.342 15.6978 101.272 16.1798C101.203 16.6619 101.039 17.1256 100.79 17.5445C100.541 17.9634 100.211 18.3292 99.8203 18.6212Z" fill="#E6E6E6"/>
<path d="M193.729 13.0341C196.329 9.58032 199.591 6.67598 203.326 4.48968C207.062 2.30338 211.195 0.878679 215.487 0.298273C219.779 -0.282134 224.144 -0.00668147 228.328 1.10865C232.512 2.22398 236.433 4.15696 239.862 6.79538C254.044 17.7275 256.471 38.1749 245.725 52.4817C245.432 52.8715 245.065 53.2 244.645 53.4484C244.225 53.6968 243.76 53.8603 243.276 53.9295C242.793 53.9987 242.3 53.9722 241.827 53.8517C241.354 53.7311 240.909 53.5188 240.518 53.2269C222.152 46.2158 207.091 34.083 194.179 18.6212C193.389 18.0315 192.867 17.1534 192.727 16.1798C192.587 15.2062 192.84 14.217 193.431 13.4298L193.729 13.0341Z" fill="#E6E6E6"/>
<path d="M189.12 234.907C188.451 235.282 187.958 235.906 187.749 236.644C187.54 237.381 187.633 238.17 188.007 238.839L204.731 268.639C205.106 269.308 205.733 269.8 206.472 270.008C207.212 270.216 208.004 270.123 208.675 269.749C209.345 269.375 209.839 268.75 210.048 268.013C210.257 267.276 210.164 266.486 209.789 265.817L193.064 236.017C192.688 235.349 192.062 234.858 191.322 234.649C190.583 234.441 189.791 234.534 189.12 234.907Z" fill="#E6E6E6"/>
<path d="M100.935 236.017L84.2105 265.817C83.8354 266.486 83.742 267.276 83.951 268.013C84.1599 268.75 84.6539 269.375 85.3245 269.749C85.9951 270.123 86.7873 270.216 87.5269 270.008C88.2664 269.8 88.8928 269.308 89.2682 268.639L105.992 238.839C106.178 238.508 106.297 238.144 106.342 237.767C106.386 237.39 106.356 237.008 106.253 236.643C106.149 236.277 105.975 235.936 105.739 235.638C105.504 235.34 105.211 235.091 104.879 234.906C104.547 234.721 104.181 234.602 103.803 234.558C103.425 234.514 103.042 234.544 102.676 234.647C102.31 234.75 101.968 234.924 101.669 235.159C101.37 235.394 101.121 235.686 100.935 236.017Z" fill="#E6E6E6"/>
<path d="M208.118 276.269C213.065 276.269 217.075 272.271 217.075 267.338C217.075 262.406 213.065 258.407 208.118 258.407C203.171 258.407 199.161 262.406 199.161 267.338C199.161 272.271 203.171 276.269 208.118 276.269Z" fill="#E6E6E6"/>
<path d="M214.441 47.7373C219.388 47.7373 223.398 43.7387 223.398 38.8061C223.398 33.8736 219.388 29.875 214.441 29.875C209.494 29.875 205.484 33.8736 205.484 38.8061C205.484 43.7387 209.494 47.7373 214.441 47.7373Z" fill="#E6E6E6"/>
<path d="M146.473 26.7229C151.419 26.7229 155.43 22.7243 155.43 17.7917C155.43 12.8592 151.419 8.8606 146.473 8.8606C141.526 8.8606 137.516 12.8592 137.516 17.7917C137.516 22.7243 141.526 26.7229 146.473 26.7229Z" fill="#E6E6E6"/>
<path d="M81.6659 46.6867C86.6127 46.6867 90.6229 42.6881 90.6229 37.7556C90.6229 32.8231 86.6127 28.8245 81.6659 28.8245C76.7191 28.8245 72.7089 32.8231 72.7089 37.7556C72.7089 42.6881 76.7191 46.6867 81.6659 46.6867Z" fill="#E6E6E6"/>
<path d="M87.4616 276.269C92.4084 276.269 96.4186 272.271 96.4186 267.338C96.4186 262.406 92.4084 258.407 87.4616 258.407C82.5147 258.407 78.5045 262.406 78.5045 267.338C78.5045 272.271 82.5147 276.269 87.4616 276.269Z" fill="#E6E6E6"/>
<path d="M201.092 187.4C201.445 187.951 201.915 188.418 202.469 188.769C203.023 189.119 203.647 189.344 204.298 189.428C204.948 189.512 205.609 189.453 206.234 189.255C206.859 189.057 207.433 188.724 207.916 188.281L221.971 195.79L221.217 187.562L207.986 181.692C207.185 180.934 206.133 180.495 205.029 180.458C203.925 180.421 202.846 180.79 201.997 181.493C201.147 182.197 200.586 183.186 200.419 184.275C200.252 185.364 200.492 186.475 201.092 187.4Z" fill="#FFB7B7"/>
<path d="M211.333 190.271L216.841 182.69L243.374 195.197L276.393 189.02C278.025 188.715 279.704 188.771 281.312 189.186C282.92 189.601 284.416 190.363 285.695 191.419C286.974 192.476 288.004 193.8 288.712 195.297C289.42 196.795 289.788 198.43 289.792 200.086C289.794 203.076 288.606 205.946 286.489 208.064C284.372 210.183 281.499 211.378 278.5 211.386L240.661 211.456L211.333 190.271Z" fill="#3F3D56"/>
<path d="M202.85 321.205L197.277 318.548L204.932 295.323L213.156 299.245L202.85 321.205Z" fill="#FFB7B7"/>
<path d="M240.209 317.461C239.804 317.714 239.399 317.963 238.989 318.212C238.175 318.71 237.352 319.199 236.529 319.681C236.116 319.922 235.698 320.163 235.285 320.399V320.412L235.26 320.416L235.252 320.42L234.622 320.575L233.717 318.191L233.3 317.094L232.71 315.538L231.63 312.694L225.94 297.715L234.786 295.54L235.117 296.891H235.121L235.285 297.56L238.375 310.057L239.006 312.612L239.026 312.69L239.407 314.216L239.734 315.539L240.099 317.016L240.209 317.461Z" fill="#FFB7B7"/>
<path d="M292.976 264.859C292.415 265.757 291.842 266.651 291.265 267.536C290.192 269.185 289.091 270.81 287.962 272.41C287.962 272.414 287.957 272.414 287.953 272.418C287.294 273.027 286.566 273.557 285.784 273.997C285.751 274.022 285.714 274.038 285.682 274.058C285.106 274.376 284.492 274.621 283.856 274.789C283.627 274.846 283.394 274.903 283.164 274.96C282.337 275.156 281.519 275.324 280.704 275.471C279.255 275.728 277.823 275.911 276.398 276.026C276.284 276.038 276.169 276.046 276.054 276.054C270.197 276.483 264.495 275.793 258.544 274.663C255.605 274.107 252.604 273.442 249.498 272.752C248.482 272.524 247.463 272.299 246.432 272.075C246.354 272.059 246.272 272.038 246.19 272.022C244.717 271.699 243.219 271.381 241.684 271.067C239.752 270.671 237.758 270.287 235.687 269.924L235.834 272.834C235.957 275.073 236.424 277.279 237.218 279.377C238.102 281.956 238.802 283.997 237.324 288.245L236.612 290.302C236.981 291.324 237.108 292.417 236.982 293.495C236.857 294.574 236.482 295.609 235.888 296.518L235.744 296.735L241.684 311.717L242.068 312.689H239.027L235.286 312.693H228.945L219.797 294.392L219.359 293.519V293.474L220.305 258.304C220.317 257.994 220.342 257.68 220.382 257.37C220.549 255.96 220.996 254.597 221.697 253.361C222.397 252.125 223.338 251.04 224.463 250.17C225.542 249.33 226.777 248.711 228.098 248.351C229.418 247.991 230.797 247.896 232.155 248.072L235.286 248.476L241.684 249.301L246.19 249.884L246.28 249.897L259.571 251.611L260.525 247.734L260.701 247.668L266.296 245.623L285.649 238.55L285.698 238.534L286.971 238.069L287.122 238.314C287.167 238.387 287.213 238.461 287.253 238.534C288.512 240.783 289.536 243.155 290.311 245.611C291.614 249.624 292.687 253.708 293.524 257.843C293.561 258.023 293.594 258.186 293.622 258.333L293.635 258.378C293.647 258.447 293.655 258.492 293.659 258.504C294.106 260.357 293.794 262.618 292.976 264.859Z" fill="#2F2E41"/>
<path d="M293.793 251.898C293.731 251.637 293.654 251.372 293.572 251.114C292.922 249.167 292.165 247.257 291.304 245.392C290.338 243.27 289.18 240.997 287.8 238.536C287.133 237.344 286.415 236.105 285.647 234.818C285.262 234.173 284.863 233.516 284.448 232.846C284.432 232.815 284.414 232.785 284.395 232.756L284.276 232.561L265.128 235.115L257.998 236.066L257.572 239.609L257.469 240.487C257.465 240.487 257.465 240.487 257.469 240.491L257.183 242.882V242.886L256.802 246.045L256.77 246.041L246.189 244.674L235.284 243.266L229.427 242.511C228.069 242.335 226.69 242.429 225.37 242.789C224.049 243.15 222.814 243.768 221.736 244.609C220.61 245.479 219.67 246.563 218.969 247.799C218.269 249.036 217.822 250.398 217.655 251.808C217.618 252.094 217.593 252.388 217.581 252.678L212.055 265.734C208.749 273.542 206.643 281.804 205.809 290.239L201.757 303.156L202.334 303.209L210.921 304.005L213.189 304.217L218.183 296.949C218.752 296.12 219.292 295.267 219.795 294.394C220.624 292.967 221.361 291.489 222.002 289.969L232.804 264.338C233.639 264.481 234.466 264.617 235.284 264.746C239.07 265.359 242.705 265.858 246.189 266.244C257.514 267.505 267.322 267.603 276.053 266.534C278.505 266.236 280.875 265.844 283.163 265.359C284.002 265.183 284.83 264.994 285.647 264.791C285.84 264.746 286.028 264.701 286.216 264.653C287.908 264.217 289.463 263.366 290.739 262.177C292.016 260.988 292.973 259.498 293.523 257.845C294.179 255.929 294.273 253.866 293.793 251.898Z" fill="#2F2E41"/>
<path d="M204.63 317.413L198.601 314.531L197.655 314.078L196.145 317.776L185.601 320.09C185.079 320.204 184.608 320.481 184.256 320.881C183.904 321.281 183.689 321.783 183.644 322.313C183.598 322.843 183.723 323.374 184.002 323.828C184.28 324.282 184.697 324.636 185.191 324.837L195.494 329.028L198.764 326.094L197.962 330.032L201.842 331.612L206.095 318.115L204.63 317.413Z" fill="#2F2E41"/>
<path d="M241.683 311.718L242.069 312.689H241.683V311.718Z" fill="#2F2E41"/>
<path d="M239.584 312.896L233.266 315.079L232.275 315.42L233.811 319.108L227.951 328.15C227.661 328.596 227.522 329.124 227.554 329.655C227.586 330.186 227.788 330.693 228.13 331.102C228.471 331.511 228.935 331.8 229.453 331.928C229.972 332.055 230.517 332.014 231.01 331.81L241.289 327.56L241.542 323.18L243.751 326.542L247.623 324.942L241.121 312.367L239.584 312.896Z" fill="#2F2E41"/>
<path d="M292.217 257.811C291.842 257.811 291.473 257.719 291.141 257.545L257.802 240.175L257.417 238.603L256.691 233.627L256.701 233.58L259.872 219.005C259.814 218.88 259.692 218.675 259.555 218.443C258.14 216.051 253.832 208.773 262.053 198.752L276.487 181.972L288.876 181.441L289.017 181.618C292.33 185.764 294.564 190.661 295.52 195.875C296.477 201.089 296.127 206.458 294.502 211.505L293.212 234.735L294.596 239.426C295.404 242.183 295.271 245.13 294.215 247.803L294.533 255.399C294.545 255.71 294.494 256.021 294.384 256.312C294.273 256.604 294.104 256.87 293.888 257.095C293.672 257.32 293.413 257.5 293.126 257.623C292.839 257.746 292.53 257.81 292.217 257.811Z" fill="#3F3D56"/>
<path d="M263.299 276.969C263.863 276.636 264.348 276.184 264.719 275.645C265.089 275.105 265.337 274.491 265.444 273.845C265.55 273.2 265.514 272.539 265.337 271.909C265.16 271.28 264.846 270.696 264.419 270.2L272.434 256.456L264.161 256.921L257.818 269.901C257.03 270.673 256.553 271.706 256.478 272.805C256.403 273.903 256.734 274.991 257.41 275.862C258.085 276.734 259.058 277.327 260.143 277.531C261.229 277.735 262.351 277.535 263.299 276.969Z" fill="#FFB7B7"/>
<path d="M266.533 266.864L259.126 261.112L272.585 235.106L267.542 201.988C267.293 200.351 267.408 198.679 267.879 197.092C268.351 195.504 269.167 194.04 270.27 192.802C271.373 191.564 272.736 190.584 274.262 189.93C275.788 189.277 277.439 188.967 279.099 189.021C282.096 189.123 284.931 190.406 286.981 192.589C289.031 194.772 290.128 197.677 290.033 200.666L288.787 238.375L266.533 266.864Z" fill="#3F3D56"/>
<path d="M268.541 175V162.776C268.538 158.432 270.266 154.265 273.345 151.192C276.423 148.118 280.601 146.39 284.957 146.387C289.314 146.384 293.493 148.107 296.576 151.177C299.658 154.246 301.392 158.411 301.394 162.755V162.776C304.29 168.792 302.478 171.652 301.394 175C301.393 175.583 301.161 176.142 300.747 176.554C300.334 176.966 299.773 177.198 299.189 177.199H270.748C270.163 177.198 269.602 176.967 269.188 176.554C268.775 176.142 268.542 175.583 268.541 175Z" fill="#2F2E41"/>
<path d="M279.582 176.405C286.373 176.405 291.878 170.915 291.878 164.144C291.878 157.373 286.373 151.884 279.582 151.884C272.791 151.884 267.286 157.373 267.286 164.144C267.286 170.915 272.791 176.405 279.582 176.405Z" fill="#FFB7B7"/>
<path d="M292.45 167.358C292.339 167.341 292.227 167.317 292.116 167.3C290.198 166.961 288.28 166.627 286.368 166.282L286.192 161.96L283.875 165.832C278.59 167.581 273.646 166.592 268.994 164.411C267.46 163.685 265.971 162.866 264.537 161.96C264.927 159.57 265.849 157.297 267.234 155.308C268.62 153.318 270.433 151.663 272.543 150.462C272.719 150.363 272.889 150.275 273.065 150.187L273.067 150.187L273.069 150.186L273.07 150.184L273.071 150.182C273.37 150.041 273.675 149.907 273.98 149.784C276.368 148.853 278.971 148.618 281.488 149.104C284.005 149.591 286.332 150.78 288.198 152.533C291.951 156.106 293.641 162.007 292.45 167.358Z" fill="#2F2E41"/>
</g>
<defs>
<clipPath id="clip0_50_903">
<rect width="356" height="332" fill="white"/>
</clipPath>
</defs>
</svg>
