<svg width="353" height="353" viewBox="0 0 353 353" fill="none" xmlns="http://www.w3.org/2000/svg">
<path d="M176.5 345.439C253.332 345.439 315.617 310.056 315.617 266.409C315.617 222.762 253.332 187.379 176.5 187.379C99.6678 187.379 37.3828 222.762 37.3828 266.409C37.3828 310.056 99.6678 345.439 176.5 345.439Z" fill="#F5F5F5"/>
<path d="M234.392 316.238L130.546 256.278C129.633 255.752 128.874 254.994 128.347 254.081C127.819 253.168 127.541 252.132 127.541 251.078C127.541 250.024 127.819 248.988 128.347 248.075C128.874 247.163 129.633 246.405 130.546 245.878L140.79 239.419C142.559 238.4 144.564 237.864 146.604 237.864C148.645 237.864 150.65 238.4 152.418 239.419L256.278 299.386C257.191 299.913 257.95 300.67 258.478 301.583C259.005 302.496 259.283 303.532 259.283 304.586C259.283 305.64 259.005 306.676 258.478 307.589C257.95 308.502 257.191 309.259 256.278 309.786L246.034 316.238C244.265 317.262 242.257 317.801 240.213 317.801C238.169 317.801 236.161 317.262 234.392 316.238Z" fill="#E0E0E0"/>
<path d="M76.495 261.573C88.941 261.573 99.0305 255.779 99.0305 248.632C99.0305 241.485 88.941 235.691 76.495 235.691C64.049 235.691 53.9595 241.485 53.9595 248.632C53.9595 255.779 64.049 261.573 76.495 261.573Z" fill="#E6E6E6"/>
<path d="M271.217 264.538L281.101 270.222C281.101 270.222 276.053 254.358 278.743 238.367C279.76 232.324 281.941 229.323 282.704 227.706C283.466 226.09 289.375 216.1 284.116 211.525C278.856 206.95 266.621 216.149 267.285 240.767C267.586 248.825 268.908 256.813 271.217 264.538Z" fill="#4A9396"/>
<path opacity="0.5" d="M271.217 264.538L281.101 270.222C281.101 270.222 276.053 254.358 278.743 238.367C279.76 232.324 281.941 229.323 282.704 227.706C283.466 226.09 289.375 216.1 284.116 211.525C278.856 206.95 266.621 216.149 267.285 240.767C267.586 248.825 268.908 256.813 271.217 264.538Z" fill="black"/>
<path d="M275.813 267.532C275.741 267.533 275.67 267.512 275.611 267.472C275.551 267.431 275.506 267.373 275.481 267.306C275.446 267.2 271.669 256.878 271.789 240.287C271.909 223.696 280.628 214.688 280.713 214.603C280.745 214.57 280.784 214.544 280.827 214.526C280.87 214.508 280.917 214.499 280.963 214.499C281.01 214.499 281.056 214.508 281.099 214.526C281.142 214.544 281.181 214.57 281.214 214.603C281.247 214.636 281.273 214.675 281.291 214.718C281.309 214.761 281.318 214.807 281.318 214.854C281.318 214.9 281.309 214.946 281.291 214.989C281.273 215.032 281.247 215.071 281.214 215.104C281.129 215.189 272.615 223.929 272.495 240.294C272.375 256.659 276.102 266.967 276.145 267.066C276.177 267.154 276.172 267.251 276.132 267.336C276.093 267.42 276.021 267.486 275.933 267.518C275.894 267.53 275.853 267.534 275.813 267.532Z" fill="white"/>
<path d="M275.34 266.967L288.853 274.733C290.261 275.565 291.931 275.836 293.53 275.492C295.129 275.148 296.539 274.214 297.48 272.876C298.375 271.484 298.752 269.823 298.546 268.181C297.897 261.164 294.847 259.547 298.582 256.419C302.316 253.292 303.291 253.073 303.079 250.065C302.867 247.058 300.813 245.745 299.838 244.559C298.864 243.372 296.167 240.887 298.003 237.216C299.838 233.545 302.345 229.994 298.546 228.37C296.28 227.396 292.503 228.695 290.018 231.392C287.533 234.089 285.485 236.03 283.106 236.68C280.727 237.329 275.771 237.435 275.982 241.537C276.194 245.639 277.282 247.044 276.307 248.872C274.472 252.289 266.487 254.231 275.34 266.967Z" fill="#4A9396"/>
<path d="M282.019 271.146C281.931 271.144 281.847 271.109 281.782 271.05C281.717 270.99 281.676 270.909 281.666 270.822C281.666 270.582 279.59 246.352 296.252 230.227C296.321 230.17 296.408 230.141 296.497 230.147C296.586 230.152 296.67 230.19 296.731 230.255C296.793 230.319 296.828 230.404 296.829 230.493C296.831 230.582 296.799 230.669 296.739 230.735C280.317 246.627 282.351 270.518 282.372 270.758C282.38 270.851 282.351 270.943 282.291 271.014C282.232 271.085 282.147 271.13 282.054 271.139L282.019 271.146Z" fill="white"/>
<path d="M284.694 250.291C284.606 250.291 284.52 250.258 284.454 250.198C284.389 250.138 284.349 250.055 284.341 249.966C284.194 248.089 283.665 246.261 282.787 244.594C281.91 242.928 280.702 241.457 279.237 240.273C279.199 240.246 279.166 240.212 279.141 240.173C279.117 240.133 279.1 240.09 279.092 240.044C279.084 239.998 279.085 239.951 279.096 239.905C279.106 239.86 279.125 239.817 279.152 239.779C279.178 239.741 279.212 239.709 279.251 239.684C279.289 239.659 279.333 239.642 279.378 239.634C279.423 239.626 279.47 239.627 279.515 239.638C279.56 239.648 279.602 239.667 279.64 239.694C281.2 240.932 282.487 242.48 283.418 244.241C284.349 246.002 284.904 247.937 285.047 249.924C285.055 250.018 285.026 250.112 284.965 250.185C284.904 250.258 284.817 250.303 284.723 250.312L284.694 250.291Z" fill="white"/>
<path d="M283.544 254.45C283.458 254.451 283.375 254.42 283.311 254.365C283.241 254.302 283.198 254.215 283.191 254.121C283.184 254.028 283.215 253.935 283.275 253.864C283.445 253.666 287.617 249.063 297.395 250.284C297.488 250.297 297.572 250.345 297.629 250.419C297.686 250.493 297.711 250.587 297.699 250.68C297.687 250.773 297.638 250.857 297.564 250.915C297.491 250.973 297.397 251 297.304 250.99C287.914 249.811 283.84 254.287 283.798 254.33C283.766 254.366 283.727 254.395 283.683 254.415C283.639 254.436 283.592 254.448 283.544 254.45Z" fill="white"/>
<path d="M231.229 309.073L139.901 256.342C133.455 252.621 128.231 242.638 128.231 234.046V38.4843C128.231 29.8923 133.455 25.9457 139.901 29.6663L231.229 82.3975C237.675 86.1181 242.899 96.1009 242.899 104.693V300.255C242.899 308.84 237.675 312.794 231.229 309.073Z" fill="#455A64"/>
<path d="M241.748 76.2481L150.413 23.517C147.66 21.9285 145.132 21.7449 143.134 22.7192C142.89 22.8417 142.654 22.9809 142.428 23.1357L132.191 29.0873C134.253 27.8518 136.95 27.9436 139.908 29.6521L231.236 82.3832C237.682 86.1039 242.906 96.0867 242.906 104.679V300.241C242.906 304.787 241.445 308.007 239.115 309.532L249.218 303.651C251.795 302.281 253.454 298.928 253.454 294.12V98.5577C253.454 89.9516 248.194 79.9687 241.748 76.2481Z" fill="#37474F"/>
<path d="M242.899 104.679V300.241C242.899 304.787 241.438 308.007 239.108 309.532L249.218 303.651C251.795 302.281 253.454 298.927 253.454 294.12V98.5576L242.934 104.665L242.899 104.679Z" fill="#263238"/>
<path d="M253.419 113.73L242.899 119.801V124.546L253.419 118.467V113.73Z" fill="#37474F"/>
<path d="M248.808 145.281C247.869 145.824 247.107 145.245 247.107 143.996V133.794C247.116 133.156 247.275 132.53 247.571 131.965C247.866 131.399 248.29 130.911 248.808 130.539C249.747 129.996 250.51 130.539 250.51 131.824V142.026C250.5 142.664 250.341 143.29 250.046 143.856C249.75 144.421 249.327 144.909 248.808 145.281Z" fill="#37474F"/>
<path d="M247.1 144.024V133.794C247.11 133.156 247.268 132.53 247.564 131.965C247.859 131.399 248.283 130.911 248.801 130.539C248.956 130.431 249.137 130.365 249.325 130.348C249.513 130.33 249.703 130.362 249.875 130.441L248.597 129.784C248.422 129.7 248.228 129.663 248.035 129.678C247.841 129.693 247.655 129.759 247.495 129.869C246.977 130.241 246.552 130.728 246.255 131.294C245.959 131.859 245.798 132.485 245.787 133.123V143.318C245.76 143.576 245.8 143.836 245.901 144.074C246.002 144.312 246.162 144.521 246.366 144.681L247.7 145.387C247.488 145.234 247.32 145.027 247.215 144.787C247.109 144.547 247.07 144.284 247.1 144.024Z" fill="#455A64"/>
<path d="M248.808 169.97C247.869 170.513 247.107 169.97 247.107 168.685V158.483C247.117 157.845 247.276 157.219 247.572 156.654C247.867 156.089 248.291 155.6 248.808 155.228C249.747 154.685 250.51 155.228 250.51 156.52V166.715C250.501 167.353 250.343 167.98 250.047 168.545C249.752 169.111 249.327 169.599 248.808 169.97Z" fill="#37474F"/>
<path d="M247.1 168.685V158.483C247.11 157.845 247.269 157.219 247.565 156.654C247.86 156.089 248.284 155.601 248.801 155.228C248.957 155.122 249.137 155.057 249.325 155.04C249.513 155.022 249.702 155.053 249.874 155.13L248.597 154.466C248.423 154.378 248.228 154.34 248.034 154.354C247.84 154.369 247.654 154.437 247.495 154.551C246.975 154.921 246.55 155.409 246.253 155.974C245.956 156.54 245.797 157.167 245.787 157.805V168.028C245.76 168.286 245.798 168.546 245.9 168.784C246.001 169.023 246.161 169.231 246.366 169.391L247.7 170.097C247.479 169.94 247.306 169.725 247.2 169.476C247.094 169.226 247.059 168.953 247.1 168.685Z" fill="#455A64"/>
<path d="M228.038 87.8831L138.291 36.0486C137.917 35.8331 137.492 35.7193 137.06 35.7185C136.628 35.7177 136.203 35.8299 135.828 36.044C135.452 36.2581 135.14 36.5666 134.92 36.9389C134.701 37.3113 134.583 37.7345 134.578 38.1666V234.046C134.578 240.584 139.216 248.611 144.878 251.88L232.422 302.451C232.837 302.69 233.308 302.815 233.787 302.815C234.266 302.814 234.737 302.688 235.151 302.448C235.566 302.209 235.911 301.864 236.15 301.45C236.39 301.035 236.516 300.565 236.517 300.086V102.589C236.552 97.1952 232.726 90.58 228.038 87.8831Z" fill="#4A9396"/>
<path opacity="0.9" d="M228.038 87.8831L138.291 36.0486C137.917 35.8331 137.492 35.7193 137.06 35.7185C136.628 35.7177 136.203 35.8299 135.828 36.044C135.452 36.2581 135.14 36.5666 134.92 36.9389C134.701 37.3113 134.583 37.7345 134.578 38.1666V234.046C134.578 240.584 139.216 248.611 144.878 251.88L232.422 302.451C232.837 302.69 233.308 302.815 233.787 302.815C234.266 302.814 234.737 302.688 235.151 302.448C235.566 302.209 235.911 301.864 236.15 301.45C236.39 301.035 236.516 300.565 236.517 300.086V102.589C236.552 97.1952 232.726 90.58 228.038 87.8831Z" fill="white"/>
<path d="M165.133 49.5825L166.524 55.4353L196.275 72.5911L201.415 69.8518L165.133 49.5825Z" fill="#455A64"/>
<path d="M173.881 55.2376C173.881 56.2119 173.175 56.6002 172.356 56.1201C171.916 55.8282 171.551 55.4373 171.29 54.9787C171.029 54.5202 170.879 54.0067 170.852 53.4797C170.852 52.5125 171.558 52.1171 172.377 52.6042C172.816 52.8946 173.181 53.2842 173.443 53.7417C173.704 54.1991 173.854 54.7115 173.881 55.2376Z" fill="#263238"/>
<path d="M193.924 67.628C193.761 67.6266 193.601 67.5854 193.458 67.5079L178.265 59.0359C178.05 58.91 177.894 58.7051 177.828 58.4651C177.763 58.2251 177.793 57.969 177.914 57.7515C178.035 57.534 178.236 57.3723 178.474 57.301C178.713 57.2297 178.969 57.2544 179.19 57.3698L194.39 65.8418C194.575 65.9445 194.72 66.1057 194.803 66.3C194.886 66.4944 194.903 66.7109 194.849 66.9154C194.796 67.12 194.676 67.301 194.508 67.43C194.341 67.559 194.135 67.6286 193.924 67.628Z" fill="#263238"/>
<path d="M153.4 76.8128C152.475 76.2763 151.804 76.7422 151.804 77.9213C151.804 78.5109 151.95 79.0913 152.228 79.6111C152.506 80.1308 152.909 80.5738 153.4 80.9006C153.662 81.0601 153.964 81.1445 154.272 81.1445C154.579 81.1445 154.881 81.0601 155.143 80.9006L156.619 83.5693C156.1 83.8557 155.511 83.9922 154.919 83.9635C154.327 83.9348 153.754 83.7421 153.265 83.4069C152.067 82.6735 151.067 81.6559 150.356 80.4442C149.644 79.2325 149.242 77.864 149.185 76.4598C149.185 73.8406 150.943 72.9298 153.364 74.3418C154.732 75.2224 155.852 76.4374 156.619 77.8718L155.143 79.0438C154.78 78.1532 154.176 77.381 153.4 76.8128Z" fill="#4A9396"/>
<path d="M165.112 85.6591C165.112 88.2996 163.326 89.1891 160.876 87.7771C159.643 87.0403 158.611 86.0103 157.872 84.7786C157.133 83.547 156.71 82.1518 156.64 80.7171C156.64 78.0767 158.426 77.1872 160.876 78.5992C162.112 79.3326 163.146 80.3619 163.886 81.5942C164.625 82.8266 165.047 84.2235 165.112 85.6591ZM159.259 82.2915C159.272 82.8977 159.428 83.4923 159.715 84.0262C160.002 84.5602 160.412 85.0182 160.911 85.3626C161.787 85.871 162.493 85.3626 162.493 84.1624C162.49 83.5699 162.346 82.9867 162.07 82.462C161.795 81.9373 161.398 81.4865 160.911 81.1478C160.022 80.6324 159.259 81.0701 159.259 82.2915Z" fill="#4A9396"/>
<path d="M167.957 82.8564L171.007 89.2104V84.6355L173.316 85.9698V94.8725L171.198 93.644L168.162 87.3465V91.8932L165.839 90.5518V81.6279L167.957 82.8564Z" fill="#4A9396"/>
<path d="M180.863 90.3045V92.6343L178.66 91.3635V97.9435L176.112 96.4679V89.888L173.923 88.6243V86.3015L180.863 90.3045Z" fill="#4A9396"/>
<path d="M185.833 100.824L182.939 99.1508L182.543 100.182L179.931 98.6707L183.186 91.646L185.805 93.1568L188.94 103.874L186.222 102.307L185.833 100.824ZM185.205 98.353L184.414 95.3101L183.602 97.4281L185.205 98.353Z" fill="#4A9396"/>
<path d="M192.985 99.6661C192.06 99.1366 191.39 99.5955 191.39 100.782C191.391 101.371 191.537 101.951 191.815 102.471C192.093 102.99 192.495 103.433 192.985 103.761C193.25 103.919 193.552 104.002 193.861 104.002C194.169 104.002 194.471 103.919 194.736 103.761L196.212 106.43C195.69 106.713 195.101 106.847 194.508 106.819C193.916 106.79 193.343 106.599 192.851 106.267C191.651 105.533 190.651 104.514 189.939 103.301C189.228 102.088 188.826 100.718 188.77 99.3131C188.77 96.6938 190.535 95.7831 192.95 97.1951C194.316 98.08 195.437 99.2938 196.212 100.725L194.736 101.89C194.364 101.004 193.759 100.236 192.985 99.6661Z" fill="#4A9396"/>
<path d="M203.173 103.189V105.512L200.97 104.241V110.842L198.421 109.367V102.787L196.233 101.523V99.2002L203.173 103.189Z" fill="#4A9396"/>
<path d="M210.706 114.118C211.334 114.478 211.814 114.196 211.814 113.313V108.181L214.37 109.649V114.782C214.37 117.147 212.958 117.853 210.699 116.561C209.61 115.956 208.695 115.083 208.041 114.023C207.387 112.964 207.016 111.754 206.964 110.51V105.378L209.52 106.853V111.986C209.529 112.411 209.643 112.827 209.849 113.198C210.056 113.57 210.35 113.885 210.706 114.118Z" fill="#4A9396"/>
<path d="M218.486 114.146C218.196 113.984 218.013 113.977 218.013 114.245C218.013 115.36 222.002 116.97 222.002 120.196C222.002 122.173 220.498 122.18 218.761 121.178C217.234 120.242 215.919 118.999 214.899 117.528L215.845 115.862C216.621 117.064 217.618 118.108 218.782 118.94C219.156 119.159 219.396 119.159 219.396 118.841C219.396 117.683 215.4 116.144 215.4 113.016C215.4 111.237 216.699 110.898 218.704 112.028C219.996 112.809 221.133 113.822 222.058 115.014L221.133 116.723C220.369 115.75 219.479 114.883 218.486 114.146Z" fill="#4A9396"/>
<path d="M140.557 120.684C143.422 117.165 144.864 112.701 144.599 108.172C144.334 103.643 142.381 99.3776 139.125 96.2176C135.87 93.0577 131.548 91.2326 127.013 91.1024C122.478 90.9723 118.059 92.5466 114.627 95.5147C111.196 98.4828 109.002 102.629 108.477 107.136C107.953 111.642 109.136 116.182 111.794 119.858C114.452 123.535 118.392 126.082 122.836 126.997C127.28 127.912 131.905 127.128 135.799 124.8L144.638 128.64L140.557 120.684Z" fill="#4A9396"/>
<path opacity="0.4" d="M140.557 120.684C143.422 117.165 144.864 112.701 144.599 108.172C144.334 103.643 142.381 99.3776 139.125 96.2176C135.87 93.0577 131.548 91.2326 127.013 91.1024C122.478 90.9723 118.059 92.5466 114.627 95.5147C111.196 98.4828 109.002 102.629 108.477 107.136C107.953 111.642 109.136 116.182 111.794 119.858C114.452 123.535 118.392 126.082 122.836 126.997C127.28 127.912 131.905 127.128 135.799 124.8L144.638 128.64L140.557 120.684Z" fill="black"/>
<path d="M119.773 108.258C119.773 107.983 119.575 107.827 119.215 107.827C118.38 107.937 117.6 108.305 116.984 108.879L115.981 106.931C117.037 106.137 118.311 105.688 119.631 105.646C121.326 105.646 122.611 106.535 122.611 107.863C122.611 108.809 121.905 109.719 121.001 110.63L119.737 111.88H122.724V113.955H116.306V112.254L119.166 109.296C119.473 109.023 119.686 108.66 119.773 108.258Z" fill="white"/>
<path d="M127.948 105.766L126 110.44H126.797V108.865H129.254V110.44H130.186V112.367H129.254V113.955H126.797V112.367H123.303V110.616L125.421 105.766H127.948Z" fill="white"/>
<path d="M137.769 109.882V113.955H135.142V110.637C135.157 110.529 135.149 110.419 135.118 110.314C135.087 110.21 135.034 110.113 134.962 110.031C134.891 109.949 134.802 109.883 134.703 109.837C134.604 109.792 134.496 109.769 134.387 109.769C133.871 109.769 133.547 110.171 133.547 110.792V113.955H130.92V105.3H133.547V108.484C133.752 108.159 134.039 107.893 134.378 107.713C134.717 107.532 135.097 107.443 135.481 107.453C135.796 107.445 136.109 107.503 136.4 107.625C136.69 107.746 136.952 107.927 137.168 108.156C137.384 108.385 137.549 108.657 137.652 108.955C137.756 109.252 137.796 109.568 137.769 109.882Z" fill="white"/>
<path d="M223.406 175.483V263.204C223.408 264.196 223.148 265.171 222.653 266.031C222.158 266.891 221.445 267.605 220.586 268.101C219.727 268.598 218.753 268.86 217.761 268.86C216.768 268.861 215.794 268.6 214.934 268.104L167.689 240.824L159.316 235.995C156.432 234.328 154.037 231.933 152.37 229.05C150.702 226.167 149.821 222.897 149.813 219.566V131.838C149.812 130.846 150.071 129.871 150.567 129.012C151.062 128.152 151.775 127.438 152.633 126.941C153.492 126.444 154.467 126.182 155.459 126.182C156.451 126.182 157.426 126.443 158.285 126.939L213.918 159.055C216.802 160.719 219.198 163.114 220.863 165.998C222.529 168.882 223.406 172.153 223.406 175.483Z" fill="#4A9396"/>
<path opacity="0.5" d="M223.406 175.483V263.204C223.408 264.196 223.148 265.171 222.653 266.031C222.158 266.891 221.445 267.605 220.586 268.101C219.727 268.598 218.753 268.86 217.761 268.86C216.768 268.861 215.794 268.6 214.934 268.104L167.689 240.824L159.316 235.995C156.432 234.328 154.037 231.933 152.37 229.05C150.702 226.167 149.821 222.897 149.813 219.566V131.838C149.812 130.846 150.071 129.871 150.567 129.012C151.062 128.152 151.775 127.438 152.633 126.941C153.492 126.444 154.467 126.182 155.459 126.182C156.451 126.182 157.426 126.443 158.285 126.939L213.918 159.055C216.802 160.719 219.198 163.114 220.863 165.998C222.529 168.882 223.406 172.153 223.406 175.483Z" fill="white"/>
<path d="M196.19 227.388C196.19 227.388 205.036 242.059 198.647 258.601L167.668 240.824L196.19 227.388Z" fill="#263238"/>
<path d="M210.298 161.474C210.967 156.037 207.102 151.087 201.665 150.417C196.228 149.748 191.278 153.613 190.608 159.05C189.939 164.487 193.803 169.438 199.241 170.107C204.678 170.777 209.628 166.912 210.298 161.474Z" fill="#263238"/>
<path d="M200.504 132.439C200.504 132.439 203.547 127.497 204.479 127.857C205.411 128.217 203.872 132.926 203.872 132.926C203.872 132.926 208.475 133.886 207.62 135.044C206.766 136.202 201.139 135.926 201.139 135.926L200.504 132.439Z" fill="#263238"/>
<path d="M202.622 145.175C200.504 161.088 187.09 161.088 187.09 161.088L158.991 148.719C158.991 148.719 156.873 146.862 156.224 142.598C155.974 140.851 155.974 139.078 156.224 137.331C156.224 137.331 156.224 137.296 156.224 137.282C157.12 130.589 162.126 123.395 173.026 121.185C175.415 120.702 177.847 120.466 180.284 120.479C181.463 120.475 182.641 120.534 183.814 120.655C192.286 121.488 198.223 125.442 201.055 131.591C201.691 132.979 202.165 134.436 202.467 135.933C203.041 138.983 203.094 142.108 202.622 145.175Z" fill="#263238"/>
<path d="M135.164 175.956C135.164 175.956 125.188 175.61 121.347 185.332C121.347 185.332 125.583 188.191 131.139 185.332C136.696 182.473 135.164 175.956 135.164 175.956Z" fill="#4A9396"/>
<path opacity="0.5" d="M135.164 175.956C135.164 175.956 125.188 175.61 121.347 185.332C121.347 185.332 125.583 188.191 131.139 185.332C136.696 182.473 135.164 175.956 135.164 175.956Z" fill="black"/>
<path d="M134.881 180.637C134.881 180.637 132.057 168.367 130.568 168.219C129.078 168.07 128.788 171.96 128.908 174.156L125.378 166.56C125.266 166.323 125.107 166.113 124.911 165.941C124.714 165.768 124.485 165.638 124.236 165.558C123.987 165.478 123.725 165.45 123.465 165.475C123.205 165.501 122.953 165.579 122.724 165.705C119.194 167.647 113.002 173.549 126.056 188.142L134.881 180.637Z" fill="#945959"/>
<path d="M171.028 172.151L168.91 171.876C166.776 171.593 164.604 171.883 162.619 172.717C160.634 173.551 158.907 174.898 157.614 176.62L145.012 193.395L135.128 175.956C135.128 175.956 133.942 187.817 121.312 185.332L134.874 208.157C135.732 209.602 136.927 210.818 138.356 211.702C139.786 212.587 141.407 213.112 143.084 213.235C144.76 213.358 146.441 213.074 147.984 212.407C149.527 211.741 150.886 210.711 151.945 209.407L163.552 195.138L171.028 172.151Z" fill="#4A9396"/>
<path d="M197.927 211.299C195.103 218.458 194.792 219.855 196.515 223.435C197.715 226.079 198.66 228.83 199.339 231.653C199.339 231.653 186.25 246.323 167.618 240.831L159.245 236.002C157.504 234.997 155.936 233.72 154.6 232.218L157.149 213.212C157.277 212.212 157.175 211.195 156.852 210.24L154.176 202.396C152.871 198.565 152.676 194.443 153.616 190.506C154.555 186.569 156.59 182.979 159.485 180.15L168.48 171.36L192.103 174.382L195.633 175.392C197.944 176.06 199.936 177.54 201.243 179.559C202.55 181.579 203.085 184.002 202.749 186.384C201.591 194.715 199.699 206.802 197.927 211.299Z" fill="#4A9396"/>
<path opacity="0.5" d="M197.927 211.299C195.103 218.458 194.792 219.855 196.515 223.435C197.715 226.079 198.66 228.83 199.339 231.653C199.339 231.653 186.25 246.323 167.618 240.831L159.245 236.002C157.504 234.997 155.936 233.72 154.6 232.218L157.149 213.212C157.277 212.212 157.175 211.195 156.852 210.24L154.176 202.396C152.871 198.565 152.676 194.443 153.616 190.506C154.555 186.569 156.59 182.979 159.485 180.15L168.48 171.36L192.103 174.382L195.633 175.392C197.944 176.06 199.936 177.54 201.243 179.559C202.55 181.579 203.085 184.002 202.749 186.384C201.591 194.715 199.699 206.802 197.927 211.299Z" fill="black"/>
<path d="M183.68 189.914L178.95 185.883C178.449 185.454 177.845 185.164 177.197 185.04C176.55 184.916 175.881 184.963 175.257 185.177L169.539 187.146L168.769 183.941C168.649 183.442 168.429 182.973 168.123 182.562C167.817 182.15 167.43 181.805 166.987 181.547C166.543 181.289 166.052 181.124 165.543 181.061C165.034 180.998 164.518 181.039 164.025 181.181L161.547 181.887L165.741 173.852C167.11 171.236 169.219 169.08 171.805 167.654L173.45 166.75L187.041 167.456C187.041 167.456 192.103 169.574 192.103 174.34L183.68 189.872" fill="#4A9396"/>
<path d="M187.097 173.478L173.471 184.096V150.286H187.097V173.478Z" fill="#945959"/>
<path d="M173.683 170.69L169.539 187.175L187.041 173.478L173.683 170.69Z" fill="#945959"/>
<path d="M173.471 168.24C176.501 167.115 179.271 165.386 181.612 163.157C183.953 160.929 185.817 158.248 187.09 155.278V150.286H173.464L173.471 168.24Z" fill="#703838"/>
<path d="M176.408 125.23C171.24 125.23 160.255 128.111 158.984 141.638C157.713 155.165 158.942 165.642 165.917 166.658C172.892 167.675 189.102 162.613 191.276 145.104C193.451 127.595 181.442 125.23 176.408 125.23Z" fill="#945959"/>
<path d="M168.275 147.363V155.334L163.601 153.901L168.275 147.363Z" fill="#703838"/>
<path d="M173.471 150.364C174.368 150.364 175.095 149.637 175.095 148.74C175.095 147.843 174.368 147.116 173.471 147.116C172.574 147.116 171.847 147.843 171.847 148.74C171.847 149.637 172.574 150.364 173.471 150.364Z" fill="#263238"/>
<path d="M164.406 147.61C164.405 147.931 164.308 148.244 164.129 148.511C163.95 148.777 163.696 148.984 163.399 149.106C163.102 149.227 162.776 149.258 162.461 149.195C162.147 149.132 161.858 148.976 161.632 148.749C161.405 148.522 161.251 148.232 161.189 147.917C161.127 147.603 161.16 147.277 161.283 146.98C161.406 146.684 161.614 146.431 161.881 146.253C162.148 146.075 162.461 145.979 162.782 145.979C162.996 145.979 163.208 146.022 163.405 146.104C163.603 146.186 163.782 146.306 163.933 146.458C164.084 146.609 164.203 146.789 164.284 146.987C164.366 147.185 164.407 147.397 164.406 147.61Z" fill="#263238"/>
<path d="M160.799 144.222L163.976 142.337C163.976 142.337 162.761 141.073 161.547 141.828C160.333 142.584 160.799 144.222 160.799 144.222Z" fill="#263238"/>
<path d="M166.079 158.567C167.627 158.68 169.166 158.267 170.449 157.396C170.449 157.396 170.753 159.704 168.819 160.142C166.884 160.58 166.079 158.567 166.079 158.567Z" fill="#703838"/>
<path d="M163.305 129.833C163.305 129.833 165.246 148.507 190.641 149.093C190.641 149.093 198.315 130.532 183.15 124.503C167.985 118.474 163.305 129.833 163.305 129.833Z" fill="#263238"/>
<path d="M198.118 146.297L194.997 144.49C193.811 143.784 192.173 143.883 190.359 144.928C186.758 147.003 183.835 152.065 183.835 156.224C183.835 158.306 184.541 159.754 185.756 160.46L188.82 162.225L188.996 162.323L189.102 162.387C190.26 162.952 191.806 162.818 193.507 161.836C197.108 159.718 200.031 154.699 200.031 150.54C200.01 148.436 199.282 146.982 198.118 146.297Z" fill="#4A9396"/>
<path d="M198.093 156.931C200.639 152.521 200.639 147.754 198.093 146.285C195.547 144.815 191.419 147.198 188.873 151.608C186.327 156.018 186.327 160.785 188.873 162.255C191.419 163.725 195.547 161.341 198.093 156.931Z" fill="#4A9396"/>
<path opacity="0.5" d="M198.093 156.931C200.639 152.521 200.639 147.754 198.093 146.285C195.547 144.815 191.419 147.198 188.873 151.608C186.327 156.018 186.327 160.785 188.873 162.255C191.419 163.725 195.547 161.341 198.093 156.931Z" fill="black"/>
<path d="M199.367 150.216L197.249 148.98C196.444 148.5 195.322 148.564 194.079 149.277C192.781 150.125 191.701 151.267 190.926 152.61C190.151 153.953 189.703 155.459 189.617 157.007C189.617 158.419 190.119 159.429 190.931 159.895L193.049 161.102C193.086 161.13 193.126 161.153 193.169 161.173L193.239 161.215C193.736 161.403 194.271 161.467 194.798 161.401C195.324 161.334 195.827 161.14 196.261 160.834C197.558 159.986 198.638 158.846 199.413 157.504C200.188 156.162 200.637 154.657 200.723 153.11C200.666 151.677 200.172 150.682 199.367 150.216Z" fill="#4A9396"/>
<path d="M200.666 153.096C200.58 154.643 200.131 156.148 199.356 157.49C198.581 158.831 197.501 159.972 196.204 160.82C193.733 162.232 191.735 161.088 191.735 158.243C191.819 156.694 192.268 155.188 193.044 153.845C193.821 152.503 194.904 151.363 196.204 150.519C198.668 149.093 200.666 150.244 200.666 153.096Z" fill="#4A9396"/>
<path opacity="0.3" d="M200.666 153.096C200.58 154.643 200.131 156.148 199.356 157.49C198.581 158.831 197.501 159.972 196.204 160.82C193.733 162.232 191.735 161.088 191.735 158.243C191.819 156.694 192.268 155.188 193.044 153.845C193.821 152.503 194.904 151.363 196.204 150.519C198.668 149.093 200.666 150.244 200.666 153.096Z" fill="black"/>
<path d="M188.424 121.587C186.4 120.024 183.921 119.164 181.364 119.137H180.736C178.146 119.11 175.561 119.346 173.019 119.843C173.485 119.843 173.951 119.843 174.431 119.843H173.019V121.157H174.332C178.858 121.311 183.147 123.218 186.291 126.476C189.436 129.734 191.191 134.088 191.185 138.616V144.172C191.184 144.392 191.23 144.609 191.32 144.81C191.409 145.011 191.539 145.19 191.702 145.337C191.865 145.485 192.057 145.596 192.266 145.664C192.475 145.732 192.696 145.755 192.914 145.732H193.077L194.489 145.295C194.395 145.324 194.298 145.343 194.199 145.351C194.62 145.294 195.005 145.084 195.281 144.761C195.558 144.438 195.705 144.025 195.696 143.6V138.447C195.682 129.12 191.651 124.108 188.424 121.587Z" fill="#4A9396"/>
<path d="M179.536 166.27C178.953 166.27 178.378 166.145 177.848 165.903L173.436 163.863C173.367 163.838 173.304 163.799 173.25 163.749C173.197 163.699 173.155 163.638 173.126 163.57C173.098 163.503 173.084 163.43 173.085 163.357C173.086 163.283 173.102 163.211 173.132 163.144C173.163 163.078 173.207 163.018 173.261 162.969C173.316 162.92 173.38 162.883 173.45 162.861C173.519 162.838 173.593 162.83 173.666 162.837C173.739 162.844 173.81 162.867 173.873 162.903L178.286 164.943C178.849 165.205 179.479 165.284 180.089 165.17C180.699 165.056 181.259 164.755 181.689 164.307L185.925 159.93C186.024 159.831 186.159 159.775 186.299 159.775C186.439 159.775 186.574 159.831 186.673 159.93C186.771 160.03 186.825 160.165 186.825 160.304C186.825 160.444 186.771 160.578 186.673 160.679L182.437 165.056C182.06 165.443 181.609 165.75 181.11 165.959C180.612 166.167 180.076 166.273 179.536 166.27Z" fill="#4A9396"/>
<path opacity="0.5" d="M179.536 166.27C178.953 166.27 178.378 166.145 177.848 165.903L173.436 163.863C173.367 163.838 173.304 163.799 173.25 163.749C173.197 163.699 173.155 163.638 173.126 163.57C173.098 163.503 173.084 163.43 173.085 163.357C173.086 163.283 173.102 163.211 173.132 163.144C173.163 163.078 173.207 163.018 173.261 162.969C173.316 162.92 173.38 162.883 173.45 162.861C173.519 162.838 173.593 162.83 173.666 162.837C173.739 162.844 173.81 162.867 173.873 162.903L178.286 164.943C178.849 165.205 179.479 165.284 180.089 165.17C180.699 165.056 181.259 164.755 181.689 164.307L185.925 159.93C186.024 159.831 186.159 159.775 186.299 159.775C186.439 159.775 186.574 159.831 186.673 159.93C186.771 160.03 186.825 160.165 186.825 160.304C186.825 160.444 186.771 160.578 186.673 160.679L182.437 165.056C182.06 165.443 181.609 165.75 181.11 165.959C180.612 166.167 180.076 166.273 179.536 166.27Z" fill="black"/>
<path d="M174.594 162.38C174.594 162.788 174.473 163.186 174.246 163.525C174.02 163.864 173.698 164.128 173.321 164.284C172.944 164.441 172.53 164.481 172.13 164.402C171.73 164.322 171.363 164.126 171.075 163.838C170.786 163.549 170.59 163.182 170.51 162.782C170.431 162.382 170.472 161.968 170.628 161.591C170.784 161.214 171.048 160.892 171.387 160.666C171.726 160.439 172.124 160.318 172.532 160.318C173.079 160.318 173.603 160.536 173.99 160.922C174.377 161.309 174.594 161.833 174.594 162.38Z" fill="#4A9396"/>
<path opacity="0.5" d="M174.594 162.38C174.594 162.788 174.473 163.186 174.246 163.525C174.02 163.864 173.698 164.128 173.321 164.284C172.944 164.441 172.53 164.481 172.13 164.402C171.73 164.322 171.363 164.126 171.075 163.838C170.786 163.549 170.59 163.182 170.51 162.782C170.431 162.382 170.472 161.968 170.628 161.591C170.784 161.214 171.048 160.892 171.387 160.666C171.726 160.439 172.124 160.318 172.532 160.318C173.079 160.318 173.603 160.536 173.99 160.922C174.377 161.309 174.594 161.833 174.594 162.38Z" fill="black"/>
<path d="M195.682 138.447V143.6C195.691 144.025 195.543 144.438 195.267 144.761C194.991 145.084 194.606 145.294 194.185 145.351C193.953 145.376 193.717 145.352 193.495 145.28C193.272 145.207 193.068 145.089 192.894 144.933C192.72 144.776 192.581 144.585 192.486 144.371C192.391 144.157 192.342 143.926 192.343 143.692V138.447C192.347 135.943 191.844 133.465 190.865 131.16C189.886 128.856 188.452 126.774 186.647 125.039C184.842 123.303 182.706 121.951 180.365 121.063C178.024 120.175 175.528 119.77 173.026 119.872C175.568 119.374 178.153 119.138 180.743 119.166H181.357C183.914 119.192 186.393 120.052 188.417 121.616C191.651 124.108 195.682 129.12 195.682 138.447Z" fill="#4A9396"/>
<path opacity="0.5" d="M195.682 138.447V143.6C195.691 144.025 195.543 144.438 195.267 144.761C194.991 145.084 194.606 145.294 194.185 145.351C193.953 145.376 193.717 145.352 193.495 145.28C193.272 145.207 193.068 145.089 192.894 144.933C192.72 144.776 192.581 144.585 192.486 144.371C192.391 144.157 192.342 143.926 192.343 143.692V138.447C192.347 135.943 191.844 133.465 190.865 131.16C189.886 128.856 188.452 126.774 186.647 125.039C184.842 123.303 182.706 121.951 180.365 121.063C178.024 120.175 175.528 119.77 173.026 119.872C175.568 119.374 178.153 119.138 180.743 119.166H181.357C183.914 119.192 186.393 120.052 188.417 121.616C191.651 124.108 195.682 129.12 195.682 138.447Z" fill="black"/>
<path d="M187.746 235.571C187.746 235.571 184.329 244.982 196.543 249.218C196.543 249.218 200.532 243.358 196.543 238.564C192.554 233.771 187.746 235.571 187.746 235.571Z" fill="#4A9396"/>
<path opacity="0.7" d="M187.746 235.571C187.746 235.571 184.329 244.982 196.543 249.218C196.543 249.218 200.532 243.358 196.543 238.564C192.554 233.771 187.746 235.571 187.746 235.571Z" fill="black"/>
<path d="M192.032 236.002C192.032 236.002 180.101 240.372 180.164 242.066C180.228 243.761 185.233 242.603 185.233 242.603L183.405 243.803C181.479 245.059 179.988 246.879 179.133 249.013C178.947 249.484 178.941 250.007 179.115 250.482C179.29 250.957 179.633 251.352 180.079 251.59L184.612 253.991C184.868 254.126 185.148 254.209 185.437 254.235C185.726 254.26 186.016 254.228 186.292 254.139C186.568 254.05 186.823 253.907 187.043 253.718C187.262 253.528 187.441 253.297 187.57 253.037C187.823 252.538 188.172 252.094 188.597 251.731C189.022 251.367 189.516 251.091 190.048 250.919C192.512 250.101 197.108 247.742 198.951 241.29L192.032 236.002Z" fill="#945959"/>
<path d="M195.611 175.377C195.611 175.377 189.257 178.907 192.632 189.625C196.007 200.342 202.34 216.968 202.34 216.968L187.747 235.571C189.306 235.759 190.808 236.274 192.154 237.082C193.501 237.889 194.662 238.972 195.562 240.259C196.424 241.567 196.963 243.062 197.133 244.62C197.304 246.178 197.102 247.754 196.543 249.218L214.659 225.92C216.335 223.767 217.447 221.23 217.896 218.539C218.344 215.848 218.115 213.088 217.229 210.508L209.463 187.831C208.514 185.061 206.936 182.548 204.854 180.49C202.772 178.431 200.242 176.882 197.461 175.963L195.611 175.377Z" fill="#4A9396"/>
<path d="M88.356 112.071L60.2783 95.8326C59.9552 95.6087 59.5814 95.4688 59.1906 95.4257C58.7999 95.3825 58.4045 95.4375 58.0403 95.5855C57.9636 95.621 57.8903 95.6635 57.8215 95.7126L51.7146 99.292H51.7569C50.9874 99.7297 50.5002 100.746 50.5002 102.201V133.434C50.5002 136.075 52.1029 139.146 54.0867 140.289L82.1643 156.527C82.5206 156.785 82.9447 156.933 83.3839 156.951C83.8232 156.97 84.2584 156.86 84.6353 156.633C84.6163 156.641 84.5993 156.653 84.5859 156.669L90.6505 153.139C91.4412 152.715 91.9424 151.684 91.9424 150.209V118.926C91.9424 116.285 90.3681 113.214 88.356 112.071Z" fill="#4A9396"/>
<path d="M90.94 115.029C90.3719 113.821 89.4768 112.796 88.356 112.071L60.2784 95.8326C59.9553 95.6087 59.5814 95.4688 59.1907 95.4257C58.7999 95.3825 58.4045 95.4375 58.0404 95.5855C57.9636 95.621 57.8903 95.6635 57.8215 95.7126L51.7146 99.292C52.0882 99.1011 52.507 99.0166 52.9254 99.0477C53.3438 99.0788 53.7456 99.2244 54.0868 99.4685L82.1644 115.707C83.3233 116.464 84.2418 117.537 84.8119 118.799L90.94 115.029Z" fill="#4A9396"/>
<path d="M85.7508 153.781C85.7508 155.193 85.299 156.174 84.5859 156.605L90.6505 153.075C91.4412 152.651 91.9425 151.621 91.9425 150.145V118.926C91.9126 117.567 91.5695 116.233 90.9399 115.029L84.8119 118.799C85.4002 119.968 85.721 121.253 85.7508 122.562V153.781Z" fill="#4A9396"/>
<path opacity="0.3" d="M90.94 115.029C90.3719 113.821 89.4768 112.796 88.356 112.071L60.2784 95.8326C59.9553 95.6087 59.5814 95.4688 59.1907 95.4257C58.7999 95.3825 58.4045 95.4375 58.0404 95.5855C57.9636 95.621 57.8903 95.6635 57.8215 95.7126L51.7146 99.292C52.0882 99.1011 52.507 99.0166 52.9254 99.0477C53.3438 99.0788 53.7456 99.2244 54.0868 99.4685L82.1644 115.707C83.3233 116.464 84.2418 117.537 84.8119 118.799L90.94 115.029Z" fill="black"/>
<path opacity="0.6" d="M85.7508 153.781C85.7508 155.193 85.299 156.174 84.5859 156.605L90.6505 153.075C91.4412 152.651 91.9425 151.621 91.9425 150.145V118.926C91.9126 117.567 91.5695 116.233 90.9399 115.029L84.8119 118.799C85.4002 119.968 85.721 121.253 85.7508 122.562V153.781Z" fill="black"/>
<path d="M77.5188 131.507C77.5188 135.552 75.9162 136.929 73.5158 135.538C72.8536 135.161 72.2746 134.654 71.8135 134.047C71.3525 133.441 71.0189 132.747 70.833 132.008C70.127 132.876 69.0327 132.933 67.4936 132.043C64.9661 130.582 62.9752 127.101 62.9752 123.72C62.9752 120.338 64.945 119.173 67.4936 120.641C68.7869 121.404 69.8316 122.524 70.5012 123.868V122.534L73.1628 124.073V131.387C73.1232 131.772 73.1897 132.16 73.3553 132.51C73.5208 132.86 73.779 133.157 74.1018 133.371C74.9984 133.893 75.5491 133.011 75.5491 130.391C75.5491 125.809 72.6121 120.952 68.2702 118.446C63.9283 115.94 60.9984 117.683 60.9984 122.399C61.0553 124.902 61.7449 127.349 63.0028 129.513C64.2608 131.677 66.0461 133.488 68.1925 134.776C69.358 135.494 70.6814 135.915 72.0473 136.004L72.6757 138.44C71.0852 138.311 69.5483 137.806 68.1925 136.964C62.5445 133.695 58.8098 127.116 58.8098 121.157C58.8098 115.198 62.5798 113.038 68.2702 116.328C73.7699 119.498 77.5188 125.845 77.5188 131.507ZM70.5435 128.111C70.5573 127.216 70.3388 126.332 69.9095 125.547C69.4801 124.761 68.8546 124.1 68.0937 123.628C66.6817 122.802 65.6721 123.381 65.6721 125.301C65.654 126.198 65.8673 127.084 66.2915 127.874C66.7156 128.664 67.3364 129.332 68.0937 129.812C69.5057 130.61 70.5435 130.095 70.5435 128.111Z" fill="#4A9396"/>
<g opacity="0.9">
<path d="M77.5188 131.507C77.5188 135.552 75.9162 136.929 73.5158 135.538C72.8536 135.161 72.2746 134.654 71.8135 134.047C71.3525 133.441 71.0189 132.747 70.833 132.008C70.127 132.876 69.0327 132.933 67.4936 132.043C64.9661 130.582 62.9752 127.101 62.9752 123.72C62.9752 120.338 64.945 119.173 67.4936 120.641C68.7869 121.404 69.8316 122.524 70.5012 123.868V122.534L73.1628 124.073V131.387C73.1232 131.772 73.1897 132.16 73.3553 132.51C73.5208 132.86 73.779 133.157 74.1018 133.371C74.9984 133.893 75.5491 133.011 75.5491 130.391C75.5491 125.809 72.6121 120.952 68.2702 118.446C63.9283 115.94 60.9984 117.683 60.9984 122.399C61.0553 124.902 61.7449 127.349 63.0028 129.513C64.2608 131.677 66.0461 133.488 68.1925 134.776C69.358 135.494 70.6814 135.915 72.0473 136.004L72.6757 138.44C71.0852 138.311 69.5483 137.806 68.1925 136.964C62.5445 133.695 58.8098 127.116 58.8098 121.157C58.8098 115.198 62.5798 113.038 68.2702 116.328C73.7699 119.498 77.5188 125.845 77.5188 131.507ZM70.5435 128.111C70.5573 127.216 70.3388 126.332 69.9095 125.547C69.4801 124.761 68.8546 124.1 68.0937 123.628C66.6817 122.802 65.6721 123.381 65.6721 125.301C65.654 126.198 65.8673 127.084 66.2915 127.874C66.7156 128.664 67.3364 129.332 68.0937 129.812C69.5057 130.61 70.5435 130.095 70.5435 128.111Z" fill="white"/>
</g>
<path d="M88.356 167.689L60.2783 151.451C59.9557 151.226 59.5814 151.086 59.1901 151.044C58.7989 151.002 58.4034 151.06 58.0403 151.211C57.9636 151.247 57.8903 151.289 57.8215 151.338L51.7146 154.918H51.7569C50.9874 155.355 50.5002 156.372 50.5002 157.819V189.039C50.5002 191.686 52.1029 194.75 54.0867 195.894L82.1643 212.132C82.5199 212.391 82.9441 212.54 83.3838 212.559C83.8235 212.578 84.2589 212.466 84.6353 212.238L84.5859 212.28L90.6505 208.715C91.4412 208.298 91.9424 207.303 91.9424 205.785V174.538C91.9424 171.897 90.3681 168.833 88.356 167.689Z" fill="#4A9396"/>
<path d="M90.94 170.647C90.3738 169.438 89.4783 168.413 88.356 167.689L60.2784 151.451C59.9557 151.226 59.5814 151.086 59.1902 151.044C58.7989 151.002 58.4034 151.06 58.0404 151.211C57.9636 151.247 57.8903 151.289 57.8215 151.338L51.7146 154.918C52.0873 154.725 52.506 154.639 52.9245 154.669C53.343 154.699 53.7452 154.843 54.0868 155.087L82.1644 171.325C83.3251 172.084 84.2439 173.16 84.8119 174.425L90.94 170.647Z" fill="#4A9396"/>
<path d="M85.7508 209.393C85.7508 210.805 85.299 211.786 84.5859 212.252L90.6505 208.687C91.4412 208.27 91.9425 207.275 91.9425 205.757V174.538C91.9125 173.181 91.5694 171.85 90.9399 170.647L84.8119 174.417C85.4001 175.584 85.7209 176.867 85.7508 178.173V209.393Z" fill="#4A9396"/>
<path opacity="0.3" d="M90.94 170.647C90.3738 169.438 89.4783 168.413 88.356 167.689L60.2784 151.451C59.9557 151.226 59.5814 151.086 59.1902 151.044C58.7989 151.002 58.4034 151.06 58.0404 151.211C57.9636 151.247 57.8903 151.289 57.8215 151.338L51.7146 154.918C52.0873 154.725 52.506 154.639 52.9245 154.669C53.343 154.699 53.7452 154.843 54.0868 155.087L82.1644 171.325C83.3251 172.084 84.2439 173.16 84.8119 174.425L90.94 170.647Z" fill="black"/>
<path opacity="0.6" d="M85.7508 209.393C85.7508 210.805 85.299 211.786 84.5859 212.252L90.6505 208.687C91.4412 208.27 91.9425 207.275 91.9425 205.757V174.538C91.9125 173.181 91.5694 171.85 90.9399 170.647L84.8119 174.417C85.4001 175.584 85.7209 176.867 85.7508 178.173V209.393Z" fill="black"/>
<path d="M64.9873 181.647L58.2168 170.647V185.551L64.9873 181.647Z" fill="#4A9396"/>
<path d="M71.2778 184.817L78.0343 196.515V181.633L71.2778 184.817Z" fill="#4A9396"/>
<path d="M59.2405 170.146L66.1946 181.442C66.224 181.467 66.2501 181.495 66.2722 181.527C66.2784 181.555 66.2784 181.584 66.2722 181.611L68.3408 184.972L70.0917 184.146C70.119 184.116 70.1498 184.09 70.1835 184.068C70.2525 184.028 70.3297 184.004 70.4094 183.998L77.4694 180.687L59.2405 170.146Z" fill="#4A9396"/>
<path d="M70.2542 185.297L68.3622 186.186C68.2893 186.22 68.2096 186.237 68.1292 186.236C68.0317 186.237 67.9357 186.213 67.8503 186.166C67.7649 186.119 67.6932 186.05 67.642 185.968L65.5735 182.607L58.7817 186.532L77.0601 197.08L70.2542 185.297Z" fill="#4A9396"/>
<g opacity="0.9">
<path d="M64.9873 181.647L58.2168 170.647V185.551L64.9873 181.647Z" fill="white"/>
<path d="M71.2778 184.817L78.0343 196.515V181.633L71.2778 184.817Z" fill="white"/>
<path d="M59.2405 170.146L66.1946 181.442C66.224 181.467 66.2501 181.495 66.2722 181.527C66.2784 181.555 66.2784 181.584 66.2722 181.611L68.3408 184.972L70.0917 184.146C70.119 184.116 70.1498 184.09 70.1835 184.068C70.2525 184.028 70.3297 184.004 70.4094 183.998L77.4694 180.687L59.2405 170.146Z" fill="white"/>
<path d="M70.254 185.297L68.3619 186.186C68.289 186.22 68.2093 186.237 68.1289 186.236C68.0315 186.237 67.9354 186.213 67.8501 186.166C67.7647 186.119 67.6929 186.05 67.6418 185.968L65.5732 182.607L58.7815 186.532L77.0598 197.08L70.254 185.297Z" fill="white"/>
</g>
<path d="M88.356 56.4801L60.2783 40.2421C59.9557 40.0169 59.5814 39.8768 59.1901 39.8349C58.7989 39.7929 58.4034 39.8504 58.0403 40.002C57.9636 40.0375 57.8903 40.08 57.8215 40.1291L51.7146 43.7085H51.7569C50.9874 44.1392 50.5002 45.1629 50.5002 46.6102V77.8295C50.5002 80.47 52.1029 83.5411 54.0867 84.6848L82.1643 100.923C82.5199 101.182 82.9441 101.331 83.3838 101.349C83.8235 101.368 84.2589 101.257 84.6353 101.029L84.5859 101.064L90.6505 97.534C91.4412 97.1174 91.9424 96.122 91.9424 94.6041V63.3071C91.9424 60.6667 90.3681 57.5956 88.356 56.4801Z" fill="#4A9396"/>
<path d="M90.94 59.417C90.374 58.2057 89.4785 57.1782 88.356 56.4518L60.2784 40.2421C59.9557 40.0169 59.5814 39.8768 59.1902 39.8349C58.7989 39.7929 58.4034 39.8504 58.0404 40.002C57.9636 40.0375 57.8903 40.08 57.8215 40.1291L51.7146 43.7085C52.0873 43.5158 52.506 43.4297 52.9245 43.4595C53.343 43.4894 53.7452 43.6342 54.0868 43.878L82.1644 60.116C83.3251 60.8747 84.2439 61.9503 84.8119 63.2153L90.94 59.417Z" fill="#4A9396"/>
<path d="M85.7508 98.134C85.7508 99.546 85.299 100.527 84.5859 100.958L90.6505 97.428C91.4412 97.0115 91.9425 96.016 91.9425 94.4981V63.307C91.9125 61.9504 91.5694 60.6191 90.9399 59.417L84.8119 63.187C85.4001 64.3537 85.7209 65.6367 85.7508 66.9429V98.134Z" fill="#4A9396"/>
<path opacity="0.3" d="M90.94 59.417C90.374 58.2057 89.4785 57.1782 88.356 56.4518L60.2784 40.2421C59.9557 40.0169 59.5814 39.8768 59.1902 39.8349C58.7989 39.7929 58.4034 39.8504 58.0404 40.002C57.9636 40.0375 57.8903 40.08 57.8215 40.1291L51.7146 43.7085C52.0873 43.5158 52.506 43.4297 52.9245 43.4595C53.343 43.4894 53.7452 43.6342 54.0868 43.878L82.1644 60.116C83.3251 60.8747 84.2439 61.9503 84.8119 63.2153L90.94 59.417Z" fill="black"/>
<path opacity="0.6" d="M85.7508 98.134C85.7508 99.546 85.299 100.527 84.5859 100.958L90.6505 97.428C91.4412 97.0115 91.9425 96.016 91.9425 94.4981V63.307C91.9125 61.9504 91.5694 60.6191 90.9399 59.417L84.8119 63.187C85.4001 64.3537 85.7209 65.6367 85.7508 66.9429V98.134Z" fill="black"/>
<path d="M76.5657 84.7202C75.4855 82.941 74.3983 81.1902 73.3181 79.3969C73.1468 79.0573 72.9073 78.7566 72.6145 78.5136C72.3218 78.2707 71.9821 78.0907 71.6167 77.9849C71.0942 77.879 70.5718 77.759 70.0352 77.6037C69.8441 77.524 69.6834 77.3855 69.5763 77.2083C67.8088 74.1832 66.4036 70.9605 65.3897 67.6067C65.3682 67.535 65.3621 67.4596 65.3718 67.3853C65.3815 67.3111 65.4069 67.2398 65.4462 67.1761C65.778 66.8442 66.1522 66.5407 66.4911 66.2441C66.83 65.9476 67.0065 65.2628 66.7594 64.3732C66.2369 62.4882 65.7357 60.6032 65.2132 58.7252C65.1122 58.1916 64.8723 57.6941 64.5179 57.2826C64.1634 56.8712 63.7068 56.5603 63.1941 56.3813C62.0556 56.0648 60.8469 56.1092 59.7347 56.5084C59.304 56.6708 59.0781 57.0591 59.071 57.7298C59.2546 59.0218 59.3746 60.2996 59.6217 61.6128C61.3632 71.0826 65.5521 79.7899 72.1885 87.7348C72.3618 87.9982 72.5945 88.2173 72.868 88.3743C73.1415 88.5312 73.448 88.6217 73.7629 88.6385C74.8616 88.6123 75.9172 88.2056 76.7493 87.4877C77.3776 86.9229 77.3141 85.9204 76.5657 84.7202Z" fill="#4A9396"/>
<path d="M76.4811 75.0974C76.3334 73.0667 75.7737 71.0873 74.8361 69.28C74.1361 67.8681 73.2452 66.5591 72.1886 65.3899C71.9132 65.0793 71.6803 64.9804 71.5391 65.2134C71.3979 65.4464 71.5391 65.7782 71.8073 66.0818L72.0827 66.3995C74.0341 68.652 75.2639 71.4387 75.6127 74.3985C75.6092 74.6143 75.6306 74.8299 75.6762 75.0409C75.7649 75.2837 75.9073 75.5033 76.0928 75.6834C76.241 75.7893 76.4105 75.6834 76.5305 75.6834C76.4881 75.3939 76.4952 75.2457 76.4811 75.0974Z" fill="#4A9396"/>
<path d="M70.0846 69.301C70.9712 70.2762 71.5099 71.5174 71.6166 72.831C71.6631 73.0307 71.7368 73.2231 71.8355 73.4029C72.2662 73.7559 72.478 73.6359 72.478 73.1911C72.327 71.5068 71.6304 69.9179 70.4941 68.6656C70.2258 68.3903 70.007 68.3056 69.8799 68.5385C69.8342 68.6716 69.8292 68.8152 69.8657 68.9511C69.9022 69.0869 69.9784 69.2088 70.0846 69.301Z" fill="#4A9396"/>
<g opacity="0.9">
<path d="M76.5657 84.7202C75.4855 82.941 74.3983 81.1902 73.3181 79.3969C73.1468 79.0573 72.9073 78.7566 72.6145 78.5136C72.3218 78.2707 71.9821 78.0907 71.6167 77.9849C71.0942 77.879 70.5718 77.759 70.0352 77.6037C69.8441 77.524 69.6834 77.3855 69.5763 77.2083C67.8088 74.1832 66.4036 70.9605 65.3897 67.6067C65.3682 67.535 65.3621 67.4596 65.3718 67.3853C65.3815 67.3111 65.4069 67.2398 65.4462 67.1761C65.778 66.8442 66.1522 66.5407 66.4911 66.2441C66.83 65.9476 67.0065 65.2628 66.7594 64.3732C66.2369 62.4882 65.7357 60.6032 65.2132 58.7252C65.1122 58.1916 64.8723 57.6941 64.5179 57.2826C64.1634 56.8712 63.7068 56.5603 63.1941 56.3813C62.0556 56.0648 60.8469 56.1092 59.7347 56.5084C59.304 56.6708 59.0781 57.0591 59.071 57.7298C59.2546 59.0218 59.3746 60.2996 59.6217 61.6128C61.3632 71.0826 65.5521 79.7899 72.1885 87.7348C72.3618 87.9982 72.5945 88.2173 72.868 88.3743C73.1415 88.5312 73.448 88.6217 73.7629 88.6385C74.8616 88.6123 75.9172 88.2056 76.7493 87.4877C77.3776 86.9229 77.3141 85.9204 76.5657 84.7202Z" fill="white"/>
<path d="M76.4811 75.0974C76.3334 73.0667 75.7737 71.0873 74.8361 69.28C74.1361 67.8681 73.2452 66.5591 72.1886 65.3899C71.9132 65.0793 71.6803 64.9804 71.5391 65.2134C71.3979 65.4464 71.5391 65.7782 71.8073 66.0818L72.0827 66.3995C74.0341 68.652 75.2639 71.4387 75.6127 74.3985C75.6092 74.6143 75.6306 74.8299 75.6762 75.0409C75.7649 75.2837 75.9073 75.5033 76.0928 75.6834C76.241 75.7893 76.4105 75.6834 76.5305 75.6834C76.4881 75.3939 76.4952 75.2457 76.4811 75.0974Z" fill="white"/>
<path d="M70.0846 69.301C70.9712 70.2762 71.5099 71.5174 71.6166 72.831C71.6631 73.0307 71.7368 73.2231 71.8355 73.4029C72.2662 73.7559 72.478 73.6359 72.478 73.1911C72.327 71.5068 71.6304 69.9179 70.4941 68.6656C70.2258 68.3903 70.007 68.3056 69.8799 68.5385C69.8342 68.6716 69.8292 68.8152 69.8657 68.9511C69.9022 69.0869 69.9784 69.2088 70.0846 69.301Z" fill="white"/>
</g>
<path d="M232.415 37.7569L239.03 41.5199V39.1759C239.03 39.0136 239.03 38.8441 239.03 38.6817C239.03 38.5194 239.03 38.364 239.03 38.2087V38.124C239.27 35.0247 241.621 33.8315 244.488 35.4906C245.785 36.2888 246.898 37.3551 247.749 38.6182C248.392 34.3822 251.83 32.8855 255.988 35.2788C260.606 37.9475 264.347 44.4568 264.347 49.7659V54.7785C264.341 55.1795 264.44 55.5752 264.634 55.9258C264.829 56.2765 265.112 56.5699 265.456 56.7765L269.353 59.0569C270.194 59.5556 270.891 60.264 271.376 61.113C271.862 61.9619 272.118 62.9223 272.121 63.9001C272.121 64.3057 272.014 64.7042 271.811 65.0555C271.608 65.4068 271.316 65.6984 270.965 65.9009C270.613 66.1035 270.215 66.2099 269.809 66.2094C269.403 66.2089 269.005 66.1015 268.654 65.898L232.514 45.0075C231.555 44.4507 230.759 43.6527 230.204 42.6929C229.649 41.733 229.355 40.6447 229.351 39.536C229.351 39.1771 229.445 38.8245 229.624 38.5134C229.803 38.2023 230.06 37.9437 230.37 37.7635C230.681 37.5833 231.033 37.4878 231.392 37.4866C231.751 37.4855 232.104 37.5787 232.415 37.7569Z" fill="#E6E6E6"/>
<path d="M282.845 36.7756L287.653 39.536V37.8134C287.653 37.6934 287.653 37.5733 287.653 37.4533C287.653 37.3333 287.653 37.2203 287.653 37.1074V37.065C287.829 34.8129 289.538 33.9445 291.62 35.1518C292.563 35.7296 293.372 36.5023 293.992 37.418C294.466 34.354 296.965 33.2456 299.986 34.9894C303.347 36.9309 306.065 41.647 306.065 45.5229V49.1729C306.068 49.459 306.144 49.7396 306.288 49.9871C306.432 50.2346 306.637 50.4406 306.884 50.5849L309.708 52.244C310.323 52.6054 310.832 53.1214 311.185 53.7408C311.538 54.3601 311.722 55.0611 311.72 55.774C311.72 56.066 311.643 56.3528 311.498 56.6062C311.353 56.8596 311.144 57.0708 310.893 57.219C310.641 57.3673 310.355 57.4474 310.064 57.4515C309.772 57.4556 309.484 57.3836 309.228 57.2425L282.915 42.0494C282.218 41.646 281.639 41.0665 281.236 40.3689C280.834 39.6713 280.621 38.8801 280.621 38.0746C280.62 37.8139 280.688 37.5576 280.818 37.3314C280.947 37.1052 281.134 36.9169 281.359 36.7854C281.584 36.6539 281.84 36.5838 282.101 36.5821C282.361 36.5803 282.618 36.6471 282.845 36.7756Z" fill="#E6E6E6"/>
</svg>
