<svg width="25" height="25" viewBox="0 0 25 25" fill="none" xmlns="http://www.w3.org/2000/svg">
<path d="M3.7862 18.0009L3.78637 17.9996L4.68638 10.4996L4.68651 10.4984C4.81649 9.39365 5.01257 8.48669 5.56483 7.84134C6.09404 7.22292 7.04015 6.75 8.90994 6.75H16.1099C17.9742 6.75 18.9181 7.22262 19.4475 7.84134C20.0003 8.48723 20.1984 9.39458 20.3335 10.4997C20.3335 10.5 20.3336 10.5003 20.3336 10.5006L21.2333 17.9981C21.2334 17.9984 21.2334 17.9988 21.2334 17.9991C21.4239 19.6294 21.1262 20.7924 20.4584 21.5454C19.7556 22.3143 18.6347 22.75 16.9899 22.75H7.99993C6.3598 22.75 5.23522 22.3117 4.56546 21.5499C3.89214 20.784 3.58653 19.6268 3.7862 18.0009ZM5.17362 10.5494L5.17349 10.5504L4.2735 18.0504L4.27339 18.0513C4.11756 19.3707 4.28325 20.4824 4.93731 21.2134C5.5892 21.942 6.66813 22.24 7.99993 22.24H16.9899C18.3217 22.24 19.4007 21.942 20.0525 21.2134C20.7066 20.4824 20.8723 19.3707 20.7165 18.0513L20.7164 18.0504L19.8164 10.5504L19.8163 10.5497L19.8127 10.5197C19.7624 10.1057 19.7118 9.68862 19.6183 9.31256C19.521 8.92143 19.3692 8.53789 19.0924 8.20917C18.5245 7.53485 17.5737 7.25 16.0899 7.25H8.89993C7.41927 7.25 6.46969 7.53819 5.9013 8.21284C5.62434 8.54157 5.47152 8.9248 5.3733 9.31561C5.27789 9.69519 5.22658 10.1156 5.17578 10.5317L5.17362 10.5494Z" fill="#4D4D4D" stroke="#4D4D4D"/>
<path d="M16.5 8.75C16.3661 8.75 16.25 8.63386 16.25 8.5V5C16.25 4.3555 16.048 3.78088 15.6336 3.36645C15.2191 2.95202 14.6445 2.75 14 2.75H11C10.3555 2.75 9.78088 2.95202 9.36645 3.36645C8.95202 3.78088 8.75 4.3555 8.75 5V8.5C8.75 8.63386 8.63386 8.75 8.5 8.75C8.36614 8.75 8.25 8.63386 8.25 8.5V5C8.25 4.16505 8.54084 3.48376 9.0123 3.0123C9.48376 2.54084 10.165 2.25 11 2.25H14C14.835 2.25 15.5162 2.54084 15.9877 3.0123C16.4592 3.48376 16.75 4.16505 16.75 5V8.5C16.75 8.63386 16.6339 8.75 16.5 8.75Z" fill="#4D4D4D" stroke="#4D4D4D"/>
<path d="M20.91 18.28H8.5C8.09 18.28 7.75 17.94 7.75 17.53C7.75 17.12 8.09 16.78 8.5 16.78H20.91C21.32 16.78 21.66 17.12 21.66 17.53C21.66 17.94 21.32 18.28 20.91 18.28Z" fill="#4D4D4D"/>
</svg>
