<svg width="393" height="393" viewBox="0 0 393 393" fill="none" xmlns="http://www.w3.org/2000/svg">
<path d="M268.812 304.182C268.812 304.182 306.54 301.824 332.478 255.45C358.416 209.076 353.7 138.336 321.474 99.036C289.248 59.736 238.944 46.374 190.998 58.95C167.638 65.073 152.06 80.958 138.595 100.121C126.868 116.815 113.679 132.897 95.9313 143.461C78.3563 153.915 60.2862 162.262 51.4122 182.132C29.813 230.518 45.588 286.796 96.678 305.754C151.698 326.19 243.66 315.186 268.812 304.182Z" fill="#4A9396"/>
<path opacity="0.7" d="M268.812 304.182C268.812 304.182 306.54 301.824 332.478 255.45C358.416 209.076 353.7 138.336 321.474 99.036C289.248 59.736 238.944 46.374 190.998 58.95C167.638 65.073 152.06 80.958 138.595 100.121C126.868 116.815 113.679 132.897 95.9313 143.461C78.3563 153.915 60.2862 162.262 51.4122 182.132C29.813 230.518 45.588 286.796 96.678 305.754C151.698 326.19 243.66 315.186 268.812 304.182Z" fill="white"/>
<path d="M200.564 338.782C274.72 338.782 334.836 333.503 334.836 326.992C334.836 320.48 274.72 315.202 200.564 315.202C126.407 315.202 66.2913 320.48 66.2913 326.992C66.2913 333.503 126.407 338.782 200.564 338.782Z" fill="#4A9396"/>
<path opacity="0.5" d="M200.564 338.782C274.72 338.782 334.836 333.503 334.836 326.992C334.836 320.48 274.72 315.202 200.564 315.202C126.407 315.202 66.2913 320.48 66.2913 326.992C66.2913 333.503 126.407 338.782 200.564 338.782Z" fill="white"/>
<path d="M63.6425 177.872V184.844" stroke="#263238" stroke-linecap="round" stroke-linejoin="round"/>
<path d="M67.1323 181.362H60.1605" stroke="#263238" stroke-linecap="round" stroke-linejoin="round"/>
<path d="M301.541 118.136V125.108" stroke="#263238" stroke-linecap="round" stroke-linejoin="round"/>
<path d="M305.023 121.626H298.051" stroke="#263238" stroke-linecap="round" stroke-linejoin="round"/>
<path d="M202.505 64.1691V71.1409" stroke="#263238" stroke-linecap="round" stroke-linejoin="round"/>
<path d="M205.987 67.651H199.015" stroke="#263238" stroke-linecap="round" stroke-linejoin="round"/>
<path d="M87.749 255.953V262.925" stroke="#263238" stroke-linecap="round" stroke-linejoin="round"/>
<path d="M91.231 259.435H84.2592" stroke="#263238" stroke-linecap="round" stroke-linejoin="round"/>
<path d="M298.421 93.0074C298.422 94.1487 298.085 95.2649 297.452 96.2147C296.819 97.1645 295.919 97.9052 294.865 98.343C293.811 98.7809 292.65 98.8963 291.531 98.6746C290.411 98.4528 289.382 97.904 288.575 97.0975C287.767 96.2909 287.217 95.263 286.994 94.1436C286.77 93.0243 286.884 91.8639 287.32 90.8092C287.757 89.7546 288.496 88.8531 289.445 88.2188C290.394 87.5845 291.51 87.246 292.651 87.246C294.18 87.246 295.646 87.8527 296.728 88.933C297.81 90.0132 298.418 91.4786 298.421 93.0074Z" stroke="#263238" stroke-linecap="round" stroke-linejoin="round"/>
<path d="M51.7235 231.434C54.6633 230.216 56.0593 226.846 54.8416 223.906C53.6239 220.967 50.2537 219.571 47.314 220.788C44.3743 222.006 42.9783 225.376 44.1959 228.316C45.4136 231.256 48.7838 232.652 51.7235 231.434Z" stroke="#263238" stroke-linecap="round" stroke-linejoin="round"/>
<path d="M324.618 151.957C324.632 152.138 324.609 152.319 324.549 152.49C324.49 152.661 324.396 152.818 324.273 152.951C324.15 153.083 324.001 153.189 323.835 153.262C323.669 153.334 323.49 153.372 323.309 153.372C323.128 153.372 322.949 153.334 322.784 153.262C322.618 153.189 322.469 153.083 322.346 152.951C322.223 152.818 322.129 152.661 322.07 152.49C322.01 152.319 321.987 152.138 322.001 151.957C322.026 151.628 322.175 151.32 322.418 151.096C322.66 150.871 322.979 150.746 323.309 150.746C323.64 150.746 323.958 150.871 324.201 151.096C324.443 151.32 324.592 151.628 324.618 151.957Z" stroke="#263238" stroke-linecap="round" stroke-linejoin="round"/>
<path d="M124.715 133.093C124.716 133.353 124.641 133.608 124.497 133.825C124.354 134.042 124.15 134.211 123.91 134.312C123.67 134.412 123.406 134.439 123.151 134.39C122.896 134.34 122.661 134.215 122.477 134.032C122.292 133.849 122.167 133.615 122.115 133.36C122.064 133.105 122.089 132.841 122.189 132.601C122.288 132.36 122.456 132.155 122.672 132.01C122.888 131.866 123.142 131.789 123.402 131.789C123.749 131.789 124.081 131.926 124.327 132.17C124.573 132.415 124.713 132.747 124.715 133.093Z" stroke="#263238" stroke-linecap="round" stroke-linejoin="round"/>
<path d="M344.991 210.389V210.349H344.944V210.31C343.851 210.2 332.541 209.233 322.221 214.594C326.78 208.867 328.883 201.566 328.069 194.291C325.577 169.375 302.068 155.117 300.252 154.048V154.056H300.197H300.142C298.326 155.125 274.817 169.383 272.325 194.299C271.793 199.122 272.536 204.001 274.479 208.447C261.243 200.532 245.806 201.868 244.383 202.01V201.963V202.018H244.328V202.057C243.629 203.668 234.794 224.914 245.405 242.968C254.9 259.113 274.809 254.845 280.217 253.328C284.76 258.099 293.044 268.961 296.723 287.495H291.567L293.964 322.645H305.565L308.112 287.542H302.036C304.82 274.98 309.842 263.02 316.86 252.235C322.276 253.587 336.927 255.867 344.15 243.589C352.733 228.93 345.565 211.701 344.991 210.389ZM299.828 210.255L287.566 193.222C287.54 193.187 287.521 193.147 287.511 193.105C287.5 193.063 287.498 193.019 287.505 192.976C287.511 192.933 287.526 192.891 287.549 192.854C287.572 192.817 287.601 192.784 287.637 192.759C287.709 192.706 287.799 192.683 287.887 192.697C287.976 192.71 288.055 192.758 288.108 192.829L299.851 209.139V191.886L287.59 174.861C287.537 174.789 287.514 174.699 287.528 174.611C287.541 174.523 287.589 174.443 287.66 174.39C287.734 174.34 287.824 174.32 287.912 174.334C288 174.349 288.079 174.397 288.132 174.468L299.875 190.778V165.626C299.875 165.583 299.883 165.54 299.9 165.5C299.916 165.459 299.941 165.423 299.971 165.392C300.002 165.362 300.038 165.337 300.079 165.321C300.119 165.304 300.162 165.296 300.205 165.296C300.292 165.296 300.376 165.331 300.438 165.392C300.5 165.454 300.535 165.538 300.535 165.626V189.905L313.268 173.761C313.322 173.691 313.402 173.646 313.49 173.635C313.578 173.624 313.666 173.648 313.736 173.702C313.806 173.756 313.851 173.836 313.862 173.924C313.873 174.011 313.849 174.1 313.795 174.17L300.535 190.982V208.274L313.268 192.122C313.324 192.053 313.404 192.008 313.493 191.998C313.581 191.987 313.67 192.012 313.74 192.067C313.774 192.094 313.802 192.127 313.824 192.165C313.845 192.203 313.858 192.244 313.863 192.287C313.868 192.33 313.865 192.374 313.853 192.416C313.842 192.458 313.822 192.497 313.795 192.531L300.535 209.351V224.01L313.268 207.866C313.322 207.796 313.402 207.75 313.49 207.739C313.578 207.728 313.666 207.752 313.736 207.807C313.806 207.861 313.851 207.94 313.862 208.028C313.873 208.116 313.849 208.204 313.795 208.274L300.535 225.087V225.409H299.466L287.605 208.903C287.552 208.831 287.53 208.741 287.543 208.653C287.557 208.564 287.604 208.485 287.676 208.431C287.75 208.381 287.84 208.361 287.928 208.376C288.015 208.391 288.094 208.439 288.148 208.51L299.851 224.796V210.224L299.828 210.255ZM280.343 251.827L279.14 250.176L261.848 245.366C261.779 245.342 261.721 245.294 261.686 245.229C261.651 245.165 261.642 245.091 261.659 245.02C261.68 244.948 261.727 244.887 261.792 244.85C261.857 244.814 261.933 244.804 262.005 244.823L278.574 249.445L271.367 239.588L254.075 234.778C254.003 234.758 253.942 234.71 253.905 234.646C253.868 234.581 253.859 234.504 253.878 234.432C253.901 234.363 253.95 234.305 254.014 234.271C254.078 234.236 254.153 234.226 254.224 234.244L270.801 238.865L262.28 227.201L244.988 222.391C244.953 222.382 244.92 222.366 244.892 222.344C244.863 222.322 244.839 222.294 244.822 222.262C244.804 222.231 244.793 222.196 244.789 222.16C244.785 222.124 244.789 222.087 244.8 222.053C244.809 222.018 244.825 221.985 244.847 221.956C244.869 221.927 244.896 221.902 244.928 221.884C244.959 221.866 244.994 221.854 245.03 221.849C245.066 221.844 245.103 221.847 245.138 221.856L261.714 226.478L249.728 210.082C249.685 210.021 249.667 209.946 249.679 209.873C249.69 209.799 249.731 209.733 249.791 209.689C249.82 209.667 249.853 209.651 249.889 209.642C249.924 209.633 249.961 209.631 249.997 209.637C250.033 209.643 250.068 209.656 250.098 209.676C250.129 209.696 250.156 209.722 250.176 209.752L262.579 226.714L262.524 209.901C262.526 209.827 262.556 209.756 262.609 209.703C262.662 209.651 262.733 209.62 262.807 209.618C262.881 209.62 262.951 209.651 263.002 209.704C263.053 209.757 263.082 209.828 263.082 209.901L263.208 227.453L271.728 239.109L271.602 222.296C271.595 222.256 271.598 222.214 271.608 222.175C271.619 222.135 271.639 222.098 271.665 222.067C271.692 222.035 271.725 222.01 271.762 221.993C271.8 221.975 271.84 221.967 271.881 221.967C271.922 221.967 271.963 221.975 272 221.993C272.038 222.01 272.071 222.035 272.097 222.067C272.124 222.098 272.143 222.135 272.154 222.175C272.165 222.214 272.167 222.256 272.16 222.296L272.286 239.856L279.486 249.704L279.36 232.892C279.362 232.818 279.393 232.748 279.446 232.697C279.499 232.645 279.569 232.617 279.643 232.617C279.716 232.617 279.786 232.646 279.838 232.697C279.889 232.749 279.918 232.819 279.918 232.892L280.044 250.451L281.074 251.858L280.343 251.827ZM282.308 251.827C284.823 247.999 292.085 235.431 287.747 223.334C291.12 225.559 294.728 227.404 298.507 228.836V283.416C294.522 266.69 287.024 256.692 282.449 251.827H282.308ZM301.172 280.052V229.088C304.768 227.782 308.216 226.101 311.46 224.073C304.536 235.171 312.294 247.991 314.337 251.017C308.52 259.981 304.082 269.769 301.172 280.052ZM344.339 226.847L330.34 230.777L323.423 240.209L336.872 236.46C336.901 236.451 336.931 236.447 336.961 236.45C336.992 236.453 337.021 236.462 337.048 236.477C337.074 236.492 337.098 236.512 337.116 236.536C337.134 236.56 337.148 236.588 337.155 236.617C337.169 236.675 337.161 236.735 337.132 236.787C337.102 236.838 337.054 236.876 336.998 236.893L322.999 240.823L317.151 248.816L330.599 245.067C330.657 245.052 330.717 245.061 330.769 245.09C330.82 245.119 330.858 245.167 330.875 245.224C330.889 245.282 330.881 245.344 330.852 245.397C330.823 245.449 330.775 245.489 330.717 245.507L316.719 249.437L315.98 250.443C315.846 250.365 315.72 250.294 315.595 250.207L316.011 249.634L316.121 235.391C316.115 235.358 316.116 235.324 316.125 235.292C316.133 235.26 316.149 235.229 316.17 235.204C316.191 235.178 316.218 235.157 316.248 235.143C316.279 235.129 316.312 235.121 316.345 235.121C316.379 235.121 316.412 235.129 316.442 235.143C316.473 235.157 316.499 235.178 316.521 235.204C316.542 235.229 316.558 235.26 316.566 235.292C316.574 235.324 316.576 235.358 316.569 235.391L316.475 249.036L322.26 241.003L322.362 226.761C322.362 226.731 322.368 226.702 322.38 226.675C322.391 226.648 322.408 226.623 322.429 226.603C322.451 226.582 322.476 226.566 322.504 226.555C322.531 226.545 322.561 226.54 322.59 226.541C322.62 226.541 322.65 226.547 322.677 226.558C322.705 226.57 322.73 226.586 322.751 226.608C322.772 226.629 322.789 226.654 322.801 226.682C322.812 226.709 322.818 226.739 322.818 226.769L322.716 240.406L329.633 230.974L329.735 216.732C329.735 216.702 329.741 216.672 329.752 216.644C329.764 216.617 329.78 216.592 329.802 216.57C329.823 216.549 329.848 216.532 329.876 216.521C329.903 216.51 329.933 216.504 329.963 216.504C329.992 216.504 330.022 216.51 330.049 216.521C330.076 216.533 330.101 216.55 330.121 216.571C330.142 216.592 330.158 216.617 330.168 216.645C330.179 216.673 330.184 216.702 330.183 216.732L330.089 230.369L340.149 216.606C340.185 216.559 340.238 216.527 340.297 216.518C340.356 216.51 340.416 216.524 340.464 216.559C340.488 216.576 340.509 216.598 340.524 216.623C340.54 216.648 340.55 216.676 340.554 216.706C340.559 216.735 340.557 216.765 340.55 216.794C340.542 216.823 340.529 216.85 340.511 216.873L330.788 230.18L344.237 226.431C344.294 226.416 344.355 226.424 344.406 226.454C344.457 226.483 344.495 226.531 344.512 226.588C344.519 226.617 344.519 226.646 344.514 226.675C344.509 226.704 344.498 226.731 344.482 226.756C344.466 226.78 344.445 226.801 344.42 226.816C344.395 226.832 344.368 226.843 344.339 226.847Z" fill="#263238"/>
<path d="M267.94 88.0948H146.581C143.651 88.0948 141.276 90.4702 141.276 93.4003V320.625C141.276 323.555 143.651 325.931 146.581 325.931H267.94C270.87 325.931 273.245 323.555 273.245 320.625V93.4003C273.245 90.4702 270.87 88.0948 267.94 88.0948Z" fill="#263238" stroke="#263238" stroke-linecap="round" stroke-linejoin="round"/>
<path d="M263.75 88.0948H142.392C139.462 88.0948 137.086 90.4702 137.086 93.4003V320.625C137.086 323.555 139.462 325.931 142.392 325.931H263.75C266.68 325.931 269.056 323.555 269.056 320.625V93.4003C269.056 90.4702 266.68 88.0948 263.75 88.0948Z" fill="white"/>
<mask id="mask0_201_4038" style="mask-type:luminance" maskUnits="userSpaceOnUse" x="137" y="88" width="133" height="238">
<path d="M263.75 88.0948H142.392C139.462 88.0948 137.086 90.4702 137.086 93.4003V320.625C137.086 323.555 139.462 325.931 142.392 325.931H263.75C266.68 325.931 269.056 323.555 269.056 320.625V93.4003C269.056 90.4702 266.68 88.0948 263.75 88.0948Z" fill="white"/>
</mask>
<g mask="url(#mask0_201_4038)">
<path d="M269.056 177.84L153.011 325.938H263.758C265.164 325.936 266.511 325.376 267.505 324.382C268.498 323.387 269.056 322.039 269.056 320.633V177.84Z" fill="#4A9396"/>
<path opacity="0.5" d="M269.056 177.84L153.011 325.938H263.758C265.164 325.936 266.511 325.376 267.505 324.382C268.498 323.387 269.056 322.039 269.056 320.633V177.84Z" fill="white"/>
</g>
<path d="M263.75 88.0948H142.392C139.462 88.0948 137.086 90.4702 137.086 93.4003V320.625C137.086 323.555 139.462 325.931 142.392 325.931H263.75C266.68 325.931 269.056 323.555 269.056 320.625V93.4003C269.056 90.4702 266.68 88.0948 263.75 88.0948Z" stroke="#263238" stroke-linecap="round" stroke-linejoin="round"/>
<path d="M212.22 102.306H195.793C195.344 102.306 194.915 102.128 194.598 101.811C194.281 101.494 194.103 101.064 194.103 100.616C194.103 100.394 194.146 100.175 194.232 99.9703C194.317 99.7657 194.441 99.5799 194.598 99.4236C194.755 99.2673 194.942 99.1436 195.147 99.0595C195.352 98.9754 195.571 98.9327 195.793 98.9337H212.22C212.666 98.9337 213.094 99.1109 213.409 99.4264C213.725 99.7418 213.902 100.17 213.902 100.616C213.903 100.837 213.86 101.057 213.776 101.262C213.692 101.467 213.568 101.653 213.412 101.81C213.256 101.967 213.07 102.092 212.866 102.177C212.661 102.262 212.442 102.306 212.22 102.306Z" fill="#263238" stroke="#263238" stroke-linecap="round" stroke-linejoin="round"/>
<path d="M260.716 304.677H145.41V102.502H172.739L175.813 105.049C176.885 105.942 178.237 106.432 179.632 106.432H227.854C229.301 106.426 230.697 105.896 231.784 104.939L234.566 102.502H260.716V304.677Z" fill="#263238" stroke="#263238" stroke-linecap="round" stroke-linejoin="round"/>
<path d="M167.056 261.086H239.085" stroke="white" stroke-linecap="round" stroke-linejoin="round"/>
<path d="M167.056 270.565H239.085" stroke="white" stroke-linecap="round" stroke-linejoin="round"/>
<path d="M167.056 280.044H239.085" stroke="white" stroke-linecap="round" stroke-linejoin="round"/>
<path d="M173.706 173.077C169.179 179.636 166.981 187.523 167.462 195.478C167.944 203.432 171.077 210.996 176.362 216.962C181.646 222.927 188.777 226.949 196.616 228.386C204.455 229.822 212.549 228.591 219.606 224.888C226.663 221.184 232.275 215.223 235.546 207.956C238.817 200.689 239.559 192.535 237.652 184.797C235.746 177.059 231.301 170.184 225.029 165.268C218.756 160.352 211.017 157.681 203.047 157.679C200.862 157.68 198.681 157.877 196.531 158.269" stroke="white" stroke-linecap="round" stroke-linejoin="round"/>
<path d="M179.782 166.341C178.584 167.378 177.455 168.491 176.402 169.674" stroke="white" stroke-linecap="round" stroke-linejoin="round"/>
<path d="M230.898 205.183C237.443 189.815 230.291 172.05 214.923 165.505C199.555 158.959 181.79 166.112 175.245 181.48C168.699 196.848 175.851 214.612 191.219 221.158C206.588 227.703 224.352 220.551 230.898 205.183Z" fill="#4A9396"/>
<path d="M189.104 190.188L200.579 203.228L219.349 176.638" stroke="#263238" stroke-width="6" stroke-linecap="round" stroke-linejoin="round"/>
<path d="M231.815 104.939C230.729 105.896 229.333 106.426 227.885 106.432H179.648C178.252 106.432 176.901 105.942 175.828 105.049L172.755 102.502H145.41V123.182H260.716V102.502H234.597L231.815 104.939Z" fill="#4A9396" stroke="#263238" stroke-linecap="round" stroke-linejoin="round"/>
<path d="M206.757 310.91C206.759 310.39 206.606 309.882 206.318 309.449C206.03 309.016 205.62 308.678 205.14 308.478C204.66 308.279 204.132 308.226 203.622 308.327C203.112 308.428 202.643 308.678 202.276 309.046C201.908 309.414 201.658 309.882 201.557 310.392C201.456 310.902 201.509 311.431 201.708 311.911C201.908 312.391 202.246 312.8 202.679 313.088C203.111 313.376 203.62 313.529 204.14 313.528C204.834 313.525 205.498 313.249 205.988 312.759C206.479 312.268 206.755 311.604 206.757 310.91Z" fill="#263238" stroke="#263238" stroke-linecap="round" stroke-linejoin="round"/>
<path d="M104.208 230.502L93.927 322.464C93.927 322.464 86.3893 329.02 87.0495 331.669C87.7098 334.317 96.4108 330.097 97.6134 327.911C98.4668 326.093 99.0747 324.168 99.4212 322.189L121.068 253.021L137.715 327.196C137.715 327.196 144.789 333.005 148.719 332.808C152.649 332.612 151.25 331.063 149.01 328.226C146.77 325.388 141.7 323.769 141.7 323.769L139.201 228.168L104.208 230.502Z" fill="#263238" stroke="#263238" stroke-linecap="round" stroke-linejoin="round"/>
<path d="M138.637 226.559L104.097 228.315L104.337 233.025L138.876 231.269L138.637 226.559Z" fill="#263238" stroke="#263238" stroke-linecap="round" stroke-linejoin="round"/>
<path d="M125.524 229.551C125.579 230.723 124.094 231.744 122.192 231.847C120.289 231.949 118.686 231.084 118.686 229.905C118.686 228.726 120.124 227.712 122.019 227.618C123.913 227.523 125.461 228.388 125.524 229.551Z" fill="white"/>
<path d="M119.606 181.228L106.621 185.032L108.232 228.435L138.69 227.681L134.838 182.816L119.606 181.228Z" fill="white" stroke="#263238" stroke-linecap="round" stroke-linejoin="round"/>
<path d="M113.923 181.715L112.178 255.78L95.6405 247.771L102.911 224.379L97.9513 184.883L113.923 181.715Z" fill="#4A9396" stroke="#263238" stroke-linecap="round" stroke-linejoin="round"/>
<path d="M127.073 181.047L136.316 254.554L151.965 244.91L142.36 222.375L143.288 182.58L127.073 181.047Z" fill="#4A9396" stroke="#263238" stroke-linecap="round" stroke-linejoin="round"/>
<path d="M117.232 190.008L119.81 194.205L117.751 223.428L122.64 229.213L125.171 222.265L121.256 194.26L123.669 190.204L120.164 185.661L117.232 190.008Z" fill="#263238" stroke="#263238" stroke-linecap="round" stroke-linejoin="round"/>
<path d="M120.423 189.45L115.558 193.112L111.659 183.602L113.852 180.206L125.76 179.601L128.574 183.397L126.255 192.043L120.423 189.45Z" fill="white" stroke="#263238" stroke-linecap="round" stroke-linejoin="round"/>
<path d="M114.842 176.551L115.935 182.596L120.423 189.45L124.534 181.37L124.274 176.268L114.842 176.551Z" fill="white" stroke="#263238" stroke-linecap="round" stroke-linejoin="round"/>
<path d="M97.9513 184.883L75.8962 211.583L90.5551 228.938L96.4579 225.103L89.211 210.318L100.026 202.489L97.9513 184.883Z" fill="#4A9396" stroke="#263238" stroke-linecap="round" stroke-linejoin="round"/>
<path d="M96.4579 225.103L97.3383 227.02L92.3707 229.834L91.7026 228.294L96.4579 225.103Z" fill="white" stroke="#263238" stroke-linecap="round" stroke-linejoin="round"/>
<path d="M97.3382 227.02L102.4 233.654L100.734 235.706L99.5233 235.179L97.071 237.27C97.071 237.27 95.2789 236.767 95.051 236.193C94.823 235.619 92.3943 234.157 92.3393 233.183C92.2843 232.208 92.3393 229.834 92.3393 229.834L97.3382 227.02Z" fill="white" stroke="#263238" stroke-linecap="round" stroke-linejoin="round"/>
<path d="M155.573 187.791C155.872 187.012 155.937 186.163 155.762 185.347C155.4 184.411 154.598 181.173 154.756 180.104C154.913 179.035 156.532 177.479 156.673 176.095C156.815 174.712 156.673 173.447 156.673 172.7C156.686 172.496 156.765 172.301 156.898 172.145C157.03 171.989 157.21 171.88 157.409 171.834C157.609 171.788 157.818 171.807 158.005 171.89C158.193 171.972 158.349 172.113 158.45 172.291C159.236 173.203 159.707 174.138 159.33 175.105C159.073 176.186 158.952 177.295 158.969 178.406C158.969 178.406 160.226 180.143 160.918 181.275C161.61 182.407 161.547 185.37 161.083 186.557C160.651 187.456 160.041 188.258 159.291 188.915L159.369 190.959L155.573 187.791Z" fill="white" stroke="#263238" stroke-linecap="round" stroke-linejoin="round"/>
<path d="M157.868 176.771C157.868 176.771 157.318 178.391 158.285 178.76C159.251 179.129 163.205 179.68 163.244 178.406C163.284 177.133 163.362 176.496 162.726 176.528C162.089 176.559 159.126 176.528 159.126 176.528C159.126 176.528 157.75 176.457 157.868 176.771Z" fill="white" stroke="#263238" stroke-linecap="round" stroke-linejoin="round"/>
<path d="M158.316 184.71C158.316 184.71 157.923 185.913 158.623 186.188C159.322 186.463 162.168 186.879 162.191 185.928C162.215 184.977 162.27 184.506 161.814 184.529C161.358 184.553 159.22 184.529 159.22 184.529C159.22 184.529 158.23 184.459 158.316 184.71Z" fill="white" stroke="#263238" stroke-linecap="round" stroke-linejoin="round"/>
<path d="M157.79 182.14C157.79 182.14 157.334 183.539 158.143 183.861C158.953 184.183 162.246 184.647 162.278 183.562C162.309 182.478 162.372 181.912 161.837 181.935C161.303 181.959 158.835 181.935 158.835 181.935C158.835 181.935 157.687 181.873 157.79 182.14Z" fill="white" stroke="#263238" stroke-linecap="round" stroke-linejoin="round"/>
<path d="M157.483 179.648C157.483 179.648 156.933 181.267 157.907 181.637C158.882 182.006 162.82 182.556 162.859 181.283C162.899 180.01 162.977 179.373 162.34 179.405C161.704 179.436 158.741 179.405 158.741 179.405C158.741 179.405 157.365 179.342 157.483 179.648Z" fill="white" stroke="#263238" stroke-linecap="round" stroke-linejoin="round"/>
<path d="M155.125 189.402L155.738 186.934L159.998 189.473L159.283 192.153L155.125 189.402Z" fill="white" stroke="#263238" stroke-linecap="round" stroke-linejoin="round"/>
<path d="M143.288 182.58L151.447 199.943L155.455 188.774L159.385 192.515L155.361 213.218C155.235 213.856 154.926 214.443 154.472 214.907C154.017 215.371 153.437 215.692 152.802 215.831C152.167 215.969 151.506 215.919 150.899 215.687C150.293 215.455 149.767 215.05 149.387 214.523L142.871 205.429L143.288 182.58Z" fill="#4A9396" stroke="#263238" stroke-linecap="round" stroke-linejoin="round"/>
<path d="M111.046 169.493C111.046 169.493 109.396 167.733 109.183 169.022C108.971 170.311 109.639 172.535 110.677 173.329C111.714 174.123 112.626 172.81 112.626 172.81L111.046 169.493Z" fill="white" stroke="#263238" stroke-linecap="round" stroke-linejoin="round"/>
<path d="M126.648 168.699C126.648 168.699 128.102 166.781 128.456 168.039C128.81 169.297 128.354 171.584 127.403 172.48C126.452 173.376 125.406 172.158 125.406 172.158L126.648 168.699Z" fill="white" stroke="#263238" stroke-linecap="round" stroke-linejoin="round"/>
<path d="M111.706 171.301L110.134 167.976C108.869 166.195 107.993 164.168 107.564 162.026C106.778 158.379 108.075 155.345 109.726 154.41C110.653 153.855 111.749 153.648 112.815 153.828C112.815 153.828 113.129 151.69 118.317 149.898C123.504 148.106 129.148 151.337 129.061 152.468C128.975 153.6 127.591 154.103 127.591 154.103C127.591 154.103 131.631 155.597 130.169 157.507C129.268 158.673 128.101 159.608 126.766 160.234C127.059 161.197 127.298 162.176 127.481 163.166C127.686 164.431 126.546 169.87 126.546 169.87L123.756 162.223L115 162.671C115 162.671 114.481 166.381 113.553 167.701C112.961 168.703 112.632 169.839 112.595 171.002C112.595 171.002 112.186 172.401 111.706 171.301Z" fill="#263238" stroke="#263238" stroke-linecap="round" stroke-linejoin="round"/>
<path d="M113.263 157.483C113.248 159.766 113.082 162.045 112.767 164.306C112.578 165.564 111.928 166.706 110.944 167.512C110.944 167.512 112.06 172.692 113.475 175.451C114.89 178.21 117.829 180.474 120.792 180.167C123.756 179.86 126.122 176.496 126.405 173.651C126.688 170.806 125.296 160.289 125.296 160.289C125.296 160.289 116.037 161.916 113.263 157.483Z" fill="white" stroke="#263238" stroke-linecap="round" stroke-linejoin="round"/>
<path d="M114.049 168.118C114.521 167.838 115.053 167.678 115.601 167.651C116.149 167.623 116.695 167.73 117.193 167.96" stroke="#263238" stroke-linecap="round" stroke-linejoin="round"/>
<path d="M113.923 165.76C113.923 165.76 114.104 164.188 116.729 164.046" stroke="#263238" stroke-linecap="round" stroke-linejoin="round"/>
<path d="M120.91 163.7C121.504 163.457 122.161 163.41 122.783 163.567C123.406 163.724 123.961 164.077 124.369 164.573" stroke="#263238" stroke-linecap="round" stroke-linejoin="round"/>
<path d="M119.991 166.239C119.991 166.239 120.407 169.383 120.431 169.768C120.455 170.153 121.767 170.224 121.413 171.026C121.06 171.827 119.92 172.676 118.969 172.071" stroke="#263238" stroke-linecap="round" stroke-linejoin="round"/>
<path d="M121.468 174.704C121.468 174.704 120.47 175.671 118.458 174.854" stroke="#263238" stroke-linecap="round" stroke-linejoin="round"/>
<path d="M123.457 167.245C123.457 167.827 123.213 168.314 122.852 168.33C122.49 168.346 122.176 167.89 122.144 167.316C122.113 166.742 122.388 166.255 122.75 166.231C123.111 166.208 123.402 166.671 123.457 167.245Z" fill="#263238"/>
</svg>
